<svg t="1608778663062" class="icon" viewBox="0 0 1024 1024" version="1.1" xmlns="http://www.w3.org/2000/svg" p-id="9159" width="200" height="200"><path d="M753.142857 370.285714c-1.142857-4.571429-3.428571-8-6.857143-10.285714s-6.857143-4.571429-10.285714-4.571429l-141.714286-21.714285-61.714285-132.571429c-2.285714-3.428571-4.571429-6.857143-9.142858-9.142857-3.428571-2.285714-6.857143-3.428571-11.428571-3.428571s-8 1.142857-11.428571 3.428571c-4.571429 2.285714-6.857143 5.714286-9.142858 9.142857l-61.714285 132.571429-141.714286 21.714285c-3.428571 0-8 2.285714-10.285714 4.571429-3.428571 2.285714-5.714286 5.714286-6.857143 10.285714-1.142857 3.428571-2.285714 8-1.142857 12.571429 1.142857 3.428571 3.428571 6.857143 5.714285 10.285714l104 106.285714-24 147.428572c-1.142857 4.571429 0 9.142857 1.142858 12.571428 2.285714 3.428571 4.571429 6.857143 8 10.285715 2.285714 1.142857 3.428571 2.285714 5.714285 2.285714 2.285714 1.142857 4.571429 1.142857 6.857143 1.142857h5.714286c1.142857-1.142857 3.428571-1.142857 5.714286-2.285714l123.428571-69.714286 123.428571 69.714286c2.285714 1.142857 3.428571 1.142857 5.714286 2.285714h5.714286c2.285714 0 4.571429 0 6.857143-1.142857 2.285714 0 3.428571-1.142857 5.714285-2.285714 3.428571-3.428571 5.714286-6.857143 8-10.285715 1.142857-3.428571 2.285714-8 1.142858-12.571428l-24-147.428572 104-106.285714c2.285714-3.428571 4.571429-6.857143 5.714285-10.285714 0-4.571429 0-9.142857-1.142857-12.571429z" fill="#d4237a" p-id="9160" data-spm-anchor-id="a313x.7781069.0.i4" class="selected"></path><path d="M753.142857 370.285714c-1.142857-4.571429-3.428571-8-6.857143-10.285714s-6.857143-4.571429-10.285714-4.571429l-141.714286-21.714285-61.714285-132.571429c-2.285714-3.428571-4.571429-6.857143-9.142858-9.142857-3.428571-2.285714-6.857143-3.428571-11.428571-3.428571s-8 1.142857-11.428571 3.428571c-4.571429 2.285714-6.857143 5.714286-9.142858 9.142857l-61.714285 132.571429-141.714286 21.714285c-3.428571 0-8 2.285714-10.285714 4.571429-3.428571 2.285714-5.714286 5.714286-6.857143 10.285714-1.142857 3.428571-2.285714 8-1.142857 12.571429 1.142857 3.428571 3.428571 6.857143 5.714285 10.285714l104 106.285714-24 147.428572c-1.142857 4.571429 0 9.142857 1.142858 12.571428 2.285714 3.428571 4.571429 6.857143 8 10.285715 2.285714 1.142857 3.428571 2.285714 5.714285 2.285714 2.285714 1.142857 4.571429 1.142857 6.857143 1.142857h5.714286c1.142857-1.142857 3.428571-1.142857 5.714286-2.285714l123.428571-69.714286 123.428571 69.714286c2.285714 1.142857 3.428571 1.142857 5.714286 2.285714h5.714286c2.285714 0 4.571429 0 6.857143-1.142857 2.285714 0 3.428571-1.142857 5.714285-2.285714 3.428571-3.428571 5.714286-6.857143 8-10.285715 1.142857-3.428571 2.285714-8 1.142858-12.571428l-24-147.428572 104-106.285714c2.285714-3.428571 4.571429-6.857143 5.714285-10.285714 0-4.571429 0-9.142857-1.142857-12.571429zM203.428571 0h617.142858c37.714286 0 73.142857 16 98.285714 41.142857s41.142857 60.571429 41.142857 98.285714v744c0 38.857143-16 73.142857-41.142857 99.428572-25.142857 25.142857-60.571429 41.142857-98.285714 41.142857-41.142857 0-121.142857-38.857143-202.285715-77.714286-37.714286-17.142857-74.285714-35.428571-106.285714-48-32 12.571429-68.571429 30.857143-106.285714 48-81.142857 38.857143-161.142857 77.714286-202.285715 77.714286-37.714286 0-73.142857-16-98.285714-41.142857-25.142857-26.285714-41.142857-60.571429-41.142857-99.428572V139.428571c0-37.714286 16-73.142857 41.142857-98.285714S165.714286 0 203.428571 0z m308.571429 29.714286H203.428571c-29.714286 0-57.142857 12.571429-77.714285 32-19.428571 20.571429-32 48-32 77.714285v744c0 30.857143 12.571429 58.285714 32 77.714286 20.571429 20.571429 48 33.142857 77.714285 33.142857 34.285714 0 112-37.714286 189.714286-74.285714 38.857143-18.285714 77.714286-37.714286 113.142857-51.428571l5.714286-2.285715 5.714286 2.285715c35.428571 13.714286 74.285714 33.142857 113.142857 51.428571 77.714286 36.571429 155.428571 74.285714 189.714286 74.285714 29.714286 0 57.142857-12.571429 77.714285-33.142857 19.428571-19.428571 32-46.857143 32-77.714286V139.428571c0-29.714286-12.571429-57.142857-32-77.714285-20.571429-19.428571-48-32-77.714285-32H512z m253.714286 307.428571c6.857143 5.714286 12.571429 13.714286 16 24 2.285714 9.142857 3.428571 18.285714 1.142857 27.428572s-6.857143 18.285714-13.714286 25.142857l-92.571428 96 21.714285 132.571428c1.142857 10.285714 0 19.428571-3.428571 28.571429s-10.285714 17.142857-18.285714 22.857143c-4.571429 2.285714-9.142857 5.714286-13.714286 6.857143-5.714286 1.142857-11.428571 2.285714-16 2.285714s-9.142857 0-12.571429-1.142857c-4.571429-1.142857-9.142857-3.428571-12.571428-5.714286l-109.714286-60.571429-109.714286 60.571429c-3.428571 2.285714-8 4.571429-12.571428 5.714286-3.428571 1.142857-8 1.142857-12.571429 1.142857s-10.285714-1.142857-16-2.285714c-4.571429-1.142857-9.142857-4.571429-13.714286-6.857143-8-5.714286-14.857143-13.714286-18.285714-22.857143s-4.571429-18.285714-3.428571-28.571429l21.714285-132.571428-92.571428-96c-6.857143-6.857143-11.428571-16-13.714286-25.142857s-1.142857-18.285714 1.142857-27.428572c3.428571-10.285714 9.142857-18.285714 16-24s16-10.285714 26.285715-11.428571l125.714285-19.428572 54.857143-117.714285c4.571429-9.142857 10.285714-16 19.428572-21.714286 8-5.714286 17.142857-8 27.428571-8s19.428571 2.285714 27.428571 8c9.142857 5.714286 14.857143 12.571429 19.428572 21.714286l54.857143 117.714285 125.714285 19.428572c10.285714 1.142857 19.428571 5.714286 26.285715 11.428571z" fill="#2a2a2a" p-id="9161"></path></svg>