<?xml version="1.0" encoding="utf-8"?>
<svg version="1.1" xmlns:xlink="http://www.w3.org/1999/xlink" width="347px" height="183px" xmlns="http://www.w3.org/2000/svg">
  <g transform="matrix(1 0 0 1 -2655 -219 )">
    <path d="M 2656 222  A 2 2 0 0 1 2658 220 L 2999 220  A 2 2 0 0 1 3001 222 L 3001 399  A 2 2 0 0 1 2999 401 L 2658 401  A 2 2 0 0 1 2656 399 L 2656 222  Z " fill-rule="nonzero" fill="#ffffff" stroke="none" />
    <path d="M 2655.5 222  A 2.5 2.5 0 0 1 2658 219.5 L 2999 219.5  A 2.5 2.5 0 0 1 3001.5 222 L 3001.5 399  A 2.5 2.5 0 0 1 2999 401.5 L 2658 401.5  A 2.5 2.5 0 0 1 2655.5 399 L 2655.5 222  Z " stroke-width="1" stroke-dasharray="3,1" stroke="#797979" fill="none" stroke-dashoffset="0.5" />
  </g>
</svg>