<?xml version="1.0" encoding="utf-8"?>
<svg version="1.1" xmlns:xlink="http://www.w3.org/1999/xlink" width="347px" height="183px" xmlns="http://www.w3.org/2000/svg">
  <g transform="matrix(1 0 0 1 -3074 -491 )">
    <path d="M 3075 494  A 2 2 0 0 1 3077 492 L 3418 492  A 2 2 0 0 1 3420 494 L 3420 671  A 2 2 0 0 1 3418 673 L 3077 673  A 2 2 0 0 1 3075 671 L 3075 494  Z " fill-rule="nonzero" fill="#f2f2f2" stroke="none" />
    <path d="M 3074.5 494  A 2.5 2.5 0 0 1 3077 491.5 L 3418 491.5  A 2.5 2.5 0 0 1 3420.5 494 L 3420.5 671  A 2.5 2.5 0 0 1 3418 673.5 L 3077 673.5  A 2.5 2.5 0 0 1 3074.5 671 L 3074.5 494  Z " stroke-width="1" stroke-dasharray="3,1" stroke="#797979" fill="none" stroke-dashoffset="0.5" />
  </g>
</svg>