<?xml version="1.0" encoding="utf-8"?>
<svg version="1.1" xmlns:xlink="http://www.w3.org/1999/xlink" width="50px" height="50px" xmlns="http://www.w3.org/2000/svg">
  <g transform="matrix(1 0 0 1 -2512 -518 )">
    <path d="M 2537 519.5  C 2550.16 519.5  2560.5 529.84  2560.5 543  C 2560.5 556.16  2550.16 566.5  2537 566.5  C 2523.84 566.5  2513.5 556.16  2513.5 543  C 2513.5 529.84  2523.84 519.5  2537 519.5  Z " fill-rule="nonzero" fill="#ffffff" stroke="none" />
    <path d="M 2537 519  C 2550.44 519  2561 529.56  2561 543  C 2561 556.44  2550.44 567  2537 567  C 2523.56 567  2513 556.44  2513 543  C 2513 529.56  2523.56 519  2537 519  Z " stroke-width="2" stroke="#2486ff" fill="none" stroke-opacity="0.435294117647059" />
  </g>
</svg>