<?xml version="1.0" encoding="utf-8"?>
<svg version="1.1" xmlns:xlink="http://www.w3.org/1999/xlink" width="50px" height="50px" xmlns="http://www.w3.org/2000/svg">
  <g transform="matrix(1 0 0 1 -2140 -843 )">
    <path d="M 2165 844.5  C 2178.16 844.5  2188.5 854.84  2188.5 868  C 2188.5 881.16  2178.16 891.5  2165 891.5  C 2151.84 891.5  2141.5 881.16  2141.5 868  C 2141.5 854.84  2151.84 844.5  2165 844.5  Z " fill-rule="nonzero" fill="#ffffff" stroke="none" />
    <path d="M 2165 844  C 2178.44 844  2189 854.56  2189 868  C 2189 881.44  2178.44 892  2165 892  C 2151.56 892  2141 881.44  2141 868  C 2141 854.56  2151.56 844  2165 844  Z " stroke-width="2" stroke="#7f7f7f" fill="none" stroke-opacity="0.435294117647059" />
  </g>
</svg>