<?xml version="1.0" encoding="utf-8"?>
<svg version="1.1" xmlns:xlink="http://www.w3.org/1999/xlink" width="347px" height="82px" xmlns="http://www.w3.org/2000/svg">
  <g transform="matrix(1 0 0 1 -3074 -82 )">
    <path d="M 3075 85  A 2 2 0 0 1 3077 83 L 3418 83  A 2 2 0 0 1 3420 85 L 3420 161  A 2 2 0 0 1 3418 163 L 3077 163  A 2 2 0 0 1 3075 161 L 3075 85  Z " fill-rule="nonzero" fill="#f2f2f2" stroke="none" />
    <path d="M 3074.5 85  A 2.5 2.5 0 0 1 3077 82.5 L 3418 82.5  A 2.5 2.5 0 0 1 3420.5 85 L 3420.5 161  A 2.5 2.5 0 0 1 3418 163.5 L 3077 163.5  A 2.5 2.5 0 0 1 3074.5 161 L 3074.5 85  Z " stroke-width="1" stroke-dasharray="3,1" stroke="#555555" fill="none" stroke-dashoffset="0.5" />
  </g>
</svg>