<svg t="1605856087257" class="icon" viewBox="0 0 1024 1024" version="1.1" xmlns="http://www.w3.org/2000/svg" p-id="2182" width="200" height="200"><path d="M512 512m-480 0a480 480 0 1 0 960 0 480 480 0 1 0-960 0Z" fill="#2BBFA2" p-id="2183" data-spm-anchor-id="a313x.7781069.0.i5" class="selected"></path><path d="M707.2 662.4c-25.6-54.4-214.4-51.2-144-134.4 22.4-28.8 48-64 48-105.6 0-70.4-48-131.2-108.8-131.2s-108.8 57.6-108.8 131.2c0 38.4 16 67.2 44.8 102.4 51.2 73.6-115.2 80-137.6 131.2-6.4 16-9.6 28.8-9.6 41.6v6.4l3.2 3.2H704s3.2 0 3.2-3.2v-6.4c6.4-12.8 3.2-25.6 0-35.2" fill="#ffffff" p-id="2184"></path><path d="M780.8 483.2h-54.4v-54.4c0-6.4-6.4-12.8-12.8-12.8s-12.8 6.4-12.8 12.8v54.4h-54.4c-6.4 0-12.8 6.4-12.8 12.8s6.4 12.8 12.8 12.8h54.4v54.4c0 6.4 6.4 12.8 12.8 12.8s12.8-6.4 12.8-12.8v-54.4h54.4c6.4 0 12.8-6.4 12.8-12.8s-6.4-12.8-12.8-12.8" fill="#ffffff" p-id="2185"></path></svg>