<svg t="1605856250926" class="icon" viewBox="0 0 1024 1024" version="1.1" xmlns="http://www.w3.org/2000/svg" p-id="4514" width="200" height="200"><path d="M512 512m-512 0a512 512 0 1 0 1024 0 512 512 0 1 0-1024 0Z" fill="#FA6400" p-id="4515"></path><path d="M527.803733 493.4656h2.4576c56.388267-0.648533 101.956267-45.329067 101.956267-100.2496v-33.450667c0-55.3984-46.216533-100.352-103.185067-100.352-57.002667 0-103.185067 44.9536-103.185066 100.352v33.450667c0 54.954667 45.568 99.601067 101.956266 100.2496z m200.192 14.609067c36.625067 0 66.321067-28.091733 66.321067-62.6688v-21.026134c0-34.645333-29.696-62.6688-66.321067-62.6688s-66.321067 28.091733-66.321066 62.6688v20.923734c0 34.679467 29.696 62.805333 66.321066 62.805333z m-397.960533 0c36.625067 0 66.321067-28.091733 66.321067-62.6688v-21.026134c0-34.645333-29.696-62.6688-66.321067-62.6688s-66.321067 28.091733-66.321067 62.6688v20.923734c-0.068267 34.679467 29.627733 62.805333 66.321067 62.805333z m-95.709867 63.829333c-17.408 8.8064-29.525333 28.501333-29.525333 51.6096v25.770667c0 17.066667 9.898667 31.266133 23.517867 35.9424 21.162667 5.495467 42.8032 9.147733 64.955733 11.1616V650.922667c0-40.618667 14.813867-76.288 37.341867-98.816h-0.580267a237.568 237.568 0 0 0-95.709867 19.797333z m589.6192 0.068267a240.0256 240.0256 0 0 0-95.914666-20.036267h-0.512c22.6304 22.6304 37.341867 58.2656 37.341866 98.816V696.32c22.050133-2.048 43.793067-5.666133 64.785067-11.1616 13.585067-4.608 23.688533-18.909867 23.688533-36.0448v-25.4976c0-23.108267-12.117333-42.734933-29.354666-51.643733z m-148.2752-2.56a352.085333 352.085333 0 0 0-146.6368-32.1536c-51.6096 0-100.829867 11.3664-146.3296 31.982933-26.624 13.994667-45.2608 45.568-45.2608 82.466133V692.906667c0 27.306667 15.223467 50.176 35.976534 57.617066 50.141867 13.482667 102.126933 20.923733 155.682133 20.923734 53.486933 0 105.403733-7.2704 155.4432-20.855467 20.923733-7.338667 36.1472-30.276267 36.1472-57.582933v-41.198934c0-36.864-18.568533-68.369067-45.021867-82.397866z" fill="#FFFFFF" p-id="4516"></path></svg>