<?xml version="1.0" encoding="utf-8"?>
<svg version="1.1" xmlns:xlink="http://www.w3.org/1999/xlink" width="12px" height="12px" viewBox="212 369  12 12" xmlns="http://www.w3.org/2000/svg">
  <path d="M 218 369  C 221.36 369  224 371.64  224 375  C 224 378.36  221.36 381  218 381  C 214.64 381  212 378.36  212 375  C 212 371.64  214.64 369  218 369  Z " fill-rule="nonzero" fill="#f0f0f0" stroke="none" />
  <path d="M 218 369.5  C 221.08 369.5  223.5 371.92  223.5 375  C 223.5 378.08  221.08 380.5  218 380.5  C 214.92 380.5  212.5 378.08  212.5 375  C 212.5 371.92  214.92 369.5  218 369.5  Z " stroke-width="1" stroke="#797979" fill="none" />
  <path d="M 218 378  C 216.32 378  215 376.68  215 375  C 215 373.32  216.32 372  218 372  C 219.68 372  221 373.32  221 375  C 221 376.68  219.68 378  218 378  " fill-rule="nonzero" fill="#797979" stroke="none" />
</svg>