<?xml version="1.0" encoding="utf-8"?>
<svg version="1.1" xmlns:xlink="http://www.w3.org/1999/xlink" width="12px" height="12px" viewBox="1576 385  12 12" xmlns="http://www.w3.org/2000/svg">
  <path d="M 1582 385  C 1585.36 385  1588 387.64  1588 391  C 1588 394.36  1585.36 397  1582 397  C 1578.64 397  1576 394.36  1576 391  C 1576 387.64  1578.64 385  1582 385  Z " fill-rule="nonzero" fill="#f0f0f0" stroke="none" />
  <path d="M 1582 385.5  C 1585.08 385.5  1587.5 387.92  1587.5 391  C 1587.5 394.08  1585.08 396.5  1582 396.5  C 1578.92 396.5  1576.5 394.08  1576.5 391  C 1576.5 387.92  1578.92 385.5  1582 385.5  Z " stroke-width="1" stroke="#797979" fill="none" />
  <path d="M 1582 394  C 1580.32 394  1579 392.68  1579 391  C 1579 389.32  1580.32 388  1582 388  C 1583.68 388  1585 389.32  1585 391  C 1585 392.68  1583.68 394  1582 394  " fill-rule="nonzero" fill="#797979" stroke="none" />
</svg>