<svg t="1608185295825" class="icon" viewBox="0 0 1024 1024" version="1.1" xmlns="http://www.w3.org/2000/svg" p-id="4224" width="200" height="200"><path d="M512 512m-512 0a512 512 0 1 0 1024 0 512 512 0 1 0-1024 0Z" fill="#E8ECFF" p-id="4225"></path><path d="M717.499733 460.0832C731.272533 279.108267 617.216 204.8 506.8288 204.8c-110.370133 0-212.002133 106.990933-179.575467 238.250667 0.136533 0.546133 0.017067 1.109333 0.034134 1.672533a177.7152 177.7152 0 0 0-32.4608-2.986667c-97.792 0-158.293333 67.6352-158.293334 165.717334C136.533333 705.570133 215.790933 785.066667 313.582933 785.066667c2.440533 0 4.881067-0.068267 7.304534-0.170667 2.116267 0.119467 4.266667 0.170667 6.4 0.170667h389.888c2.3552 0 4.693333-0.068267 6.997333-0.2048C815.104 780.561067 887.466667 725.725867 887.466667 622.421333s-81.646933-144.554667-170.2912-151.227733c0.221867-3.669333 0.0512-7.3728 0.341333-11.093333z" fill="#4551B1" p-id="4226"></path><path d="M238.933333 665.088h546.133334v51.2H238.933333z" fill="#E8ECFF" p-id="4227"></path><path d="M648.533333 426.154667v256H375.466667v-256h273.066666z m-34.133333 34.133333H409.6v204.8h204.8v-204.8z" fill="#E8ECFF" p-id="4228"></path><path d="M460.8 494.421333h102.4v34.133334h-102.4zM460.8 579.754667h102.4v34.133333h-102.4zM426.666667 323.754667h170.666666v34.133333H426.666667z" fill="#E8ECFF" p-id="4229"></path><path d="M494.933333 272.554667h34.133334v153.6h-34.133334zM648.533333 528.554667h34.133334a34.133333 34.133333 0 0 1 34.133333 34.133333v102.4h-34.133333v-102.4h-34.133334v-34.133333zM375.466667 579.754667h-34.133334a34.133333 34.133333 0 0 0-34.133333 34.133333v51.2h34.133333v-51.2h34.133334v-34.133333z" fill="#E8ECFF" p-id="4230"></path></svg>