<svg t="1608798882931" class="icon" viewBox="0 0 1024 1024" version="1.1" xmlns="http://www.w3.org/2000/svg" p-id="10397" width="200" height="200"><path d="M622.08 227.328a219.68384 219.68384 0 0 0-255.488-91.648l255.488 91.648zM651.776 306.688c-2.048-13.312-5.12-25.6-9.728-37.888L324.096 154.624C312.832 161.28 302.08 168.96 291.84 177.664l359.936 129.024zM266.752 203.264C235.52 240.64 217.088 288.256 217.088 339.968c0 118.784 97.792 215.04 218.624 215.04 119.808 0 217.088-95.232 218.624-212.992L266.752 203.264zM26.112 954.88v-44.032c0-183.296 183.808-332.8 409.6-332.8 226.304 0 409.6 148.992 409.6 332.8v44.032M971.264 607.744h-219.648c-14.848 0-27.136-12.288-27.136-27.136s12.288-27.136 27.136-27.136h219.648c14.848 0 27.136 12.288 27.136 27.136-0.512 14.848-12.288 27.136-27.136 27.136z" fill="#B1D25E" p-id="10398"></path><path d="M861.696 715.264c-15.36 0-27.648-12.288-27.648-27.136v-215.04c0-14.848 12.288-27.136 27.136-27.136h0.512c14.848 0 27.136 12.288 27.136 27.136v215.04c0 14.848-12.288 27.136-27.136 27.136z" fill="#B1D25E" p-id="10399"></path></svg>