<?xml version="1.0" encoding="utf-8"?>
<svg version="1.1" xmlns:xlink="http://www.w3.org/1999/xlink" width="112px" height="37px" xmlns="http://www.w3.org/2000/svg">
  <g transform="matrix(1 0 0 1 -1465 -1111 )">
    <path d="M 1467 1114  A 1 1 0 0 1 1468 1113 L 1574 1113  A 1 1 0 0 1 1575 1114 L 1575 1145  A 1 1 0 0 1 1574 1146 L 1468 1146  A 1 1 0 0 1 1467 1145 L 1467 1114  Z " fill-rule="nonzero" fill="#ffffff" stroke="none" />
    <path d="M 1466 1114  A 2 2 0 0 1 1468 1112 L 1574 1112  A 2 2 0 0 1 1576 1114 L 1576 1145  A 2 2 0 0 1 1574 1147 L 1468 1147  A 2 2 0 0 1 1466 1145 L 1466 1114  Z " stroke-width="2" stroke-dasharray="6,2" stroke="#d7d7d7" fill="none" />
  </g>
</svg>