<?xml version="1.0" encoding="utf-8"?>
<svg version="1.1" xmlns:xlink="http://www.w3.org/1999/xlink" width="87px" height="114px" xmlns="http://www.w3.org/2000/svg">
  <g transform="matrix(1 0 0 1 -1214 -735 )">
    <path d="M 1216 738  A 1 1 0 0 1 1217 737 L 1298 737  A 1 1 0 0 1 1299 738 L 1299 846  A 1 1 0 0 1 1298 847 L 1217 847  A 1 1 0 0 1 1216 846 L 1216 738  Z " fill-rule="nonzero" fill="#ffffff" stroke="none" />
    <path d="M 1215 738  A 2 2 0 0 1 1217 736 L 1298 736  A 2 2 0 0 1 1300 738 L 1300 846  A 2 2 0 0 1 1298 848 L 1217 848  A 2 2 0 0 1 1215 846 L 1215 738  Z " stroke-width="2" stroke-dasharray="6,2" stroke="#d7d7d7" fill="none" />
  </g>
</svg>