<svg t="1611044030116" class="icon" viewBox="0 0 1024 1024" version="1.1" xmlns="http://www.w3.org/2000/svg" p-id="2637" width="200" height="200"><path d="M512 512m-512 0a512 512 0 1 0 1024 0 512 512 0 1 0-1024 0Z" fill="#5EAAFF" opacity=".149" p-id="2638"></path><path d="M458.565818 400.290909c3.770182 7.912727 12.730182 11.822545 21.061818 9.285818a135.959273 135.959273 0 0 1 39.68-6.004363c13.428364 0 26.437818 2.071273 38.912 5.794909a17.687273 17.687273 0 0 0 20.992-9.309091l25.902546-54.062546c8.192-17.082182-2.327273-38.213818-19.083637-38.213818h-134.516363c-16.709818 0-27.252364 21.131636-19.060364 38.213818l26.112 54.272zM598.923636 734.766545c-11.706182 0-23.831273-0.279273-36.724363-0.60509a1705.378909 1705.378909 0 0 0-42.821818-0.698182c-14.754909 0-28.997818 0.349091-42.821819 0.698182-12.893091 0.325818-25.088 0.605091-36.724363 0.60509-30.650182 0-61.998545-1.792-83.688728-15.080727-21.969455-13.428364-32.232727-37.050182-32.232727-74.309818 0-38.283636 11.170909-75.264 32.302546-107.101091a194.746182 194.746182 0 0 1 83.409454-70.446545 44.125091 44.125091 0 0 1 62.045091 40.215272v60.416l-21.271273-21.294545a14.778182 14.778182 0 0 0-10.612363-4.328727 14.894545 14.894545 0 0 0-10.612364 4.328727l-5.026909 5.026909a14.917818 14.917818 0 0 0 0 21.154909l49.943273 49.92v0.069818c0.069818 0.139636 0.139636 0.279273 0.279272 0.418909l5.02691 5.026909a14.778182 14.778182 0 0 0 10.58909 4.328728h0.139637a14.615273 14.615273 0 0 0 10.542545-4.328728l5.026909-5.026909c0.139636-0.139636 0.209455-0.279273 0.279273-0.418909 0 0 0-0.069818 0.069818-0.069818l49.92-49.92a14.917818 14.917818 0 0 0 0-21.154909l-5.026909-5.026909a14.778182 14.778182 0 0 0-10.589091-4.328727 14.778182 14.778182 0 0 0-10.612363 4.328727l-21.085091 21.294545V508.741818c0-24.32 19.781818-44.078545 44.078545-44.078545 6.283636 0 12.404364 1.396364 18.269091 4.002909a195.560727 195.560727 0 0 1 82.082909 70.516363 193.233455 193.233455 0 0 1 31.744 106.263273c0 37.259636-10.24 60.881455-32.232727 74.309818-21.620364 13.218909-53.015273 15.010909-83.665455 15.010909z" fill="#d4237a" p-id="2639" data-spm-anchor-id="a313x.7781069.0.i1" class="selected"></path><path d="M457.541818 464.733091c11.147636 0 22.155636 4.468364 30.208 12.334545 8.471273 8.192 13.172364 19.2 13.172364 31.045819v58.763636l-20.107637-20.130909a15.802182 15.802182 0 0 0-22.178909 0l-5.026909 5.050182a15.592727 15.592727 0 0 0 0 22.109091l49.850182 49.850181a2.257455 2.257455 0 0 0 0.418909 0.558546l5.026909 5.026909a15.522909 15.522909 0 0 0 11.077818 4.538182h0.139637c4.189091 0 8.145455-1.582545 11.101091-4.538182l5.026909-5.026909a2.257455 2.257455 0 0 0 0.418909-0.558546l49.850182-49.873454a15.592727 15.592727 0 0 0 0-22.109091l-5.026909-5.026909a15.802182 15.802182 0 0 0-22.178909 0l-19.968 20.061091V508.741818c0-11.845818 4.677818-22.877091 13.14909-31.069091 8.145455-7.842909 19.153455-12.334545 30.254546-12.334545 6.190545 0 12.171636 1.326545 17.966545 4.002909a194.653091 194.653091 0 0 1 81.803637 70.260364 192.535273 192.535273 0 0 1 31.627636 105.914181c0 19.293091-2.769455 34.722909-8.401454 47.104a58.693818 58.693818 0 0 1-23.435637 26.600728c-21.550545 13.149091-52.736 14.941091-83.316363 14.941091-11.706182 0-23.831273-0.279273-36.724364-0.628364a1705.378909 1705.378909 0 0 0-42.821818-0.698182c-14.754909 0-28.997818 0.349091-42.845091 0.698182-12.869818 0.349091-25.064727 0.628364-36.701091 0.628364-30.580364 0-61.789091-1.792-83.339636-14.941091a58.484364 58.484364 0 0 1-23.412364-26.670546c-5.655273-12.381091-8.401455-27.810909-8.401455-47.104 0-38.167273 11.077818-75.008 32.162909-106.682182a194.885818 194.885818 0 0 1 83.130182-70.237091c5.492364-2.56 11.403636-3.793455 17.477818-3.793454m0-1.396364c-6.050909 0-12.241455 1.256727-18.245818 3.956364-68.375273 30.417455-116.037818 98.746182-116.037818 178.152727 0 79.616 47.941818 90.065455 116.596364 90.065455 24.296727 0 51.223273-1.28 79.546182-1.28 28.299636 0 55.226182 1.303273 79.546181 1.303272 68.654545 0 116.596364-10.402909 116.596364-90.065454 0-78.731636-46.848-146.571636-114.269091-177.431273a43.985455 43.985455 0 0 0-18.525091-4.072727 44.846545 44.846545 0 0 0-44.753454 44.776727v61.370182l22.434909-22.458182a14.196364 14.196364 0 0 1 10.077091-4.142545 14.196364 14.196364 0 0 1 10.053818 4.142545l5.026909 5.026909c5.585455 5.585455 5.585455 14.592 0 20.177455l-49.873455 49.989818c-0.139636 0.139636-0.139636 0.349091-0.279272 0.488727L530.385455 628.363636a14.196364 14.196364 0 0 1-10.053819 4.142546h-0.139636A14.196364 14.196364 0 0 1 510.138182 628.363636l-5.026909-5.026909c-0.139636-0.139636-0.209455-0.349091-0.349091-0.465454l-49.92-49.943273a14.266182 14.266182 0 0 1 0-20.177455l5.026909-5.026909a14.196364 14.196364 0 0 1 10.053818-4.142545 14.196364 14.196364 0 0 1 10.053818 4.142545l22.458182 22.458182v-62.068363a44.962909 44.962909 0 0 0-44.916364-44.753455z" fill="#FFFFFF" p-id="2640"></path><path d="M591.546182 700.043636H448.930909a17.850182 17.850182 0 0 1 0-35.653818h142.661818a17.850182 17.850182 0 0 1 0 35.677091z" fill="#FFFFFF" p-id="2641"></path></svg>