<?xml version="1.0" encoding="utf-8"?>
<svg version="1.1" xmlns:xlink="http://www.w3.org/1999/xlink" width="360px" height="174px" xmlns="http://www.w3.org/2000/svg">
  <g transform="matrix(1 0 0 1 -346 -567 )">
    <path d="M 347 571  A 3 3 0 0 1 350 568 L 702 568  A 3 3 0 0 1 705 571 L 705 737  A 3 3 0 0 1 702 740 L 350 740  A 3 3 0 0 1 347 737 L 347 571  Z " fill-rule="nonzero" fill="#ffffff" stroke="none" />
    <path d="M 346.5 571  A 3.5 3.5 0 0 1 350 567.5 L 702 567.5  A 3.5 3.5 0 0 1 705.5 571 L 705.5 737  A 3.5 3.5 0 0 1 702 740.5 L 350 740.5  A 3.5 3.5 0 0 1 346.5 737 L 346.5 571  Z " stroke-width="1" stroke-dasharray="3,1" stroke="#40a9ff" fill="none" stroke-dashoffset="0.5" />
  </g>
</svg>