<svg t="1602564692776" class="icon" viewBox="0 0 1024 1024" version="1.1" xmlns="http://www.w3.org/2000/svg" p-id="2384" data-spm-anchor-id="a313x.7781069.0.i0" width="200" height="200"><path d="M511.91758063 524.51761159m-441.81657846 0a441.81657849 441.81657849 0 1 0 883.63315694 0 441.81657849 441.81657849 0 1 0-883.63315694 0Z" fill="#F7A7D2" p-id="2385"></path><path d="M38.137792 833.28536283c-9.44725421 0-17.31996541-7.7152578-17.31996541-17.31996542V233.0698258c0-9.44725421 7.7152578-17.31996541 17.31996541-17.31996542h947.71703067c4.72362646 0 9.28979952 2.04690449 12.59633894 5.51089733 3.14908474 3.30653942 4.72362646 7.55780311 4.56617306 11.96652278V815.96539741c0 9.44725421-7.7152578 17.31996541-17.31996671 17.31996542H38.137792z m403.55520015-102.03034266c-3.46399282-77.78239159-58.25806571-143.44080702-133.52119004-160.44586435l-38.7337411 122.18448473-38.73374112-122.18448473C155.28374218 588.12912124 100.64712268 653.78753666 97.18312987 731.25502017h344.50986228z m443.54857618-96.67690002v-10.54943316H532.70153886v10.54943316h352.54002947z m0-75.57803112v-10.54943445H532.70153886v10.54943445h352.54002947zM269.28060761 325.81036893c-54.00680203 0-97.93653366 43.92973164-97.93653367 97.93653365s43.92973164 97.93653366 97.93653367 97.93653237 97.93653366-43.92973164 97.93653237-97.93653237-43.92973164-97.93653366-97.93653237-97.93653365z m615.96096072 157.1393249v-10.54943315H532.70153886v10.54943315h352.54002947z m0-76.20784856v-10.54943446H532.70153886v10.54943446h352.54002947z" fill="#FFFFFF" p-id="2386"></path><path d="M985.85482267 223.62257158c5.19598923 0 9.60470762 4.40871837 9.4472542 9.44725422V815.96539741c0 4.88108115-3.93635561 9.44725421-9.4472542 9.44725423H38.137792c-4.88108115 0-9.44725421-3.93635561-9.44725293-9.44725423V233.0698258c0-4.88108115 3.93635561-9.44725421 9.44725293-9.44725422h947.71703067M269.28060761 529.55614743c58.10061231 0 105.80924485-47.70863255 105.80924486-105.80924485s-47.23626977-105.80924485-105.80924486-105.80924485-105.80924485 47.70863255-105.80924486 105.80924485 47.23626977 105.80924485 105.80924486 105.80924485m255.54822006-114.94159097h368.28545186v-26.29485684H524.82882767v26.29485684m0 76.20784859h368.28545186v-26.29485685H524.82882767v26.29485685m0 76.05039517h368.28545186v-26.29485684H524.82882767v26.29485684m-255.54822006 100.14089286l-33.38029848-105.33688209c-83.60819829 15.587969-147.06225454 89.11909562-147.06225324 177.45092038h360.72764875c0-88.33182476-63.13914815-162.17786076-147.06225454-177.45092038l-33.22284249 105.33688209m255.54822006-24.56286043h368.28545186v-26.29485685H524.82882767v26.29485685m461.025995-434.57368477H38.137792c-13.85597259 0-25.1926779 11.33670531-25.1926766 25.19267792V815.96539741c0 13.85597259 11.33670531 25.1926779 25.1926766 25.19267791h947.71703067c13.85597259 0 25.1926779-11.33670531 25.1926779-25.19267791V233.22728049c0.15745469-6.45562417-2.20435919-12.75379235-6.77053226-17.47742011-4.88108115-5.03853584-11.6516134-7.87271119-18.42214564-7.8727125zM269.28060761 513.81072377c-49.59808365 0-90.06382117-40.46573753-90.06382247-90.06382119s40.46573753-90.06382117 90.06382247-90.06382116 90.06382117 40.46573753 90.06382116 90.06382116-40.30828413 90.06382117-90.06382116 90.06382119z m0 205.32032023l14.95815153-47.39372446 28.97157881-91.48090949c65.65841542 17.79232819 113.36704798 75.10566963 119.82267213 143.12589763h-327.50480625c6.45562417-67.86277461 54.16425671-125.01866138 119.82267214-143.12589763l28.9715788 91.48090949 14.95815284 47.39372446z" fill="#bfbfbf" p-id="2387" data-spm-anchor-id="a313x.7781069.0.i1" class=""></path></svg>