<svg t="1606383116642" class="icon" viewBox="0 0 1112 1024" version="1.1" xmlns="http://www.w3.org/2000/svg" p-id="2831" width="200" height="200"><path d="M1045.731749 190.370119C944.896435 78.234295 879.701188 0 744.964346 39.117148S552.855688 145.168081 552.855688 145.168081 385.086587-74.757216 219.056027 50.417657C52.156197 175.59253-43.463497 345.10017 57.371817 486.791171c100.835314 141.691002 487.660441 485.921902 487.660441 485.921902s397.256367-354.662139 435.504245-399.864177 166.89983-270.342954 65.195246-382.478777z m-145.168082 345.10017l-0.86927 0.86927-1.73854 1.738539-222.533107 223.402377c-6.08489 6.08489-14.777589 10.431239-24.339558 10.43124-19.123939 0-34.770798-15.646859-34.770798-34.770798 0-9.561969 3.47708-18.254669 10.431239-24.339559l220.794567-220.794567c12.169779-14.777589 33.901528-16.516129 48.679117-4.34635 14.777589 11.300509 16.516129 33.032258 4.34635 47.809848z m65.195246-88.665535c-6.08489 11.300509-18.254669 18.254669-31.293718 18.254669v0.86927c-19.123939 0-34.770798-15.646859-34.770798-34.770798 0-5.21562 1.73854-10.431239 3.47708-15.646859 54.764007-105.181664-9.561969-146.037351-10.431239-146.906622-16.516129-9.561969-21.731749-31.293718-12.16978-46.940577 9.561969-15.646859 28.685908-20.862479 45.202038-13.039049l2.60781 1.73854 1.73854 0.86927c41.724958 25.208829 99.966044 108.658744 35.640067 235.572156z" fill="#D5E6FF" p-id="2832"></path><path d="M555.463497 1019.65365c-7.82343 0-15.646859-3.47708-21.731748-8.692699L101.704584 578.933786c-130.390492-131.259762-130.390492-343.36163 0-474.621392 37.378608-38.247878 83.449915-66.064516 133.867572-81.711375C284.251273 6.95416 336.40747 2.60781 386.825127 10.431239c16.516129 2.60781 28.685908 17.385399 26.947369 34.770798-2.60781 16.516129-17.385399 28.685908-33.901528 26.947369h-1.73854C228.617997 50.417657 90.404075 154.730051 69.541596 304.244482c-12.169779 85.188455 16.516129 170.37691 77.365025 231.225807L556.332767 944.896435l409.426146-409.426146c106.920204-106.920204 106.920204-280.774194 0-387.694398S684.98472 40.855688 578.064516 147.775891L336.40747 388.563667c-13.039049 11.300509-33.032258 9.561969-44.332767-2.60781-10.431239-11.300509-10.431239-29.555178 0-40.855687L532.862479 104.312394C661.514431-30.424448 874.485569-34.770798 1008.353141 93.011885c133.867572 127.782683 139.083192 340.75382 11.300509 475.490662l-6.954159 6.954159-1.73854 1.73854-1.73854 1.73854-432.027165 431.157895c-6.08489 6.08489-13.908319 9.561969-21.731749 9.561969-0.86927 0 0 0 0 0z" fill="#2978F2" p-id="2833"></path><path d="M555.463497 1024h-0.869269c-8.692699 0-17.385399-3.47708-24.339559-10.431239L99.096774 582.410866c-132.129032-132.998302-132.129032-347.70798 0-480.706282C137.344652 63.456706 183.415959 34.770798 234.702886 18.254669 284.251273 2.60781 336.40747-2.60781 387.694397 4.34635c19.123939 2.60781 33.032258 19.993209 30.424449 39.117147-0.86927 8.692699-6.08489 17.385399-13.03905 22.601019-6.95416 6.08489-16.516129 8.692699-26.078098 6.95416h-1.73854C230.356537 52.156197 93.881154 153.860781 73.018676 301.636672v2.60781c-11.300509 84.319185 16.516129 168.63837 76.495755 228.617997L556.332767 938.811545l405.949067-406.818336c103.443124-106.920204 99.966044-278.166384-7.82343-380.740238-104.312394-99.966044-269.473684-99.966044-373.786078 0L339.01528 391.171477c-14.777589 13.039049-37.378608 12.169779-50.417657-2.60781-12.169779-13.039049-12.169779-33.901528 0-46.940577L530.254669 100.835314C666.730051-28.685908 881.439728-22.601019 1010.960951 113.005093c123.436333 129.521222 125.174873 332.93039 3.47708 465.059423l-3.47708 3.47708-432.027165 431.157895c-6.08489 6.95416-14.777589 11.300509-23.470289 11.300509z m0-8.692699c6.95416 0 13.039049-2.60781 18.254669-7.82343l435.504245-434.634975c127.782683-131.259762 125.174873-341.62309-6.08489-469.405772-130.390492-126.913413-339.01528-125.174873-466.797962 3.47708L295.551783 347.70798c-10.431239 10.431239-9.561969 27.816638 0.86927 38.247877 10.431239 9.561969 26.947368 9.561969 36.509337 0l241.657046-240.787776c108.658744-108.658744 285.120543-108.658744 393.779287 0s108.658744 285.120543 0 393.779287L556.332767 950.981324 143.429542 538.078098C34.770798 430.288625 34.770798 253.826825 142.560272 145.168081c61.718166-61.718166 149.514431-91.273345 236.441426-79.103565h1.73854c14.777589 0.86927 27.816638-9.561969 28.685908-24.339558 0.86927-13.908319-8.692699-26.078098-22.601019-28.685909C336.40747 6.95416 285.989813 11.300509 237.310696 26.078098c-50.417657 15.646859-95.619694 43.463497-132.998302 80.842106-128.651952 129.521222-128.651952 339.01528 0 469.405772l431.157895 431.157895c6.08489 4.34635 13.039049 7.82343 19.993208 7.82343z" fill="#2978F2" p-id="2834"></path></svg>