<svg t="1609847336505" class="icon" viewBox="0 0 1024 1024" version="1.1" xmlns="http://www.w3.org/2000/svg" p-id="4214" width="200" height="200"><path d="M505.29668213 947.71562702H250.57062349c-53.62653826 0-100.5497602-46.92322196-100.5497602-100.5497602V176.83413318c0-53.62653826 46.92322196-100.5497602 100.5497602-100.5497602h536.2653872c53.62653826 0 100.5497602 46.92322196 100.5497602 100.5497602v288.24264486c0 20.10995203-13.40663417 33.5165862-33.51658622 33.51658779s-33.5165862-13.40663417-33.51658621-33.51658779V176.83413318c0-20.10995203-13.40663417-33.5165862-33.51658777-33.51658776h-536.2653872c-20.10995203 0-33.5165862 13.40663417-33.51658621 33.51658776v670.33173364c0 20.10995203 13.40663417 33.5165862 33.51658621 33.51658776h254.72605864c20.10995203 0 33.5165862 13.40663417 33.51658778 33.51658622s-13.40663417 33.5165862-33.51658778 33.51658622z" fill="#13227a" p-id="4215"></path><path d="M840.46255051 900.79240662h-207.80283829c-13.40663417 0-26.81326991-13.40663417-26.81326989-26.81326991s13.40663417-26.81326991 26.81326989-26.81326989h207.80283829c46.92322196 0 80.43980815-40.21990407 80.43980817-80.43980816s-40.21990407-80.43980815-80.43980817-80.43980817h-174.28625205c-13.40663417 0-26.81326991-13.40663417-26.81326834-26.81326834s13.40663417-26.81326991 26.81326834-26.81326993h174.28625205c73.7364903 0 134.0663464 60.32985613 134.06634641 134.06634644s-53.62653826 134.0663464-134.06634641 134.06634796zM605.84644233 444.96682602c-6.70331787 0-13.40663417 0-20.10995203-6.70331632L398.04360564 243.86730561c-13.40663417-13.40663417-13.40663417-26.81326991 0-40.21990407s26.81326991-13.40663417 40.21990406 0l187.69288466 187.69288624c13.40663417 13.40663417 13.40663417 26.81326991 0 40.21990407-6.70331787 6.70331787-13.40663417 13.40663417-20.10995203 13.40663417z" fill="#13227a" p-id="4216"></path><path d="M418.15355767 444.96682602c-6.70331787 0-13.40663417 0-20.10995203-6.70331632-13.40663417-13.40663417-13.40663417-26.81326991 0-40.21990406l187.69288466-187.69288625c13.40663417-13.40663417 26.81326991-13.40663417 40.21990406 0s13.40663417 26.81326991 0 40.2199041l-187.69288466 187.69288621c-6.70331787 0-13.40663417 6.70331787-20.10995203 6.70331632zM733.20947244 793.53932855c-6.70331787 0-13.40663417 0-20.10995206-6.70331786l-100.54976018-100.5497602c-6.70331787-6.70331787-13.40663417-20.10995203-13.40663417-33.5165862s6.70331787-26.81326991 13.40663417-33.51658623l107.25307806-107.25307806c13.40663417-13.40663417 26.81326991-13.40663417 40.2199041 0s13.40663417 26.81326991 0 40.21990407l-107.25307807 107.25307808 100.54976019 93.84644233c13.40663417 13.40663417 13.40663417 26.81326991 0 40.21990407-6.70331787-6.70331787-13.40663417 0-20.10995204 0zM491.89004797 612.5497602H297.49384544c-13.40663417 0-26.81326991-13.40663417-26.81326992-26.8132699s13.40663417-26.81326991 26.81326992-26.81326834h194.39620253c13.40663417 0 26.81326991 13.40663417 26.8132699 26.81326834s-13.40663417 26.81326991-26.8132699 26.8132699zM411.4502398 733.20947244H297.49384544c-13.40663417 0-26.81326991-13.40663417-26.81326992-26.81326991s13.40663417-26.81326991 26.81326992-26.81326834h113.95639436c13.40663417 0 26.81326991 13.40663417 26.8132699 26.81326834s-13.40663417 26.81326991-26.8132699 26.81326991z" fill="#13227a" p-id="4217"></path></svg>