<svg t="1609847251935" class="icon" viewBox="0 0 1024 1024" version="1.1" xmlns="http://www.w3.org/2000/svg" p-id="2082" width="200" height="200"><path d="M267.937 679.744c0-231.65 187.786-419.438 419.437-419.438 39.074 0 76.897 5.35 112.785 15.346V123.452l-116.581-35.84-558.182 6.516-27.392 59.444 3.323 714.371 42.026 60.276h206.079c-51.222-69.548-81.495-155.475-81.495-248.475z" fill="#13227a" opacity=".2" p-id="2083"></path><path d="M320.956 889.017H192.537c-44.95 0-64.225-28.654-64.225-63.439v-634.24c0-56.318 11.024-63.472 64.225-63.472h513.737c49.679 0 65.149 16.432 65.149 63.472v84.904c0 44.297 64.228 50.016 64.228 0v-84.904c0-93.598-30.644-126.911-129.514-126.911h-513.6c-62.991 0-128.446 7.601-128.446 124.104v657.657a121.309 121.309 0 0 0 5.372 37.011c13.917 42.504 54.132 70.794 98.84 69.532 78.534 0.339 110.443 0 152.55 0 42.11 0 39.303-63.714 0.103-63.714z m0 0" fill="#13227a" p-id="2084"></path><path d="M262.175 251.455c-44.919 0-46.902 64.979 0 64.979h374.978c42.969 0 49.777-64.911 0-64.979H262.175z m100.651 192.228H262.175c-44.919 0-46.902 64.98 0 64.98h100.651c42.965-0.274 49.814-64.911 0-64.98z m0 0M687.38 406.856c-110.371 0-209.878 66.484-252.116 168.455-42.237 101.972-18.889 219.344 59.155 297.386 78.047 78.044 195.421 101.392 297.39 59.154 101.972-42.237 168.454-141.74 168.454-252.111 0-152.783-125.579-272.884-272.883-272.884z m0 491.2c-120.572 0-218.316-97.748-218.316-218.316 0-120.569 97.744-218.314 218.316-218.314 120.569 0 218.313 97.745 218.313 218.314-0.27 120.499-97.821 218.151-218.313 218.543v-0.227z m0 0" fill="#13227a" p-id="2085"></path><path d="M779.511 589.377l-128.778 125.98-55.145-53.855c-5.25-10.275-26.254-10.275-36.763 0a24.584 24.584 0 0 0-7.876 17.982c0 6.82 2.855 13.326 7.876 17.978l73.612 72.038a25.673 25.673 0 0 0 18.396 7.759 25.675 25.675 0 0 0 18.391-7.759l147.165-143.96a25.051 25.051 0 0 0 7.442-17.949 25.049 25.049 0 0 0-7.615-17.871c-10.188-9.875-26.347-9.949-36.621-0.172l-0.084-0.171z m0 0" fill="#13227a" p-id="2086"></path></svg>