<svg t="1602314651712" class="icon" viewBox="0 0 1820 1024" version="1.1" xmlns="http://www.w3.org/2000/svg" p-id="27428" width="200" height="200"><path d="M525.96524375 1024.94342973h361.14122339L940.73300459 803.31500013l-296.76144432 35.75102498zM1298.24326318 678.18640977l153.61769023-17.87551396-46.36461236-78.763978h-135.88182899zM1494.87390642 738.93522257L1119.48813387 781.80852287l7.12227534 243.13490686h543.38766176z" fill="#25B997" p-id="27429"></path><path d="M1265.98354877 95.41675679C1198.11246064 27.40601742 1115.85717059-4.71404574 1022.84864339-4.71404574s-175.12416599 32.12006166-243.13490686 100.13080253c-67.87108813 67.87108813-100.13080253 146.63506761-100.13080255 239.50394358 0 85.74660062 39.38198974 168.00189066 114.37535174 253.88814402l3.63096329 3.63096328 103.6221146 125.12859036c17.87551249 28.62875113 35.75102646 53.62653893 49.99557564 82.25529004 28.62875113 57.25750223 53.62653893 132.2508657 75.13301471 228.75070494 21.50647579-96.49983925 46.50426362-171.63285396 75.13301471-228.75070494 28.62875113-57.25750223 71.50205142-118.0063165 128.75955512-182.38609258l21.50647579-28.6287511c75.13301471-85.74660062 114.37535174-168.00189066 114.37535174-253.88814402 0-93.00852867-32.12006166-175.12416599-100.13080255-239.50394358zM1019.35733133 510.04486637c-100.13080253 0-182.38609259-82.25529005-182.38609258-182.38609405s82.25529005-182.38609259 182.38609258-182.38609259 182.38609259 82.25529005 182.38609261 182.38609259S1119.48813387 510.04486637 1019.35733133 510.04486637z" fill="#25B997" p-id="27430"></path><path d="M704.72037306 738.93522257l196.63064326-21.50647579-103.62211458-125.12859036z" fill="#25B997" p-id="27431"></path></svg>