<?xml version="1.0" encoding="utf-8"?>
<svg version="1.1" xmlns:xlink="http://www.w3.org/1999/xlink" width="12px" height="21px" xmlns="http://www.w3.org/2000/svg">
  <g transform="matrix(1 0 0 1 -394 -136 )">
    <path d="M 11.7938144329896 9.8680118858407  C 11.9312714776631 10.0062193352222  12 10.1651579020109  12 10.344827586207  C 12 10.5244972704029  11.9312714776631 10.6834358371916  11.7938144329896 10.8216432865731  L 2.18556701030934 20.4823439983415  C 2.04810996563583 20.6205514477231  1.89003436426106 20.6896551724138  1.71134020618547 20.6896551724138  C 1.53264604810988 20.6896551724138  1.37457044673533 20.6205514477231  1.23711340206182 20.4823439983415  L 0.20618556701038 19.4457881279801  C 0.068728522336869 19.3075806785986  0 19.1486421118099  0 18.9689724276138  C 0 18.7893027434179  0.068728522336869 18.6303641766292  0.20618556701038 18.4921567272477  L 8.30927835051557 10.344827586207  L 0.20618556701038 2.19749844516616  C 0.068728522336869 2.05929099578464  0 1.90035242899592  0 1.7206827448  C 0 1.54101306060397  0.068728522336869 1.38207449381525  0.20618556701038 1.24386704443373  L 1.23711340206182 0.207311174072288  C 1.37457044673533 0.0691037246907626  1.53264604810988 0  1.71134020618547 0  C 1.89003436426106 0  2.04810996563583 0.0691037246907626  2.18556701030934 0.207311174072288  L 11.7938144329896 9.8680118858407  Z " fill-rule="nonzero" fill="#999999" stroke="none" transform="matrix(1 0 0 1 394 136 )" />
  </g>
</svg>