<svg t="1600062091623" class="icon" viewBox="0 0 1024 1024" version="1.1" xmlns="http://www.w3.org/2000/svg" p-id="21769" width="200" height="200"><path d="M333.59644445 42.32533333h524.288c10.92266667 0 21.84533333 3.64088889 29.1271111 10.92266667 7.28177778 7.28177778 10.92266667 18.20444445 10.92266667 29.12711111V948.90666667c0 10.92266667-3.64088889 21.84533333-10.92266667 29.12711111-10.92266667 3.64088889-18.20444445 7.28177778-29.1271111 7.28177777h-691.7688889c-10.92266667 0-21.84533333-3.64088889-29.1271111-10.92266666-7.28177778-7.28177778-10.92266667-18.20444445-10.92266667-29.12711111V257.13777778c0-7.28177778 3.64088889-14.56355555 7.28177777-18.20444445l182.04444445-189.32622222c7.28177778-7.28177778 10.92266667-7.28177778 18.20444445-7.28177778z m65.536 36.40888889c-14.56355555 0-25.48622222 10.92266667-25.48622223 25.48622223v141.99466666c0 10.92266667-10.92266667 21.84533333-21.84533333 21.84533334H195.24266667c-14.56355555 0-25.48622222 7.28177778-25.48622222 21.84533333v633.51466667c0 14.56355555 10.92266667 25.48622222 25.48622222 25.48622222h640.79644444c14.56355555 0 25.48622222-10.92266667 25.48622222-25.48622222V104.22044445c0-14.56355555-10.92266667-25.48622222-25.48622222-25.48622223h-436.90666666zM198.88355555 231.65155555h138.35377778V89.65688889L198.88355555 231.65155555z" fill="#3350A2" p-id="21770"></path><path d="M621.22666667 399.13244445h-50.97244445l-32.768-54.61333334c-7.28177778-10.92266667-10.92266667-18.20444445-18.20444444-21.84533333s-7.28177778-3.64088889-14.56355556-3.64088889h-14.56355555v80.09955556h-43.69066667V195.24266667h72.81777778c50.97244445 0 72.81777778 18.20444445 72.81777777 54.61333333 0 14.56355555-3.64088889 25.48622222-10.92266666 36.40888889-7.28177778 10.92266667-18.20444445 18.20444445-32.768 21.84533333 10.92266667 3.64088889 18.20444445 14.56355555 32.768 32.768 3.64088889-3.64088889 40.04977778 58.25422222 40.04977778 58.25422223z m-123.79022222-171.12177778v58.25422222h21.84533333c10.92266667 0 18.20444445-3.64088889 25.48622222-7.28177778s10.92266667-14.56355555 10.92266667-21.84533333c0-18.20444445-10.92266667-29.12711111-32.768-29.12711111h-25.48622222z" fill="#3350A2" p-id="21771"></path><path d="M795.98933333 526.56355555h-50.97244444l-36.40888889-69.17688888c0-3.64088889-3.64088889-7.28177778-3.64088889-14.56355556 0 3.64088889-3.64088889 7.28177778-3.64088889 14.56355556l-36.40888889 69.17688888h-50.97244444l65.536-101.94488888-61.89511111-101.94488889h54.61333333l29.12711111 61.89511111c3.64088889 3.64088889 3.64088889 10.92266667 7.28177778 18.20444444 0-7.28177778 3.64088889-10.92266667 7.28177778-18.20444444l32.768-61.89511111h50.97244444L730.45333333 420.97777778l65.536 105.58577777zM439.18222222 555.69066667H271.70133333c-7.28177778 0-14.56355555-7.28177778-14.56355555-14.56355556s7.28177778-14.56355555 14.56355555-14.56355556H439.18222222c7.28177778 0 14.56355555 7.28177778 14.56355556 14.56355556s-7.28177778 14.56355555-14.56355556 14.56355556zM755.93955555 650.35377778H271.70133333c-7.28177778 0-14.56355555-7.28177778-14.56355555-14.56355556s7.28177778-14.56355555 14.56355555-14.56355555h484.23822222c7.28177778 0 14.56355555 7.28177778 14.56355556 14.56355555s-7.28177778 14.56355555-14.56355556 14.56355556zM755.93955555 745.01688889H271.70133333c-7.28177778 0-14.56355555-7.28177778-14.56355555-14.56355556s7.28177778-14.56355555 14.56355555-14.56355555h484.23822222c7.28177778 0 14.56355555 7.28177778 14.56355556 14.56355555s-7.28177778 14.56355555-14.56355556 14.56355556zM755.93955555 839.68H271.70133333c-7.28177778 0-14.56355555-7.28177778-14.56355555-14.56355555s7.28177778-14.56355555 14.56355555-14.56355556h484.23822222c7.28177778 0 14.56355555 7.28177778 14.56355556 14.56355556s-7.28177778 14.56355555-14.56355556 14.56355555z" fill="#3350A2" p-id="21772"></path></svg>