<svg t="1600061956391" class="icon" viewBox="0 0 1024 1024" version="1.1" xmlns="http://www.w3.org/2000/svg" p-id="20872" width="200" height="200"><path d="M444.8 1013.632H206.912c-113.728 0-206.784-93.056-206.784-211.968v-589.44C0.128 98.496 93.184 0.256 206.912 0.256h548.096c113.728 0 206.848 93.056 206.848 211.968v180.992a40.768 40.768 0 0 1-41.408 41.344c-25.856 0-41.344-15.488-41.344-41.344V212.224c0-72.384-56.896-134.4-129.28-134.4H206.912c-72.32 0-129.28 62.016-129.28 134.4v589.44c0 72.384 56.96 134.4 129.28 134.4H444.8c20.672 0 41.344 15.552 41.344 41.408s-20.672 36.16-41.344 36.16z m532.544-470.464c-15.488-15.552-36.16-15.552-51.712 0l-41.344 46.528 87.872 93.056 41.408-46.528a39.488 39.488 0 0 0 10.304-25.856 39.488 39.488 0 0 0-10.304-25.856l-36.224-41.344z m-25.856 155.072l-87.872-93.056-237.888 253.376 87.936 93.056 237.824-253.376zM558.528 1024l139.584-56.896-87.872-93.056L558.528 1024z" fill="#3350A2" p-id="20873"></path><path d="M639.296 262.784c0-14.848-9.92-29.696-19.84-34.688-14.848-4.928-29.696-4.928-39.68 9.92L460.992 361.856 342.016 238.08c-14.848-14.848-34.624-14.848-49.536 0a38.848 38.848 0 0 0 0 54.464l118.912 123.84h-94.08a37.824 37.824 0 0 0-24.832 9.92c-4.928 9.92-9.856 19.84-9.856 29.76 0 19.84 14.848 39.616 34.624 39.616H426.24v74.304H317.248c-14.848 0-24.768 4.928-29.696 19.84-4.928 9.856-4.928 24.768 0 39.616 4.928 9.92 19.84 19.84 29.696 19.84H426.24v64.384c0 19.84 14.912 39.616 34.688 39.616 19.84 0 34.688-14.848 34.688-39.68v-64.384h108.992c14.848 0 24.768-4.928 29.696-19.84 4.992-9.856 4.992-24.704 0-39.552-4.928-9.92-19.84-19.84-29.696-19.84H495.616V490.688h108.992c19.84 0 34.688-14.912 34.688-39.68 0-19.84-14.912-39.616-34.688-39.616h-94.08l118.848-123.84c9.92-4.928 9.92-9.92 9.92-24.768z" fill="#3350A2" p-id="20874"></path></svg>