<svg t="1600061430929" class="icon" viewBox="0 0 1024 1024" version="1.1" xmlns="http://www.w3.org/2000/svg" p-id="20523" width="200" height="200"><path d="M235.52 386.048c-24.576 0-45.056 20.48-45.056 45.056 0 24.576 20.48 44.032 45.056 44.032 24.576 0 45.056-20.48 45.056-45.056 0-24.576-20.48-44.032-45.056-44.032z" fill="#3350A2" p-id="20524"></path><path d="M780.288 307.2c-19.456-38.912-48.128-73.728-83.968-103.424-73.728-60.416-169.984-94.208-273.408-94.208-103.424 0-200.704 33.792-273.408 94.208C112.64 233.472 84.992 268.288 64.512 307.2c-20.48 40.96-31.744 83.968-31.744 128 0 78.848 33.792 155.648 96.256 214.016 1.024 2.048 7.168 16.384 6.144 72.704-1.024 32.768-4.096 62.464-4.096 63.488l-5.12 49.152 40.96-26.624s26.624-17.408 55.296-33.792c48.128-27.648 65.536-30.72 68.608-30.72 41.984 12.288 86.016 18.432 130.048 18.432 103.424 0 200.704-33.792 273.408-94.208 35.84-29.696 64.512-64.512 83.968-103.424 20.48-40.96 31.744-83.968 31.744-128S800.768 348.16 780.288 307.2z m-358.4 402.432c-39.936 0-78.848-6.144-115.712-17.408-3.072-1.024-7.168-2.048-11.264-2.048-12.288 0-33.792 4.096-91.136 36.864-6.144 3.072-12.288 7.168-18.432 10.24 0-7.168 1.024-15.36 1.024-24.576 1.024-70.656-9.216-90.112-19.456-100.352-52.224-49.152-79.872-112.64-80.896-177.152 0-150.528 150.528-273.408 334.848-273.408 184.32 0 334.848 122.88 334.848 273.408 1.024 151.552-148.48 274.432-333.824 274.432z" fill="#3350A2" p-id="20525"></path><path d="M990.208 494.592c0-49.152-12.288-96.256-35.84-141.312-22.528-43.008-55.296-79.872-96.256-111.616-11.264-8.192-26.624-6.144-34.816 4.096-8.192 10.24-6.144 25.6 4.096 33.792 35.84 27.648 63.488 59.392 82.944 96.256 20.48 36.864 30.72 76.8 30.72 117.76 0 69.632-30.72 138.24-86.016 191.488-11.264 10.24-22.528 31.744-20.48 107.52 0 9.216 1.024 17.408 1.024 25.6-8.192-4.096-16.384-9.216-24.576-14.336-20.48-11.264-37.888-20.48-53.248-26.624-23.552-9.216-38.912-12.288-51.2-8.192-39.936 12.288-81.92 18.432-124.928 18.432-20.48 0-41.984-1.024-62.464-4.096-13.312-2.048-25.6 7.168-27.648 20.48-2.048 13.312 7.168 25.6 20.48 27.648 22.528 3.072 46.08 5.12 69.632 5.12 47.104 0 93.184-6.144 137.216-19.456 4.096 0 21.504 4.096 72.704 32.768 30.72 17.408 58.368 34.816 58.368 34.816l44.032 28.672-5.12-51.2s-3.072-31.744-4.096-65.536c-2.048-58.368 5.12-73.728 6.144-76.8 63.488-62.464 99.328-142.336 99.328-225.28zM422.912 386.048c-24.576 0-45.056 20.48-45.056 45.056 0 24.576 20.48 44.032 45.056 44.032 24.576 0 45.056-20.48 45.056-45.056 0-24.576-20.48-44.032-45.056-44.032zM601.088 386.048c-24.576 0-45.056 20.48-45.056 45.056 0 24.576 20.48 44.032 45.056 44.032 24.576 0 45.056-20.48 45.056-45.056 0-24.576-20.48-44.032-45.056-44.032z" fill="#3350A2" p-id="20526"></path></svg>