<svg t="1600062261040" class="icon" viewBox="0 0 1040 1024" version="1.1" xmlns="http://www.w3.org/2000/svg" p-id="24672" width="200" height="200"><path d="M739.922581 290.683871c0-19.819355-16.516129-36.335484-36.335484-36.335484H260.954839c-19.819355 0-36.335484 16.516129-36.335484 36.335484s16.516129 36.335484 36.335484 36.335484h442.632258c19.819355 0 36.335484-16.516129 36.335484-36.335484zM703.587097 475.664516c-142.03871 0-257.651613 115.612903-257.651613 257.651613S561.548387 990.967742 703.587097 990.967742s257.651613-115.612903 257.651613-257.651613-115.612903-257.651613-257.651613-257.651613z m0 442.632258c-102.4 0-184.980645-82.580645-184.980645-184.980645 0-102.4 82.580645-184.980645 184.980645-184.980645s184.980645 82.580645 184.980645 184.980645c0 102.4-82.580645 184.980645-184.980645 184.980645z" fill="#3350A2" p-id="24673"></path><path d="M442.632258 918.296774H158.554839V105.703226h654.038709v310.503226c0 19.819355 16.516129 36.335484 36.335484 36.335483s36.335484-16.516129 36.335484-36.335483V75.974194c0-23.122581-23.122581-42.941935-49.548387-42.941936H128.825806c-29.729032 0-49.548387 19.819355-49.548387 42.941936v872.051612c0 23.122581 19.819355 42.941935 49.548387 42.941936h313.806452c23.122581 0 39.63871-16.516129 39.63871-36.335484 0-19.819355-16.516129-36.335484-39.63871-36.335484z" fill="#3350A2" p-id="24674"></path><path d="M518.606452 512c0-19.819355-16.516129-36.335484-36.335484-36.335484H260.954839c-19.819355 0-36.335484 16.516129-36.335484 36.335484 0 19.819355 16.516129 36.335484 36.335484 36.335484h221.316129c19.819355 0 36.335484-16.516129 36.335484-36.335484zM260.954839 696.980645c-19.819355 0-36.335484 16.516129-36.335484 36.335484 0 19.819355 16.516129 36.335484 36.335484 36.335484h109.006451c19.819355 0 36.335484-16.516129 36.335484-36.335484 0-19.819355-16.516129-36.335484-36.335484-36.335484H260.954839zM776.258065 696.980645h-36.335484v-39.63871c0-19.819355-19.819355-36.335484-39.63871-33.032258-19.819355 0-33.032258 16.516129-33.032258 36.335484v75.974194c0 19.819355 16.516129 36.335484 36.335484 36.335484h72.670968c19.819355 0 36.335484-19.819355 36.335483-39.63871s-16.516129-36.335484-36.335483-36.335484z" fill="#3350A2" p-id="24675"></path></svg>