<svg t="1600062510004" class="icon" viewBox="0 0 1024 1024" version="1.1" xmlns="http://www.w3.org/2000/svg" p-id="27093" width="200" height="200"><path d="M165.818182 0C125.626182 0 93.090909 32.279273 93.090909 71.982545v880.03491C93.090909 991.581091 125.626182 1024 165.818182 1024h692.363636C898.373818 1024 930.909091 991.720727 930.909091 952.017455V253.207273L712.564364 0H165.818182z m696.040727 256.162909h-163.746909V69.864727l163.746909 186.298182z m-12.194909 697.483636H175.778909c-6.888727 0-12.148364-4.817455-12.148364-8.983272V78.242909c0-4.282182 5.12-8.96 12.148364-8.96h458.053818v188.858182c0 34.722909 27.182545 62.952727 60.625455 62.952727h167.330909v623.825455c0 4.049455-5.236364 8.727273-12.125091 8.727272z" fill="#3350A2" p-id="27094"></path><path d="M567.994182 317.090909c0 16.709818-16.872727 30.254545-37.771637 30.254546h-204.334545c-20.875636 0-37.748364-13.544727-37.748364-30.254546 0-16.756364 16.872727-30.254545 37.748364-30.254545h204.334545c20.759273 0.116364 37.771636 13.498182 37.771637 30.254545z m177.850182 192.232727c0 16.709818-16.849455 30.254545-37.748364 30.254546H328.866909c-20.875636 0-37.748364-13.544727-37.748364-30.254546 0-16.756364 16.872727-30.277818 37.748364-30.277818h379.229091c20.759273 0 37.748364 13.544727 37.748364 30.254546z m0 192.232728c0 16.709818-16.849455 30.254545-37.748364 30.254545H328.866909c-20.875636 0-37.748364-13.544727-37.748364-30.254545 0-16.756364 16.872727-30.277818 37.748364-30.277819h379.229091c20.759273 0 37.748364 13.661091 37.748364 30.254546z" fill="#3350A2" p-id="27095"></path></svg>