<svg t="1600062406610" class="icon" viewBox="0 0 1092 1024" version="1.1" xmlns="http://www.w3.org/2000/svg" p-id="26228" width="200" height="200"><path d="M989.5936 963.7888H102.673067a39.389867 39.389867 0 0 1-38.434134-38.434133c0-20.48 17.954133-38.434133 38.434134-38.434134h886.920533c20.48 0 38.434133 17.885867 38.434133 38.434134 0 20.48-15.36 38.434133-38.434133 38.434133z m-82.056533-169.096533H412.8768a39.389867 39.389867 0 0 1-38.5024-38.434134c0-20.48 17.954133-38.434133 38.5024-38.434133h492.1344c20.48 0 38.434133 17.885867 38.434133 38.434133 0 20.48-15.428267 38.434133-35.908266 38.434134zM156.535467 569.207467l115.370666 117.828266-51.268266 51.2-115.370667-115.234133 51.2-53.794133z m438.272-440.7296l115.370666 117.896533-53.794133 51.2-115.370667-115.234133 53.794134-53.8624z" fill="#3350A2" p-id="26229"></path><path d="M154.077867 835.242667c-22.459733 0-44.919467-9.898667-62.395734-27.170134s-27.4432-44.4416-27.4432-69.154133l9.966934-121.105067L593.237333 101.307733c24.917333-24.712533 57.344-37.0688 92.296534-37.0688 39.936 0 77.346133 17.339733 104.789333 44.509867 29.969067 29.627733 44.919467 69.154133 44.919467 108.7488 0 34.542933-14.9504 66.696533-39.936 88.951467L281.326933 825.344l-122.197333 9.898667h-5.051733zM149.0944 649.898667l-7.509333 93.934933c0 4.9152 2.525867 9.898667 4.983466 9.898667 2.525867 2.4576 7.509333 4.9152 10.0352 4.9152l94.754134-7.3728 491.52-499.234134c10.0352-9.8304 15.018667-22.186667 17.544533-37.0688 0-19.797333-7.509333-39.5264-22.528-54.340266a72.157867 72.157867 0 0 0-52.360533-22.254934 52.292267 52.292267 0 0 0-37.410134 14.813867L149.0944 649.898667z" fill="#3350A2" p-id="26230"></path></svg>