<svg t="1600062922534" class="icon" viewBox="0 0 1024 1024" version="1.1" xmlns="http://www.w3.org/2000/svg" p-id="28037" width="200" height="200"><path d="M510.634667 993.735111c186.140444-74.524444 310.158222-179.996444 372.280889-310.272 80.668444-155.079111 99.214222-335.075556 62.008888-546.019555L510.634667 0.910222 76.231111 143.815111c-37.205333 204.8-18.545778 384.568889 55.864889 539.761778 68.266667 130.275556 192.284444 235.747556 378.538667 310.272zM187.960889 658.659556c-68.266667-136.533333-86.812444-291.612444-55.751111-471.495112L510.520889 63.032889l378.424889 124.017778c24.803556 179.996444 6.257778 335.075556-62.008889 465.351111-55.751111 111.729778-161.336889 198.656-316.416 266.808889-161.336889-62.008889-266.808889-155.079111-322.673778-260.551111z" fill="#d4237a" p-id="28038"></path><path d="M510.634667 627.598222L299.690667 416.654222l49.607111-43.349333 161.336889 161.223111L733.866667 311.182222l49.607111 43.463111z" fill="#d4237a" p-id="28039"></path></svg>