<svg t="1600063019866" class="icon" viewBox="0 0 1024 1024" version="1.1" xmlns="http://www.w3.org/2000/svg" p-id="29866" width="200" height="200"><path d="M864.256 622.592c17.92 0 31.744-14.336 31.744-31.744V256h-64v334.848c0 17.408 14.336 31.744 32.256 31.744zM667.648 415.744H317.952c-15.872 0-29.184 13.824-29.184 31.232s12.8 31.232 29.184 31.232h349.696c15.872 0 29.184-14.336 29.184-31.232-0.512-16.896-13.312-31.232-29.184-31.232zM514.048 543.744H320c-17.408 0-31.232 13.824-31.232 31.232 0 17.408 13.824 31.232 31.232 31.232h194.048c17.408 0 31.232-14.336 31.232-31.232s-13.824-31.232-31.232-31.232zM832 256H896v-31.744c0-17.92-14.336-31.744-31.744-31.744h-64V95.744c0-17.408-14.336-31.744-31.744-31.744H191.488C156.672 64 128 92.672 128 128v128h704zM223.744 128h512v64h-512c-17.408 0-31.744-14.336-31.744-31.744 0-17.92 14.336-32.256 31.744-32.256z" fill="#d4237a" p-id="29867"></path><path d="M832 864.256c0 17.408-14.336 31.744-31.744 31.744H223.744c-17.408 0-31.744-14.336-31.744-31.744V256H128v640.512c0 35.328 28.672 64 64 63.488h639.488c35.328 0 64-28.672 64-63.488v-155.136c0-17.92-14.336-31.744-31.744-31.744-17.92 0-31.744 14.336-31.744 31.744v122.88z" fill="#d4237a" p-id="29868"></path></svg>