<svg t="1600150430826" class="icon" viewBox="0 0 1024 1024" version="1.1" xmlns="http://www.w3.org/2000/svg" p-id="2120" width="200" height="200"><path d="M140.2 883.8h270.4-270.4zM207.8 681H343v135.2H207.8V681zM545.8 545.8h67.6v270.4h-67.6V545.8z" fill="#bfbfbf" p-id="2121"></path><path d="M72.6 951.4h405.6V545.8H72.6v405.6z m67.6-67.6V613.4h270.4v270.4H140.2zM545.8 883.8H681v67.6H545.8v-67.6zM883.8 681h67.6v67.6h-67.6V681zM748.6 545.8h202.8v67.6H748.6v-67.6zM681 207.8h135.2V343H681V207.8z" fill="#bfbfbf" p-id="2122"></path><path d="M951.4 72.6H545.8v405.6h405.6V72.6z m-67.6 338H613.4V140.2h270.4v270.4zM72.6 478.2h405.6V72.6H72.6v405.6z m67.6-338h270.4v270.4H140.2V140.2zM883.8 883.8H748.6v67.6h202.8V816.2h-67.6v67.6zM681 681v135.2h135.2v-67.6h-67.6V681H681z" fill="#bfbfbf" p-id="2123"></path><path d="M207.8 207.8H343V343H207.8V207.8z" fill="#bfbfbf" p-id="2124"></path></svg>