<svg t="1600333250231" class="icon" viewBox="0 0 1024 1024" version="1.1" xmlns="http://www.w3.org/2000/svg" p-id="9222" width="200" height="200"><path d="M550.4 1011.2C384 972.8 256 819.2 256 640c0-211.2 172.8-384 384-384 166.4 0 307.2 108.8 364.8 256v64l-96 217.6-192 166.4-166.4 51.2z" fill="#32CE6D" p-id="9223" data-spm-anchor-id="a313x.7781069.0.i14" class=""></path><path d="M512 512c70.4 0 128-57.6 128-128s-57.6-128-128-128-128 57.6-128 128 57.6 128 128 128z m0 512c-281.6 0-512-230.4-512-512s230.4-512 512-512 512 230.4 512 512-230.4 512-512 512z m-313.6-192c83.2 76.8 192 128 313.6 128s230.4-51.2 313.6-128c-32-147.2-160-256-313.6-256s-281.6 108.8-313.6 256z m435.2-300.8c115.2 38.4 204.8 128 243.2 243.2 51.2-76.8 83.2-166.4 83.2-262.4 0-249.6-198.4-448-448-448S64 262.4 64 512c0 96 32 185.6 83.2 262.4 38.4-115.2 128-204.8 243.2-243.2C345.6 499.2 320 441.6 320 384c0-108.8 83.2-192 192-192s192 83.2 192 192c0 57.6-25.6 115.2-70.4 147.2z" fill="#25B997" p-id="9224" data-spm-anchor-id="a313x.7781069.0.i15" class="selected"></path></svg>