<svg t="1610088395072" class="icon" viewBox="0 0 1024 1024" version="1.1" xmlns="http://www.w3.org/2000/svg" p-id="1929" width="200" height="200"><path d="M716.8 93.090909a46.545455 46.545455 0 0 1 39.330909 21.643636l202.938182 320.372364a46.545455 46.545455 0 0 1-4.002909 55.202909L567.156364 943.010909a93.090909 93.090909 0 0 1-140.288 1.303273L22.714182 489.751273a46.545455 46.545455 0 0 1-5.12-54.877091L208.849455 115.712A46.545455 46.545455 0 0 1 248.785455 93.090909h468.014545z m-7.633455 60.509091H256.651636l-181.992727 303.569455 398.987636 448.512 1.582546 1.489454a32.581818 32.581818 0 0 0 42.216727 0.232727l3.723637-3.723636 381.207272-444.928L709.12 153.6z" fill="#13227a" p-id="1930"></path><path d="M279.272727 372.363636m46.545455 0l325.818182 0q46.545455 0 46.545454 46.545455l0 0q0 46.545455-46.545454 46.545454l-325.818182 0q-46.545455 0-46.545455-46.545454l0 0q0-46.545455 46.545455-46.545455Z" fill="#13227a" p-id="1931"></path></svg>