<?xml version="1.0" encoding="utf-8"?>
<svg version="1.1" xmlns:xlink="http://www.w3.org/1999/xlink" width="12px" height="12px" viewBox="313 413  12 12" xmlns="http://www.w3.org/2000/svg">
  <path d="M 319 413  C 322.36 413  325 415.64  325 419  C 325 422.36  322.36 425  319 425  C 315.64 425  313 422.36  313 419  C 313 415.64  315.64 413  319 413  Z " fill-rule="nonzero" fill="#ffffff" stroke="none" />
  <path d="M 319 413.5  C 322.08 413.5  324.5 415.92  324.5 419  C 324.5 422.08  322.08 424.5  319 424.5  C 315.92 424.5  313.5 422.08  313.5 419  C 313.5 415.92  315.92 413.5  319 413.5  Z " stroke-width="1" stroke="#797979" fill="none" />
  <path d="M 319 422  C 317.32 422  316 420.68  316 419  C 316 417.32  317.32 416  319 416  C 320.68 416  322 417.32  322 419  C 322 420.68  320.68 422  319 422  " fill-rule="nonzero" fill="#797979" stroke="none" />
</svg>