<?xml version="1.0" encoding="utf-8"?>
<svg version="1.1" xmlns:xlink="http://www.w3.org/1999/xlink" width="12px" height="12px" viewBox="398 413  12 12" xmlns="http://www.w3.org/2000/svg">
  <path d="M 404 413  C 407.36 413  410 415.64  410 419  C 410 422.36  407.36 425  404 425  C 400.64 425  398 422.36  398 419  C 398 415.64  400.64 413  404 413  Z " fill-rule="nonzero" fill="#ffffff" stroke="none" />
  <path d="M 404 413.5  C 407.08 413.5  409.5 415.92  409.5 419  C 409.5 422.08  407.08 424.5  404 424.5  C 400.92 424.5  398.5 422.08  398.5 419  C 398.5 415.92  400.92 413.5  404 413.5  Z " stroke-width="1" stroke="#797979" fill="none" />
  <path d="M 404 422  C 402.32 422  401 420.68  401 419  C 401 417.32  402.32 416  404 416  C 405.68 416  407 417.32  407 419  C 407 420.68  405.68 422  404 422  " fill-rule="nonzero" fill="#797979" stroke="none" />
</svg>