<?xml version="1.0" encoding="utf-8"?>
<svg version="1.1" xmlns:xlink="http://www.w3.org/1999/xlink" width="80px" height="80px" xmlns="http://www.w3.org/2000/svg">
  <g transform="matrix(1 0 0 1 -224 -230 )">
    <path d="M 264 231  C 285.84 231  303 248.16  303 270  C 303 291.84  285.84 309  264 309  C 242.16 309  225 291.84  225 270  C 225 248.16  242.16 231  264 231  Z " fill-rule="nonzero" fill="#ffffff" stroke="none" />
    <path d="M 264 231  C 285.84 231  303 248.16  303 270  C 303 291.84  285.84 309  264 309  C 242.16 309  225 291.84  225 270  C 225 248.16  242.16 231  264 231  Z " stroke-width="2" stroke="#00c036" fill="none" />
  </g>
</svg>