<svg t="1609924283982" class="icon" viewBox="0 0 1024 1024" version="1.1" xmlns="http://www.w3.org/2000/svg" p-id="2097" width="200" height="200"><path d="M256.341333 528.725333h46.762667v105.813334H256.341333zM257.706667 483.328h226.304V256H256.341333v226.304h1.365334v1.024z m179.541333-180.565333v133.802666H302.762667V302.762667h134.485333z" fill="#25D1AE" p-id="2098"></path><path d="M334.848 341.333333h63.488v63.488H334.848zM353.28 624.64H302.762667v48.469333H256.341333V768h46.421334v-92.842667h50.517333zM708.949333 528.725333h58.709334v58.709334h-58.709334zM767.658667 303.445333V256H720.213333v46.762667h-48.128V256h-131.072v94.549333h45.397334v-47.786666h85.333333v83.626666h-83.626667v49.152h-46.762666v46.762667h46.762666v-35.84H634.88v35.84h85.333333v-48.469333h47.104v-83.285334h-45.738666V303.445333h46.08zM720.213333 390.826667v43.008h-48.128v-43.008H720.213333zM719.530667 720.554667h-48.128V768h96.256v-95.573333h-48.128z" fill="#25D1AE" p-id="2099"></path><path d="M350.549333 586.752h34.816v50.176h48.810667v36.181333h-46.421333v34.816H339.626667V768h105.813333v-47.445333h48.810667V624.64h-48.810667v-37.888h48.810667v-58.026667h-143.701334zM683.349333 672.426667V528.725333h-107.178666V576.853333h-46.08v106.496h58.709333V624.64h35.498667v47.786667zM530.090667 707.925333h58.709333V768h-58.709333z" fill="#25D1AE" p-id="2100"></path></svg>