<?xml version="1.0" encoding="utf-8"?>
<svg version="1.1" xmlns:xlink="http://www.w3.org/1999/xlink" width="340px" height="78px" xmlns="http://www.w3.org/2000/svg">
  <g transform="matrix(1 0 0 1 -52 -627 )">
    <path d="M 53 632  A 4 4 0 0 1 57 628 L 387 628  A 4 4 0 0 1 391 632 L 391 700  A 4 4 0 0 1 387 704 L 57 704  A 4 4 0 0 1 53 700 L 53 632  Z " fill-rule="nonzero" fill="#ffffff" stroke="none" />
    <path d="M 52.5 632  A 4.5 4.5 0 0 1 57 627.5 L 387 627.5  A 4.5 4.5 0 0 1 391.5 632 L 391.5 700  A 4.5 4.5 0 0 1 387 704.5 L 57 704.5  A 4.5 4.5 0 0 1 52.5 700 L 52.5 632  Z " stroke-width="1" stroke-dasharray="3,1" stroke="#f59a23" fill="none" stroke-dashoffset="0.5" />
  </g>
</svg>