<svg t="1609999247843" class="icon" viewBox="0 0 1228 1024" version="1.1" xmlns="http://www.w3.org/2000/svg" p-id="2288" width="200" height="200"><path d="M831.5904 309.76c14.1312 0 28.0064 1.1776 41.984 2.7136-37.5808-179.2-224.768-312.3712-438.5792-312.3712C196.096 0.1024 0.4096 166.7072 0.4096 378.368c0 122.1632 65.024 222.4128 173.8752 300.3392l-43.4176 133.7856 151.9616-77.9264c54.3232 10.9056 97.8944 22.2208 152.1664 22.2208 13.6704 0 27.1872-0.6144 40.5504-1.6384a341.504 341.504 0 0 1-13.4656-93.3376c0.1024-194.304 163.1232-352 369.5104-352zM598.016 189.2864c32.8192 0 54.4256 22.1184 54.4256 55.5008 0 33.3312-21.6064 55.6544-54.4256 55.6544-32.4608 0-65.1776-22.3232-65.1776-55.6544 0-33.4848 32.6144-55.5008 65.1776-55.5008z m-304.128 111.104c-32.6656 0-65.536-22.272-65.536-55.6032 0-33.3824 32.8704-55.5008 65.536-55.5008 32.5632 0 54.272 22.016 54.272 55.5008 0 33.3312-21.7088 55.6544-54.272 55.6544z" fill="#ffffff" p-id="2289"></path><path d="M1228.3904 656.4864c0-177.8176-173.9264-322.7136-369.2544-322.7136-206.848 0-369.664 144.9984-369.664 322.7136 0 178.2784 162.9184 322.7648 369.664 322.7648 43.3152 0 86.9888-11.1104 130.4576-22.272l119.1424 66.9184-32.6656-111.2064c87.2448-67.072 152.32-155.904 152.32-256.2048z m-489.1136-55.7056c-21.6064 0-43.52-21.9648-43.52-44.4416 0-22.1696 21.9136-44.4416 43.52-44.4416 32.9728 0 54.3744 22.272 54.3744 44.4416 0 22.4768-21.4016 44.4416-54.3744 44.4416z m239.104 0c-21.4528 0-43.264-21.9648-43.264-44.4416 0-22.1696 21.7088-44.4416 43.2128-44.4416 32.768 0 54.4256 22.272 54.4256 44.4416 0 22.4768-21.7088 44.4416-54.4256 44.4416z" fill="#ffffff" p-id="2290"></path></svg>