<svg t="1609999308956" class="icon" viewBox="0 0 1024 1024" version="1.1" xmlns="http://www.w3.org/2000/svg" p-id="3182" width="200" height="200"><path d="M934.4 42.666667H810.666667v371.2c0 36.266667-34.133333 53.333333-68.266667 53.333333h-469.333333c-36.266667 0-59.733333-19.2-59.733334-53.333333V42.666667H81.066667C44.8 42.666667 21.333333 81.066667 21.333333 117.333333v810.666667C21.333333 962.133333 44.8 981.333333 81.066667 981.333333h853.333333c36.266667 0 68.266667-19.2 68.266667-53.333333v-810.666667C1002.666667 81.066667 968.533333 42.666667 934.4 42.666667z" fill="#ffffff" p-id="3183"></path><path d="M273.066667 426.666667h469.333333c12.8 0 25.6 0 25.6-10.666667V42.666667H256v373.333333c0 10.666667 4.266667 10.666667 17.066667 10.666667zM640 202.666667c0-12.8 8.533333-21.333333 21.333333-21.333334s21.333333 8.533333 21.333334 21.333334v85.333333c0 12.8-8.533333 21.333333-21.333334 21.333333s-21.333333-8.533333-21.333333-21.333333v-85.333333z" fill="#ffffff" p-id="3184"></path></svg>