<?xml version="1.0" encoding="utf-8"?>
<svg version="1.1" xmlns:xlink="http://www.w3.org/1999/xlink" width="12px" height="12px" viewBox="398 430  12 12" xmlns="http://www.w3.org/2000/svg">
  <path d="M 404 430  C 407.36 430  410 432.64  410 436  C 410 439.36  407.36 442  404 442  C 400.64 442  398 439.36  398 436  C 398 432.64  400.64 430  404 430  Z " fill-rule="nonzero" fill="#ffffff" stroke="none" />
  <path d="M 404 430.5  C 407.08 430.5  409.5 432.92  409.5 436  C 409.5 439.08  407.08 441.5  404 441.5  C 400.92 441.5  398.5 439.08  398.5 436  C 398.5 432.92  400.92 430.5  404 430.5  Z " stroke-width="1" stroke="#797979" fill="none" />
  <path d="M 404 439  C 402.32 439  401 437.68  401 436  C 401 434.32  402.32 433  404 433  C 405.68 433  407 434.32  407 436  C 407 437.68  405.68 439  404 439  " fill-rule="nonzero" fill="#797979" stroke="none" />
</svg>