<?xml version="1.0" encoding="utf-8"?>
<svg version="1.1" xmlns:xlink="http://www.w3.org/1999/xlink" width="12px" height="12px" viewBox="313 430  12 12" xmlns="http://www.w3.org/2000/svg">
  <path d="M 319 430  C 322.36 430  325 432.64  325 436  C 325 439.36  322.36 442  319 442  C 315.64 442  313 439.36  313 436  C 313 432.64  315.64 430  319 430  Z " fill-rule="nonzero" fill="#f0f0f0" stroke="none" />
  <path d="M 319 430.5  C 322.08 430.5  324.5 432.92  324.5 436  C 324.5 439.08  322.08 441.5  319 441.5  C 315.92 441.5  313.5 439.08  313.5 436  C 313.5 432.92  315.92 430.5  319 430.5  Z " stroke-width="1" stroke="#797979" fill="none" />
  <path d="M 319 439  C 317.32 439  316 437.68  316 436  C 316 434.32  317.32 433  319 433  C 320.68 433  322 434.32  322 436  C 322 437.68  320.68 439  319 439  " fill-rule="nonzero" fill="#797979" stroke="none" />
</svg>