<?xml version="1.0" encoding="utf-8"?>
<svg version="1.1" xmlns:xlink="http://www.w3.org/1999/xlink" width="758px" height="32px" xmlns="http://www.w3.org/2000/svg">
  <g transform="matrix(1 0 0 1 -350 -901 )">
    <path d="M 351 903  A 1 1 0 0 1 352 902 L 1106 902  A 1 1 0 0 1 1107 903 L 1107 931  A 1 1 0 0 1 1106 932 L 352 932  A 1 1 0 0 1 351 931 L 351 903  Z " fill-rule="nonzero" fill="#ffffff" stroke="none" />
    <path d="M 350.5 903  A 1.5 1.5 0 0 1 352 901.5 L 1106 901.5  A 1.5 1.5 0 0 1 1107.5 903 L 1107.5 931  A 1.5 1.5 0 0 1 1106 932.5 L 352 932.5  A 1.5 1.5 0 0 1 350.5 931 L 350.5 903  Z " stroke-width="1" stroke-dasharray="3,1" stroke="#cccccc" fill="none" stroke-dashoffset="0.5" />
  </g>
</svg>