<?xml version="1.0" encoding="utf-8"?>
<svg version="1.1" xmlns:xlink="http://www.w3.org/1999/xlink" width="70px" height="67px" xmlns="http://www.w3.org/2000/svg">
  <g transform="matrix(1 0 0 1 -350 -379 )">
    <path d="M 351 382  A 2 2 0 0 1 353 380 L 417 380  A 2 2 0 0 1 419 382 L 419 443  A 2 2 0 0 1 417 445 L 353 445  A 2 2 0 0 1 351 443 L 351 382  Z " fill-rule="nonzero" fill="#ffffff" stroke="none" />
    <path d="M 350.5 382  A 2.5 2.5 0 0 1 353 379.5 L 417 379.5  A 2.5 2.5 0 0 1 419.5 382 L 419.5 443  A 2.5 2.5 0 0 1 417 445.5 L 353 445.5  A 2.5 2.5 0 0 1 350.5 443 L 350.5 382  Z " stroke-width="1" stroke-dasharray="3,1" stroke="#797979" fill="none" stroke-dashoffset="0.5" />
  </g>
</svg>