<?xml version="1.0" encoding="utf-8"?>
<svg version="1.1" xmlns:xlink="http://www.w3.org/1999/xlink" width="78px" height="76px" xmlns="http://www.w3.org/2000/svg">
  <g transform="matrix(1 0 0 1 -89 -472 )">
    <path d="M 89 472  L 167 472  L 167 548  L 89 548  L 89 472  " fill-rule="nonzero" fill="#cccccc" stroke="none" />
    <path d="M 94 477  L 162 477  L 162 543  L 94 543  L 94 477  " fill-rule="nonzero" fill="#ffffff" stroke="none" />
    <path d="M 135.26 494.8  C 132.068 494.8  129.56 492.292  129.56 489.1  C 129.56 485.908  132.068 483.4  135.26 483.4  C 138.452 483.4  140.96 485.908  140.96 489.1  C 140.96 492.292  138.452 494.8  135.26 494.8  " fill-rule="nonzero" fill="#cccccc" stroke="none" />
    <path d="M 96 541  L 96 506.9  L 112 491.4  L 134.4 504.753846153846  L 147.2 500.7  L 160 504.753846153846  L 160 541  L 96 541  " fill-rule="nonzero" fill="#169bd5" stroke="none" />
  </g>
</svg>