<svg t="1603085528571" class="icon" viewBox="0 0 1024 1024" version="1.1" xmlns="http://www.w3.org/2000/svg" p-id="3419" width="200" height="200"><path d="M846.559859 1023.950586a92.354196 92.354196 0 0 1-40.469816-9.882739L510.49732 853.22627l-292.726729 160.149786a85.535106 85.535106 0 0 1-115.183323-33.798968A89.389374 89.389374 0 0 1 91.963324 939.304927V227.055928C91.963324 82.767939 187.92472 0.049414 355.190077 0.049414h313.431067C835.985329 0.049414 931.996138 79.506635 931.996138 218.013222v720.550499a85.535106 85.535106 0 0 1-85.436279 85.386865z m-336.013125-244.993099a73.231096 73.231096 0 0 1 35.083723 8.943879l295.148 160.594508c4.54606 2.223616 17.146552-1.037688 17.146552-9.882739V218.062636c0-95.417845-63.694253-143.843266-189.254451-143.843266H355.190077C166.083866 74.21937 166.083866 189.303865 166.083866 227.105342v711.557207a13.934662 13.934662 0 0 0 1.630652 5.633161 11.513391 11.513391 0 0 0 15.219418 3.804855l292.380833-160.001545a73.329923 73.329923 0 0 1 35.182551-9.141533z" fill="#5d7eed" p-id="3420"></path><path d="M691.054961 397.533176h-360.719973a37.060271 37.060271 0 0 1-37.060271-37.060271 37.060271 37.060271 0 0 1 37.060271-37.060272h360.719973a37.060271 37.060271 0 0 1 37.060272 37.060272 37.060271 37.060271 0 0 1-37.060272 37.060271z" fill="#5d7eed" p-id="3421"></path></svg>