<svg t="1610939519575" class="icon" viewBox="0 0 1024 1024" version="1.1" xmlns="http://www.w3.org/2000/svg" p-id="3888" width="200" height="200"><path d="M343.04 919.552c-7.168 0-14.848-2.56-20.48-8.192-11.264-11.264-11.264-29.696 0-40.96l161.28-161.28c5.632-5.632 12.8-8.192 20.48-8.192l336.896 0c7.68 0 14.336-6.656 14.336-14.336L855.552 212.48c0-7.68-6.656-14.336-14.336-14.336L193.024 198.144c-7.68 0-14.336 6.656-14.336 14.336L178.688 686.08c0 7.68 6.656 14.336 14.336 14.336l122.88 0c15.872 0 28.672 12.8 28.672 28.672 0 15.872-12.8 28.672-28.672 28.672l-122.88 0c-39.936 0-72.192-32.256-72.192-72.192L120.832 212.48c0-39.936 32.256-72.192 72.192-72.192l647.68 0c39.936 0 72.192 32.256 72.192 72.192L912.896 686.08c0 39.936-32.256 72.192-72.192 72.192l-325.12 0L363.52 910.848C357.888 916.48 350.208 919.552 343.04 919.552z" p-id="3889" fill="#13227a"></path><path d="M340.48 480.768 283.136 480.768c-15.872 0-28.672-12.8-28.672-28.672s12.8-28.672 28.672-28.672l57.344 0c15.872 0 28.672 12.8 28.672 28.672S356.352 480.768 340.48 480.768z" p-id="3890" fill="#13227a"></path><path d="M545.792 480.768 488.448 480.768c-15.872 0-28.672-12.8-28.672-28.672s12.8-28.672 28.672-28.672l57.344 0c15.872 0 28.672 12.8 28.672 28.672S561.664 480.768 545.792 480.768z" p-id="3891" fill="#13227a"></path><path d="M751.104 480.768l-57.344 0c-15.872 0-28.672-12.8-28.672-28.672s12.8-28.672 28.672-28.672l57.344 0c15.872 0 28.672 12.8 28.672 28.672S766.976 480.768 751.104 480.768z" p-id="3892" fill="#13227a"></path></svg>