<svg t="1608778614651" class="icon" viewBox="0 0 1024 1024" version="1.1" xmlns="http://www.w3.org/2000/svg" p-id="6842" width="200" height="200"><path d="M766.008889 661.788444H249.344a32.199111 32.199111 0 0 1-32.540444-31.971555c0-17.635556 14.506667-32.028444 32.540444-32.028445h516.664889c17.92 0 32.483556 14.336 32.483555 32.028445 0 17.635556-14.563556 31.971556-32.483555 31.971555m0 194.446223H249.344a32.199111 32.199111 0 0 1-32.540444-32.028445c0-17.635556 14.506667-31.971556 32.540444-31.971555h516.664889c17.92 0 32.483556 14.336 32.483555 31.971555 0 17.635556-14.563556 32.028444-32.483555 32.028445M250.083556 403.342222h292.295111c17.92 0 32.483556 14.279111 32.483555 31.971556 0 17.635556-14.563556 31.971556-32.483555 31.971555H250.083556a32.256 32.256 0 0 1-32.483556-31.971555c0-17.635556 14.563556-32.028444 32.483556-32.028445M648.988444 0h-488.106666C103.537778 0 56.888889 45.909333 56.888889 102.4v819.2c0 56.547556 46.648889 102.4 103.992889 102.4h693.475555c57.457778 0 104.106667-45.852444 104.106667-102.4V304.583111c0-168.106667-138.581333-304.469333-309.475556-304.469333" fill="#6E7DC3" p-id="6843"></path><path d="M655.701333 0v202.524444c0 64.284444 52.167111 116.508444 116.508445 116.508445h185.856v-16.725333A302.364444 302.364444 0 0 0 655.701333 0" fill="#FFCD29" p-id="6844"></path></svg>