<?xml version="1.0" encoding="utf-8"?>
<svg version="1.1" xmlns:xlink="http://www.w3.org/1999/xlink" width="12px" height="12px" viewBox="78 445  12 12" xmlns="http://www.w3.org/2000/svg">
  <path d="M 84 445  C 87.36 445  90 447.64  90 451  C 90 454.36  87.36 457  84 457  C 80.64 457  78 454.36  78 451  C 78 447.64  80.64 445  84 445  Z " fill-rule="nonzero" fill="#ffffff" stroke="none" />
  <path d="M 84 445.5  C 87.08 445.5  89.5 447.92  89.5 451  C 89.5 454.08  87.08 456.5  84 456.5  C 80.92 456.5  78.5 454.08  78.5 451  C 78.5 447.92  80.92 445.5  84 445.5  Z " stroke-width="1" stroke="#797979" fill="none" />
  <path d="M 84 454  C 82.32 454  81 452.68  81 451  C 81 449.32  82.32 448  84 448  C 85.68 448  87 449.32  87 451  C 87 452.68  85.68 454  84 454  " fill-rule="nonzero" fill="#797979" stroke="none" />
</svg>