<?xml version="1.0" encoding="utf-8"?>
<svg version="1.1" xmlns:xlink="http://www.w3.org/1999/xlink" width="156px" height="28px" xmlns="http://www.w3.org/2000/svg">
  <defs>
    <linearGradient gradientUnits="userSpaceOnUse" x1="174" y1="477" x2="174" y2="505" id="LinearGradient478">
      <stop id="Stop479" stop-color="#1e80ff" offset="0" />
      <stop id="Stop480" stop-color="#409eff" offset="1" />
    </linearGradient>
  </defs>
  <g transform="matrix(1 0 0 1 -96 -477 )">
    <path d="M 96.5 480  A 2.5 2.5 0 0 1 99 477.5 L 249 477.5  A 2.5 2.5 0 0 1 251.5 480 L 251.5 502  A 2.5 2.5 0 0 1 249 504.5 L 99 504.5  A 2.5 2.5 0 0 1 96.5 502 L 96.5 480  Z " fill-rule="nonzero" fill="#ffffff" stroke="none" />
    <path d="M 96.5 480  A 2.5 2.5 0 0 1 99 477.5 L 249 477.5  A 2.5 2.5 0 0 1 251.5 480 L 251.5 502  A 2.5 2.5 0 0 1 249 504.5 L 99 504.5  A 2.5 2.5 0 0 1 96.5 502 L 96.5 480  Z " stroke-width="1" stroke="url(#LinearGradient478)" fill="none" />
  </g>
</svg>