<?xml version="1.0" encoding="utf-8"?>
<svg version="1.1" xmlns:xlink="http://www.w3.org/1999/xlink" width="331px" height="36px" xmlns="http://www.w3.org/2000/svg">
  <defs>
    <linearGradient gradientUnits="userSpaceOnUse" x1="233.5" y1="307" x2="233.5" y2="343" id="LinearGradient460">
      <stop id="Stop461" stop-color="#1e80ff" offset="0" />
      <stop id="Stop462" stop-color="#409eff" offset="1" />
    </linearGradient>
  </defs>
  <g transform="matrix(1 0 0 1 -68 -307 )">
    <path d="M 69 310  A 2 2 0 0 1 71 308 L 396 308  A 2 2 0 0 1 398 310 L 398 340  A 2 2 0 0 1 396 342 L 71 342  A 2 2 0 0 1 69 340 L 69 310  Z " fill-rule="nonzero" fill="#ffffff" stroke="none" />
    <path d="M 68.5 310  A 2.5 2.5 0 0 1 71 307.5 L 396 307.5  A 2.5 2.5 0 0 1 398.5 310 L 398.5 340  A 2.5 2.5 0 0 1 396 342.5 L 71 342.5  A 2.5 2.5 0 0 1 68.5 340 L 68.5 310  Z " stroke-width="1" stroke-dasharray="3,1" stroke="url(#LinearGradient460)" fill="none" stroke-dashoffset="0.5" />
  </g>
</svg>