<?xml version="1.0" encoding="utf-8"?>
<svg version="1.1" xmlns:xlink="http://www.w3.org/1999/xlink" width="51px" height="29px" xmlns="http://www.w3.org/2000/svg">
  <g transform="matrix(1 0 0 1 -223 -288 )">
    <path d="M 223 303.6  C 223 303.6  223 292  223 292  C 223 289.790861000677  224.790861000677 288  227 288  C 227 288  270 288  270 288  C 272.209138999323 288  274 289.790861000677  274 292  C 274 292  274 303.6  274 303.6  C 274 305.809138999323  272.209138999323 307.6  270 307.6  C 270 307.6  245 307.6  245 307.6  C 245 307.6  234 317  234 317  C 234 317  228 307.6  228 307.6  C 228 307.6  227 307.6  227 307.6  C 224.790861000677 307.6  223 305.809138999323  223 303.6  Z " fill-rule="nonzero" fill="#555555" stroke="none" />
  </g>
</svg>