<?xml version="1.0" encoding="utf-8"?>
<svg version="1.1" xmlns:xlink="http://www.w3.org/1999/xlink" width="7px" height="12px" xmlns="http://www.w3.org/2000/svg">
  <g transform="matrix(1 0 0 1 -370 -215 )">
    <path d="M 6.87972508591061 5.63886393476611  C 6.95990836197016 5.71783962012699  7 5.80866165829197  7 5.91133004926113  C 7 6.01399844023022  6.95990836197016 6.10482047839521  6.87972508591061 6.18379616375608  L 1.27491408934712 11.7041965704809  C 1.19473081328757 11.7831722558418  1.10252004581895 11.8226600985222  0.998281786941523 11.8226600985222  C 0.894043528064098 11.8226600985222  0.801832760595611 11.7831722558418  0.721649484536063 11.7041965704809  L 0.120274914089388 11.1118789302743  C 0.0400916380298402 11.0329032449135  0 10.9420812067485  0 10.8394128157793  C 0 10.7367444248102  0.0400916380298402 10.6459223866453  0.120274914089388 10.5669467012844  L 4.84707903780075 5.91133004926113  L 0.120274914089388 1.25571339723781  C 0.0400916380298402 1.17673771187693  0 1.08591567371195  0 0.983247282742858  C 0 0.880578891773699  0.0400916380298402 0.789756853608716  0.120274914089388 0.710781168247844  L 0.721649484536063 0.118463528041307  C 0.801832760595611 0.0394878426804358  0.894043528064098 0  0.998281786941523 0  C 1.10252004581895 0  1.19473081328757 0.0394878426804358  1.27491408934712 0.118463528041307  L 6.87972508591061 5.63886393476611  Z " fill-rule="nonzero" fill="#999999" stroke="none" transform="matrix(1 0 0 1 370 215 )" />
  </g>
</svg>