<?xml version="1.0" encoding="utf-8"?>
<svg version="1.1" xmlns:xlink="http://www.w3.org/1999/xlink" width="111px" height="28px" xmlns="http://www.w3.org/2000/svg">
  <defs>
    <linearGradient gradientUnits="userSpaceOnUse" x1="357.628396006201" y1="765.316958999604" x2="367.371603993799" y2="806.683041000396" id="LinearGradient452">
      <stop id="Stop453" stop-color="#409eff" offset="0" />
      <stop id="Stop454" stop-color="#409eff" offset="0.5" />
      <stop id="Stop455" stop-color="#0066ff" offset="1" />
    </linearGradient>
  </defs>
  <g transform="matrix(1 0 0 1 -307 -772 )">
    <path d="M 307.5 772.5  L 415 772.5  A 2.5 2.5 0 0 1 417.5 775 L 417.5 797  A 2.5 2.5 0 0 1 415 799.5 L 307.5 799.5  L 307.5 772.5  Z " fill-rule="nonzero" fill="#ffffff" stroke="none" />
    <path d="M 307.5 772.5  L 415 772.5  A 2.5 2.5 0 0 1 417.5 775 L 417.5 797  A 2.5 2.5 0 0 1 415 799.5 L 307.5 799.5  L 307.5 772.5  Z " stroke-width="1" stroke="url(#LinearGradient452)" fill="none" />
  </g>
</svg>