<?xml version="1.0" encoding="utf-8"?>
<svg version="1.1" xmlns:xlink="http://www.w3.org/1999/xlink" width="392px" height="103px" xmlns="http://www.w3.org/2000/svg">
  <g transform="matrix(1 0 0 1 -462 -457 )">
    <path d="M 463 460  A 2 2 0 0 1 465 458 L 851 458  A 2 2 0 0 1 853 460 L 853 557  A 2 2 0 0 1 851 559 L 465 559  A 2 2 0 0 1 463 557 L 463 460  Z " fill-rule="nonzero" fill="#ffffff" stroke="none" />
    <path d="M 462.5 460  A 2.5 2.5 0 0 1 465 457.5 L 851 457.5  A 2.5 2.5 0 0 1 853.5 460 L 853.5 557  A 2.5 2.5 0 0 1 851 559.5 L 465 559.5  A 2.5 2.5 0 0 1 462.5 557 L 462.5 460  Z " stroke-width="1" stroke-dasharray="3,1" stroke="#797979" fill="none" stroke-dashoffset="0.5" />
  </g>
</svg>