<?xml version="1.0" encoding="utf-8"?>
<svg version="1.1" xmlns:xlink="http://www.w3.org/1999/xlink" width="351px" height="30px" xmlns="http://www.w3.org/2000/svg">
  <g transform="matrix(1 0 0 1 -52 -115 )">
    <path d="M 53 130  A 14 14 0 0 1 67 116 L 388 116  A 14 14 0 0 1 402 130 A 14 14 0 0 1 388 144 L 67 144  A 14 14 0 0 1 53 130 Z " fill-rule="nonzero" fill="#ffffff" stroke="none" />
    <path d="M 52.5 130  A 14.5 14.5 0 0 1 67 115.5 L 388 115.5  A 14.5 14.5 0 0 1 402.5 130 A 14.5 14.5 0 0 1 388 144.5 L 67 144.5  A 14.5 14.5 0 0 1 52.5 130 Z " stroke-width="1" stroke="#aaaaaa" fill="none" stroke-opacity="0.682352941176471" />
  </g>
</svg>