<svg t="1597640929197" class="icon" viewBox="0 0 1024 1024" version="1.1" xmlns="http://www.w3.org/2000/svg" p-id="7872" width="200" height="200"><path d="M546.91064035 942.56456704h-279.28512398A104.9646592 104.9646592 0 0 1 162.19538205 837.13443271V185.4691419a104.9646592 104.9646592 0 0 1 104.73192106-104.7319222h488.74896839A104.9646592 104.9646592 0 0 1 860.40819257 185.4691419v488.74896839a36.07432875 36.07432875 0 0 1-5.81843968 19.3172207c-2.32737565 3.2583259-49.34037163 71.45044423-173.85498966 66.5629548A197.12875065 197.12875065 0 0 1 650.9443493 896.48252131a124.74735616 124.74735616 0 0 1-104.03370895 46.08204573z m-279.28512398-791.30785337A34.91064035 34.91064035 0 0 0 232.01666275 185.4691419v651.66529081a34.91064035 34.91064035 0 0 0 34.91064036 34.91064036h279.28512512a57.71892622 57.71892622 0 0 0 48.8748965-19.3172207c25.36839851-32.11778958 15.59341966-101.7063333 10.24045397-123.58366776a35.14337849 35.14337849 0 0 1 39.79813092-42.82371983c88.44028928 14.66246941 130.79853283-12.33509262 145.46100224-25.6011355V185.4691419a34.91064035 34.91064035 0 0 0-34.91064036-34.91064035z m558.5702491 523.65960875z" fill="#cdcdcd" p-id="7873"></path><path d="M560.40942137 942.56456704h-14.19699314a34.91064035 34.91064035 0 0 1 0-69.82128071c98.91348139 1.62916352 162.91632242-14.66246941 199.68886329-50.03858489C777.08813085 793.14702563 790.58691186 746.13402965 790.58691186 674.21811029a34.91064035 34.91064035 0 0 1 69.82128071 0c0 91.00040306-20.71364722 153.8395557-65.16652828 197.59422464-47.71120925 48.40942137-122.88545451 70.75223211-234.83224292 70.75223211z" fill="#cdcdcd" p-id="7874"></path><path d="M322.78432768 255.29042261a43.75466894 43.75466894 0 0 1 1.39642653-12.33509262 13.49878101 13.49878101 0 0 1 4.42201429-7.4476032 23.27375986 23.27375986 0 0 1 9.54224185-3.49106404 129.86758258 129.86758258 0 0 1 15.59341966 0h55.39154944a186.19008341 186.19008341 0 0 1 38.16896626 3.49106404 69.82128071 69.82128071 0 0 1 27.92851342 11.8696175 55.39154944 55.39154944 0 0 1 16.98984505 23.27376099 96.81884274 96.81884274 0 0 1 5.58570155 35.14337735 73.07960775 73.07960775 0 0 1-14.42973128 48.6421595 69.82128071 69.82128071 0 0 1-39.09991765 23.273761l-7.4476032 1.39642538h-7.68034019l71.91591936 69.82128072a23.27375986 23.27375986 0 0 1 7.68034133 16.75710805 23.27375986 23.27375986 0 0 1-6.98212921 16.98984505 27.92851229 27.92851229 0 0 1-17.45532018 8.14581532 20.01543395 20.01543395 0 0 1-16.52436992-5.58570154L371.65922531 381.89967929v88.90576441a17.45532018 17.45532018 0 0 1-5.81844081 13.03330588 25.60113664 25.60113664 0 0 1-18.61900743 6.05117781 23.27375986 23.27375986 0 0 1-18.15353344-6.2839148 21.41185934 21.41185934 0 0 1-5.12022756-12.80056889z m48.87489763 81.92363748h38.63444139a57.71892622 57.71892622 0 0 0 30.48862607-6.51665294 29.32493767 29.32493767 0 0 0 10.4731921-26.99756203 34.44516523 34.44516523 0 0 0-3.2583259-15.59341966 24.67018638 24.67018638 0 0 0-9.07676672-9.77497999 33.51421497 33.51421497 0 0 0-13.03330588-4.65475128 86.34565063 86.34565063 0 0 0-15.59341967-1.39642653H371.65922531zM534.57554773 325.11170446a31.65231445 31.65231445 0 0 1-8.14581646-19.78269696 15.36068153 15.36068153 0 0 1 8.37855346-11.17140423 24.67018638 24.67018638 0 0 1 16.05889479-4.42201543c5.12022755 0 10.93866723 5.81843968 17.68805831 15.12794453l35.37611548 48.87489764 35.60885362-49.57310976a30.95410119 30.95410119 0 0 1 15.36068153-13.49878102 20.94638421 20.94638421 0 0 1 14.8952064 1.62916239 19.78269582 19.78269582 0 0 1 11.40414351 11.17140537q1.62916352 6.28391481-6.28391595 17.45532018L627.67058944 385.62348146l49.80584675 68.19211719a32.58326471 32.58326471 0 0 1 8.14581647 19.31722183 16.05889479 16.05889479 0 0 1-9.54224185 12.56783075 23.27375986 23.27375986 0 0 1-15.82615666 3.95653917 26.5320869 26.5320869 0 0 1-14.6624694-12.10235563l-42.12550656-57.71892622-40.96181817 56.78797596a55.39154944 55.39154944 0 0 1-7.4476032 9.07676672 14.19699427 14.19699427 0 0 1-6.98212807 4.4220143 15.12794453 15.12794453 0 0 1-7.91307833 0 58.41713835 58.41713835 0 0 1-10.00771698-3.95653916c-5.81843968-3.49106403-8.84402859-6.98212807-9.07676672-10.93866724a29.55767581 29.55767581 0 0 1 7.21486507-16.29163292l51.43501141-72.1486575zM570.18440135 663.27944192h-232.73760426a34.91064035 34.91064035 0 0 1 0-69.82128071h232.73760426a34.91064035 34.91064035 0 0 1 0 69.82128071zM570.18440135 779.64824462h-232.73760426a34.91064035 34.91064035 0 0 1 0-69.82128185h232.73760426a34.91064035 34.91064035 0 0 1 0 69.82128185z" fill="#cdcdcd" p-id="7875"></path></svg>