<svg t="1597974619728" class="icon" viewBox="0 0 1024 1024" version="1.1" xmlns="http://www.w3.org/2000/svg" p-id="1409" width="200" height="200"><path d="M574.5 336.3H458.7c-34.8 0-63-28.3-63-63s28.3-63 63-63h115.7c34.8 0 63 28.3 63 63s-28.2 63-62.9 63zM458.7 231.5c-23 0-41.7 18.7-41.7 41.7s18.7 41.7 41.7 41.7h115.7c23 0 41.7-18.7 41.7-41.7s-18.7-41.7-41.7-41.7H458.7z" fill="#4586FC" p-id="1410"></path><path d="M704.3 866.5H325.8c-48.6 0-88.1-39.5-88.1-88.1V321.8c0-48.6 39.5-88.1 88.1-88.1h87.8V255h-87.8c-36.8 0-66.8 30-66.8 66.8v456.7c0 36.8 30 66.8 66.8 66.8h378.5c36.8 0 66.8-30 66.8-66.8V321.8c0-36.8-30-66.8-66.8-66.8h-86.2v-21.3h86.2c48.6 0 88.1 39.5 88.1 88.1v456.7c0 48.5-39.6 88-88.1 88z" fill="#4586FC" p-id="1411"></path><path d="M698.8 814.5H331.3c-26.6 0-48.2-21.6-48.2-48.2V333.9c0-26.6 21.6-48.2 48.2-48.2h82.4V307h-82.4c-14.8 0-26.9 12.1-26.9 26.9v432.4c0 14.8 12.1 26.9 26.9 26.9h367.5c14.8 0 26.9-12.1 26.9-26.9V333.9c0-14.8-12.1-26.9-26.9-26.9h-77.3v-21.3h77.3c26.6 0 48.2 21.6 48.2 48.2v432.4c0 26.6-21.6 48.2-48.2 48.2z" fill="#4586FC" p-id="1412"></path><path d="M522.5 549h-18c-14.8 0-26.8-12-26.8-26.8v-20.1h-20.1c-14.8 0-26.8-12-26.8-26.8v-18c0-14.8 12-26.8 26.8-26.8h20.1v-20.1c0-14.8 12-26.8 26.8-26.8h18c14.8 0 26.8 12 26.8 26.8v20.1h20.1c14.8 0 26.8 12 26.8 26.8v18c0 14.8-12 26.8-26.8 26.8h-20.1v20.1c0 14.8-12 26.8-26.8 26.8z m-64.9-102.4c-5.9 0-10.8 4.8-10.8 10.8v18c0 5.9 4.8 10.8 10.8 10.8h36.1v36.1c0 5.9 4.8 10.8 10.8 10.8h18c5.9 0 10.8-4.8 10.8-10.8v-36.1h36.1c5.9 0 10.8-4.8 10.8-10.8v-18c0-5.9-4.8-10.8-10.8-10.8h-36.1v-36.1c0-5.9-4.8-10.8-10.8-10.8h-18c-5.9 0-10.8 4.8-10.8 10.8v36.1h-36.1z" fill="#FE5862" p-id="1413"></path><path d="M644.1 626.5H370.9c-5.9 0-10.6-4.8-10.6-10.6 0-5.9 4.8-10.6 10.6-10.6h273.2c5.9 0 10.6 4.8 10.6 10.6s-4.8 10.6-10.6 10.6zM644.1 680.5H370.9c-5.9 0-10.6-4.8-10.6-10.6 0-5.9 4.8-10.6 10.6-10.6h273.2c5.9 0 10.6 4.8 10.6 10.6 0 5.9-4.8 10.6-10.6 10.6zM513.5 732H370.9c-5.9 0-10.6-4.8-10.6-10.6 0-5.9 4.8-10.6 10.6-10.6h142.6c5.9 0 10.6 4.8 10.6 10.6 0.1 5.9-4.7 10.6-10.6 10.6z" fill="#4586FC" p-id="1414"></path></svg>