<svg t="1609135759730" class="icon" viewBox="0 0 1024 1024" version="1.1" xmlns="http://www.w3.org/2000/svg" p-id="30785" width="200" height="200"><path d="M632.721479 947.027931H391.291824c-37.9708 0-68.860321-30.889521-68.860321-68.842924v-25.067932C182.346001 786.254248 80.272231 635.362632 65.557088 470.100728c-1.694595-18.951631 4.748141-37.937031 17.676592-52.072983 13.087063-14.295588 31.686676-22.500457 51.041489-22.500457H889.738134c19.345604 0 37.937031 8.196683 51.00772 22.483061 12.936637 14.135952 19.379373 33.121352 17.701151 52.089355-14.715143 165.262928-116.813472 316.15352-256.882602 383.017371v25.067932c0 37.953404-30.889521 68.842924-68.842924 68.842924z m-498.447333-482.775398c12.760628 146.000212 109.665679 283.711644 235.422847 334.635453a34.360576 34.360576 0 0 1 21.459755 31.846312v47.450709l241.563708 0.11768 0.11768-47.567366a34.361599 34.361599 0 0 1 21.459754-31.846312c125.739772-50.92381 222.671429-188.635241 235.690954-334.879l-0.251734 0.243547H134.274146z" fill="#c09a73" p-id="30786"></path><path d="M391.526161 631.077026c-29.551036-20.272719-60.678988-58.909691-79.039147-97.025801H219.083717l8.429997 20.580735c23.573905 57.534368 68.860321 115.336842 115.388007 147.284461l35.419697 24.295335 48.608068-70.823022-35.403325-24.311708z" fill="#00D8A0" p-id="30787"></path><path d="M736.196155 454.999798a34.110889 34.110889 0 0 1-15.536858-3.741207c-16.929578-8.598842-23.657816-29.287023-15.06716-46.208415l81.410147-160.094208c17.768689-32.064276 7.399527-73.180719-22.047132-90.88187-13.658068-8.213056-29.64825-10.453073-44.983517-6.342452-16.074094 4.304026-29.514197 14.94948-37.853119 29.975708l-130.471541 253.175164c-8.674567 16.871249-29.41289 23.515576-46.275953 14.80724-16.879436-8.69094-23.50739-29.421077-14.799054-46.284139L621.529579 145.2972c17.952884-32.408107 46.426379-54.790884 80.672344-63.96073 33.55728-8.942673 68.390623-4.052293 98.155531 13.82589 61.343113 36.862559 82.568531 118.525464 47.333028 182.041056L766.866688 436.207803c-6.073322 11.920494-18.137079 18.791995-30.670533 18.791995z" fill="#c09a73" p-id="30788"></path></svg>