<svg t="1609135814537" class="icon" viewBox="0 0 1024 1024" version="1.1" xmlns="http://www.w3.org/2000/svg" p-id="32889" width="200" height="200"><path d="M518.1 514.4c1.9 0 1.9-3 0-3s-1.9 3 0 3z" fill="#4A545F" p-id="32890"></path><path d="M757 269.1c-51.8-51.7-120.5-80.2-193.6-80.2s-141.9 28.4-193.6 80.2c-51.8 51.7-80.2 120.5-80.2 193.6 0 65.3 22.7 127.1 64.4 176.4l-46.8 46.8-78.6-78.6c-8.7-8.7-23.2-8.4-32.3 0.7-9.1 9.1-9.4 23.6-0.7 32.3l78.6 78.6-70.9 71c-9.1 9.1-9.1 23.9 0 32.9 9.1 9.1 23.9 9.1 32.9 0l71.1-71.1 78.6 78.6c8.7 8.7 23.2 8.4 32.3-0.7 9.1-9.1 9.4-23.6 0.7-32.3l-78.6-78.6 46.8-46.8c49.3 41.7 111.1 64.4 176.4 64.4 73.1 0 141.8-28.4 193.6-80.2s80.2-120.5 80.2-193.6c-0.1-73-28.6-141.8-80.3-193.4zM563.4 689.9c-125.2 0-227.2-101.9-227.2-227.2 0-125.3 101.9-227.2 227.2-227.2s227.2 101.9 227.2 227.2c0 125.2-102 227.2-227.2 227.2z m0 0" fill="#F187B8" p-id="32891"></path></svg>