<svg t="1609135788527" class="icon" viewBox="0 0 1024 1024" version="1.1" xmlns="http://www.w3.org/2000/svg" p-id="31960" width="200" height="200"><path d="M377.8 875.5c-70.8 0-137.3-27.6-187.3-77.6s-77.6-116.6-77.6-187.3 27.6-137.3 77.6-187.3c50-50 116.6-77.6 187.3-77.6 70.8 0 137.3 27.6 187.3 77.6 50 50 77.6 116.6 77.6 187.3s-27.6 137.3-77.6 187.3C515 848 448.5 875.5 377.8 875.5z m0-486c-121.9 0-221.1 99.2-221.1 221.1s99.2 221.1 221.1 221.1 221.1-99.2 221.1-221.1-99.2-221.1-221.1-221.1z" fill="#13227a" p-id="31961" data-spm-anchor-id="a313x.7781069.0.i53" class="selected"></path><path d="M575.3 482l319.5-279.4c10-8.7 11-23.9 2.3-33.9s-23.9-11-33.9-2.3L545.9 444c30 35.2 29.4 38 29.4 38z" fill="#13227a" p-id="31962" data-spm-anchor-id="a313x.7781069.0.i52" class="selected"></path><path d="M887.3 153L587 143.2c-13.2-0.4-24.3 10-24.8 23.2-0.4 13.2 10 24.3 23.2 24.8l276.3 9-9 276.3c-0.4 13.2 10 24.3 23.2 24.8s24.3-10 24.8-23.2l9.8-300.3c0.4-13.3-10-24.4-23.2-24.8z" fill="#13227a" p-id="31963" data-spm-anchor-id="a313x.7781069.0.i54" class="selected"></path></svg>