<svg t="1604651718587" class="icon" viewBox="0 0 1024 1024" version="1.1" xmlns="http://www.w3.org/2000/svg" p-id="3982" width="200" height="200"><path d="M783.058824 0H180.705882a120.470588 120.470588 0 0 0-120.470588 120.470588v722.82353a120.470588 120.470588 0 0 0 120.470588 120.470588h394.541177A240.941176 240.941176 0 0 1 903.529412 635.482353V120.470588a120.470588 120.470588 0 0 0-120.470588-120.470588zM233.712941 240.941176l51.2-51.2 51.802353-51.802352a105.411765 105.411765 0 0 1 145.167059 0 103.002353 103.002353 0 0 1 0 145.769411l-51.2 51.2-51.802353 51.2a102.4 102.4 0 0 1-145.167059 0 102.4 102.4 0 0 1 0-145.167059z m157.816471 542.117648h-180.705883a30.117647 30.117647 0 0 1-30.117647-30.117648 30.117647 30.117647 0 0 1 30.117647-30.117647h180.705883a30.117647 30.117647 0 0 1 30.117647 30.117647 30.117647 30.117647 0 0 1-30.117647 30.117648z m120.470588-180.705883h-301.176471a30.117647 30.117647 0 0 1-30.117647-30.117647 30.117647 30.117647 0 0 1 30.117647-30.117647h301.176471a30.117647 30.117647 0 0 1 30.117647 30.117647 30.117647 30.117647 0 0 1-30.117647 30.117647z" fill="#5aae35" p-id="3983"></path><path d="M387.915294 292.141176L439.115294 240.941176a42.164706 42.164706 0 0 0 0-60.235294 43.369412 43.369412 0 0 0-60.235294 0l-51.2 51.2 60.235294 60.235294zM783.058824 662.588235a180.705882 180.705882 0 1 0 180.705882 180.705883 180.705882 180.705882 0 0 0-180.705882-180.705883z m79.510588 285.515294l-63.247059-63.247058a81.92 81.92 0 1 1 25.298823-25.298824l63.247059 63.247059z" fill="#5aae35" p-id="3984"></path><path d="M758.964706 819.2m-42.164706 0a42.164706 42.164706 0 1 0 84.329412 0 42.164706 42.164706 0 1 0-84.329412 0Z" fill="#5aae35" p-id="3985"></path></svg>