<?xml version="1.0" encoding="utf-8"?>
<svg version="1.1" xmlns:xlink="http://www.w3.org/1999/xlink" width="30px" height="29px" xmlns="http://www.w3.org/2000/svg">
  <g transform="matrix(1 0 0 1 -7015 -271 )">
    <path d="M 21.796875 25.2793950850662  L 20.4987980769231 17.6393194706994  L 26.015625 12.2495274102079  L 18.4074519230769 11.1243856332703  L 15 4.19206049149338  L 11.5925480769231 11.1243856332703  L 3.984375 12.2495274102079  L 9.50120192307693 17.6393194706994  L 8.18509615384616 25.2793950850662  L 15 21.6680529300567  L 21.796875 25.2793950850662  Z M 28.9903846153846 10.3258979206049  C 29.6634615384615 10.4347826086957  30 10.7130434782609  30 11.1606805293006  C 30 11.426843100189  29.84375 11.717202268431  29.53125 12.0317580340265  L 22.9867788461538 18.45595463138  L 24.5372596153846 27.5296786389414  C 24.5492788461538 27.6143667296786  24.5552884615385 27.7353497164461  24.5552884615385 27.8926275992439  C 24.5552884615385 28.4975425330813  24.3088942307692 28.8  23.8161057692308 28.8  C 23.5877403846154 28.8  23.3473557692308 28.7274102079395  23.0949519230769 28.5822306238185  L 15 24.2994328922495  L 6.90504807692307 28.5822306238185  C 6.640625 28.7274102079395  6.40024038461539 28.8  6.18389423076923 28.8  C 5.93149038461539 28.8  5.7421875 28.7122873345936  5.61598557692307 28.5368620037807  C 5.48978365384616 28.3614366729679  5.42668269230768 28.1466918714556  5.42668269230768 27.8926275992439  C 5.42668269230768 27.8200378071834  5.43870192307693 27.6990548204159  5.46274038461539 27.5296786389414  L 7.01322115384616 18.45595463138  L 0.45072115384616 12.0317580340265  C 0.150240384615387 11.7051039697542  0 11.4147448015123  0 11.1606805293006  C 0 10.7130434782609  0.336538461538453 10.4347826086957  1.00961538461539 10.3258979206049  L 10.0600961538462 9.00113421550094  L 14.1165865384615 0.74404536862005  C 14.3449519230769 0.24801512287334  14.6394230769231 0  15 0  C 15.3605769230769 0  15.6550480769231 0.24801512287334  15.8834134615385 0.74404536862005  L 19.9399038461538 9.00113421550094  L 28.9903846153846 10.3258979206049  Z " fill-rule="nonzero" fill="#ff0000" stroke="none" transform="matrix(1 0 0 1 7015 271 )" />
  </g>
</svg>