<?xml version="1.0" encoding="utf-8"?>
<svg version="1.1" xmlns:xlink="http://www.w3.org/1999/xlink" width="120px" height="120px" xmlns="http://www.w3.org/2000/svg">
  <g transform="matrix(1 0 0 1 -6970 -248 )">
    <path d="M 7030 248.5  C 7063.32 248.5  7089.5 274.68  7089.5 308  C 7089.5 341.32  7063.32 367.5  7030 367.5  C 6996.68 367.5  6970.5 341.32  6970.5 308  C 6970.5 274.68  6996.68 248.5  7030 248.5  Z " fill-rule="nonzero" fill="#ffffff" stroke="none" fill-opacity="0.117647058823529" />
    <path d="M 7030 248.5  C 7063.32 248.5  7089.5 274.68  7089.5 308  C 7089.5 341.32  7063.32 367.5  7030 367.5  C 6996.68 367.5  6970.5 341.32  6970.5 308  C 6970.5 274.68  6996.68 248.5  7030 248.5  Z " stroke-width="1" stroke-dasharray="3,1" stroke="#ff0000" fill="none" stroke-dashoffset="0.5" />
  </g>
</svg>