<?xml version="1.0" encoding="utf-8"?>
<svg version="1.1" xmlns:xlink="http://www.w3.org/1999/xlink" width="133px" height="34px" xmlns="http://www.w3.org/2000/svg">
  <g transform="matrix(1 0 0 1 -6774 -857 )">
    <path d="M 6775 860  A 2 2 0 0 1 6777 858 L 6904 858  A 2 2 0 0 1 6906 860 L 6906 888  A 2 2 0 0 1 6904 890 L 6777 890  A 2 2 0 0 1 6775 888 L 6775 860  Z " fill-rule="nonzero" fill="#ffffff" stroke="none" />
    <path d="M 6774.5 860  A 2.5 2.5 0 0 1 6777 857.5 L 6904 857.5  A 2.5 2.5 0 0 1 6906.5 860 L 6906.5 888  A 2.5 2.5 0 0 1 6904 890.5 L 6777 890.5  A 2.5 2.5 0 0 1 6774.5 888 L 6774.5 860  Z " stroke-width="1" stroke="#ff9900" fill="none" stroke-opacity="0.737254901960784" />
  </g>
</svg>