<svg t="1602311733145" class="icon" viewBox="0 0 1024 1024" version="1.1" xmlns="http://www.w3.org/2000/svg" p-id="23230" width="200" height="200"><path d="M677.58592 370.63168l-3.1232 3.41504-10.50112 10.6752c-97.44896 92.83584-245.55008 86.69696-336.08192-14.01344-8.03328-8.96512-19.95264-12.61568-31.19616-9.58976-11.25888 3.06688-20.16768 12.30336-23.35232 24.34048-3.18976 12.032-0.19456 25.00096 7.92064 33.93024 118.4 131.70176 313.55904 135.1168 435.85536 7.6032l6.9632-7.5264 3.15904-3.96288c10.01984-14.90432 7.64928-35.56352-5.39648-47.37024-6.0928-5.50912-13.53728-8.192-20.91008-8.192-8.51456 0.05632-17.00864 3.63008-23.33696 10.69056" fill="#32CE6D" p-id="23231"></path><path d="M136.064 423.05024v-46.47936L306.44736 203.7248h410.43456l172.57984 172.96896v46.3104l-377.7792 380.46208-375.61856-380.416z m156.91776-283.70432a32.4096 32.4096 0 0 0-23.02464 9.59488L80.75264 340.89472a32.33792 32.33792 0 0 0-9.22112 22.5536v72.84224c0 8.42752 3.33824 16.5376 9.29792 22.59968l407.78752 412.94336a32.26624 32.26624 0 0 0 22.94272 9.63584 32.37888 32.37888 0 0 0 23.02464-9.55392l410.09664-412.98944a32.24576 32.24576 0 0 0 9.37984-22.6304V363.44832a32.23552 32.23552 0 0 0-9.4208-22.71232l-191.43168-191.95392a32.65024 32.65024 0 0 0-22.912-9.43616H292.98176z" fill="#32CE6D" p-id="23232"></path></svg>