<?xml version="1.0" encoding="utf-8"?>
<svg version="1.1" xmlns:xlink="http://www.w3.org/1999/xlink" width="8px" height="17px" xmlns="http://www.w3.org/2000/svg">
  <g transform="matrix(1 0 0 1 -8496 -251 )">
    <path d="M 7.86254295532646 8.10821643286573  C 7.95418098510882 8.22177688710755  8 8.35237140948564  8 8.5  C 8 8.64762859051436  7.95418098510882 8.77822311289245  7.86254295532646 8.89178356713427  L 1.45704467353952 16.8296593186373  C 1.36540664375716 16.9432197728791  1.26002290950745 17  1.14089347079038 17  C 1.02176403207331 17  0.916380297823597 16.9432197728791  0.824742268041237 16.8296593186373  L 0.13745704467354 15.9779559118236  C 0.0458190148911799 15.8643954575818  0 15.7338009352037  0 15.5861723446894  C 0 15.438543754175  0.0458190148911799 15.3079492317969  0.13745704467354 15.1943887775551  L 5.53951890034364 8.5  L 0.13745704467354 1.80561122244489  C 0.0458190148911799 1.69205076820307  0 1.56145624582498  0 1.41382765531062  C 0 1.26619906479626  0.0458190148911799 1.13560454241817  0.13745704467354 1.02204408817635  L 0.824742268041237 0.170340681362726  C 0.916380297823597 0.0567802271209079  1.02176403207331 0  1.14089347079038 0  C 1.26002290950745 0  1.36540664375716 0.0567802271209079  1.45704467353952 0.170340681362726  L 7.86254295532646 8.10821643286573  Z " fill-rule="nonzero" fill="#aaaaaa" stroke="none" transform="matrix(1 0 0 1 8496 251 )" />
  </g>
</svg>