<svg t="1608787745719" class="icon" viewBox="0 0 1024 1024" version="1.1" xmlns="http://www.w3.org/2000/svg" p-id="6892" width="200" height="200"><path d="M0 0m64 0l320 0q64 0 64 64l0 320q0 64-64 64l-320 0q-64 0-64-64l0-320q0-64 64-64Z" fill="#bfbfbf" p-id="6893"></path><path d="M0 576m64 0l320 0q64 0 64 64l0 320q0 64-64 64l-320 0q-64 0-64-64l0-320q0-64 64-64Z" fill="#bfbfbf" p-id="6894"></path><path d="M576 576m64 0l320 0q64 0 64 64l0 320q0 64-64 64l-320 0q-64 0-64-64l0-320q0-64 64-64Z" fill="#bfbfbf" p-id="6895"></path><path d="M576 0m64 0l320 0q64 0 64 64l0 320q0 64-64 64l-320 0q-64 0-64-64l0-320q0-64 64-64Z" fill="#bfbfbf" p-id="6896"></path></svg>