<svg t="1608778698633" class="icon" viewBox="0 0 1024 1024" version="1.1" xmlns="http://www.w3.org/2000/svg" p-id="10774" width="200" height="200"><path d="M189.610667 64h644.778666a21.333333 21.333333 0 0 1 21.184 18.816l101.589334 853.333333A21.333333 21.333333 0 0 1 935.978667 960H88.021333a21.333333 21.333333 0 0 1-21.184-23.850667l101.589334-853.333333A21.333333 21.333333 0 0 1 189.610667 64z" fill="#fe6b31" p-id="10775"></path><path d="M192 64H836.906667a21.333333 21.333333 0 0 1 21.184 18.805333l101.749333 853.354667a21.333333 21.333333 0 0 1-37.237333 16.576l-746.666667-853.354667A21.333333 21.333333 0 0 1 192 64z" fill="#ff8820" p-id="10776"></path><path d="M320 256h85.333333a10.666667 10.666667 0 0 1 10.666667 10.666667v53.333333a96 96 0 0 0 192 0v-53.333333a10.666667 10.666667 0 0 1 10.666667-10.666667h85.333333a10.666667 10.666667 0 0 1 10.666667 10.666667v53.333333c0 111.925333-90.741333 202.666667-202.666667 202.666667s-202.666667-90.741333-202.666667-202.666667v-53.333333a10.666667 10.666667 0 0 1 10.666667-10.666667z" fill="#FFFFFF" p-id="10777"></path></svg>