<svg t="1608601692103" class="icon" viewBox="0 0 1024 1024" version="1.1" xmlns="http://www.w3.org/2000/svg" p-id="6377" width="200" height="200"><path d="M984 457.1H40c-22.1 0-40-17.9-40-40v-200c0-22.1 17.9-40 40-40h944c22.1 0 40 17.9 40 40v200c0 22.1-17.9 40-40 40z" fill="#B4C5EF" p-id="6378"></path><path d="M421.9 441.9c-42.7 0-82.9-16.7-113.1-46.9L187.7 274c-30.2-30.2-46.9-70.4-46.9-113.2 0-42.7 16.7-82.9 46.9-113.1C217.9 17.5 258.1 0.8 300.8 0.8c42.7 0 82.9 16.7 113.1 46.9l121.1 121c30.2 30.2 46.9 70.4 46.9 113.2 0 42.7-16.7 82.9-46.9 113.1-30.2 30.3-70.4 46.9-113.1 46.9z m-121.1-381c-26.7 0-51.8 10.4-70.7 29.3-18.9 18.9-29.3 44-29.3 70.6 0 26.7 10.4 51.8 29.3 70.7l121.1 121c18.9 18.9 44 29.3 70.7 29.3 26.7 0 51.8-10.4 70.7-29.3 18.9-18.9 29.3-43.9 29.3-70.6 0-26.7-10.4-51.8-29.3-70.7l-121.1-121c-18.9-18.9-44-29.3-70.7-29.3z" fill="#FF5076" p-id="6379"></path><path d="M603 442.5c-42.7 0-82.9-16.7-113.2-46.9-30.2-30.2-46.9-70.3-46.9-113.1 0-42.7 16.7-82.9 46.9-113.2L611 48.3c30.2-30.2 70.3-46.9 113.1-46.9 42.7 0 82.9 16.7 113.2 46.9 62.3 62.4 62.3 163.9 0 226.3l-121.1 121c-30.3 30.2-70.4 46.9-113.2 46.9zM724.1 61.4c-26.7 0-51.8 10.4-70.6 29.3L532.3 211.8c-18.9 18.9-29.3 44-29.3 70.7 0 26.7 10.4 51.8 29.3 70.6 18.9 18.9 44 29.3 70.7 29.3 26.7 0 51.8-10.4 70.6-29.3l121.1-121c38.9-39 38.9-102.4 0-141.5-18.8-18.8-43.9-29.2-70.6-29.2z" fill="#FF5076" p-id="6380"></path><path d="M40 457.1h944c22.1 0 40-17.9 40-40v-200c0-22.1-17.9-40-40-40H40c-22.1 0-40 17.9-40 40v200c0 22.1 17.9 40 40 40z" fill="#FF6C8F" p-id="6381"></path><path d="M439 177.6h160v280H439z" fill="#F4D3DE" p-id="6382"></path><path d="M839.3 1023.6H179.5c-38.7 0-70.1-31.4-70.1-70.1V499.2c0-6.4 5.2-11.6 11.6-11.6h776.8c6.4 0 11.6 5.2 11.6 11.6v454.3c0 38.7-31.4 70.1-70.1 70.1z" fill="#FF6C8F" p-id="6383"></path><path d="M439 487.6h160v536H439z" fill="#F4D3DE" p-id="6384"></path></svg>