<svg t="1608779383687" class="icon" viewBox="0 0 1024 1024" version="1.1" xmlns="http://www.w3.org/2000/svg" p-id="19657" width="200" height="200"><path d="M424.64 365.504V212.416h171.904v153.088L693.312 268.8c32.256-32.256 32.256-88.704 0-120.896L572.352 27.008c-32.192-32.192-88.64-32.192-120.896 0l-120.832 120.96c-32.192 32.192-32.192 88.64 0 120.896l94.016 96.64zM209.728 599.296V427.328h153.088L268.864 330.624c-32.256-32.192-88.704-32.192-120.896 0L27.072 451.52c-32.256 32.256-32.256 88.704 0 120.96l120.896 120.896c32.192 32.192 88.64 32.192 120.896 0l96.704-96.768H209.728v2.688z m386.816 61.696v153.216H424.64v-153.216l-96.704 94.08c-32.192 32.256-32.192 88.704 0 120.96l120.896 120.896c32.192 32.32 88.576 32.32 120.896 0l120.896-120.896c32.256-32.256 32.256-88.704 0-120.96l-94.08-94.08z m400.32-209.472l-120.896-120.896c-32.192-32.192-88.704-32.192-120.896 0l-96.768 96.704h153.152v172.032h-153.152l96.768 96.768c32.192 32.128 88.704 32.128 120.896 0l120.896-121.024a90.88 90.88 0 0 0 0-123.584z m0 0" fill="#05AFC8" p-id="19658"></path><path d="M424.64 365.504V212.416h171.904v153.088L693.312 268.8c32.256-32.256 32.256-88.704 0-120.896L572.352 27.008c-32.192-32.192-88.64-32.192-120.896 0l-120.832 120.96c-32.192 32.192-32.192 88.64 0 120.896l94.016 96.64zM209.728 599.296V427.328h153.088L268.864 330.624c-32.256-32.192-88.704-32.192-120.896 0L27.072 451.52c-32.256 32.256-32.256 88.704 0 120.96l120.896 120.896c32.192 32.192 88.64 32.192 120.896 0l96.704-96.768H209.728v2.688z m386.816 61.696v153.216H424.64v-153.216l-96.704 94.08c-32.192 32.256-32.192 88.704 0 120.96l120.896 120.896c32.192 32.32 88.576 32.32 120.896 0l120.896-120.896c32.256-32.256 32.256-88.704 0-120.96l-94.08-94.08z m400.32-209.472l-120.896-120.896c-32.192-32.192-88.704-32.192-120.896 0l-96.768 96.704h153.152v172.032h-153.152l96.768 96.768c32.192 32.128 88.704 32.128 120.896 0l120.896-121.024a90.88 90.88 0 0 0 0-123.584z m0 0" fill="#05AFC8" p-id="19659"></path></svg>