<?xml version="1.0" encoding="utf-8"?>
<svg version="1.1" xmlns:xlink="http://www.w3.org/1999/xlink" width="78px" height="26px" xmlns="http://www.w3.org/2000/svg">
  <defs>
    <linearGradient gradientUnits="userSpaceOnUse" x1="1244.57671070706" y1="1460.79431907106" x2="1251.42328929294" y2="1499.20568092894" id="LinearGradient406">
      <stop id="Stop407" stop-color="#409eff" offset="0" />
      <stop id="Stop408" stop-color="#409eff" offset="0.5" />
      <stop id="Stop409" stop-color="#0066ff" offset="1" />
    </linearGradient>
  </defs>
  <g transform="matrix(1 0 0 1 -1209 -1467 )">
    <path d="M 1209.5 1469  A 1.5 1.5 0 0 1 1211 1467.5 L 1285 1467.5  A 1.5 1.5 0 0 1 1286.5 1469 L 1286.5 1491  A 1.5 1.5 0 0 1 1285 1492.5 L 1211 1492.5  A 1.5 1.5 0 0 1 1209.5 1491 L 1209.5 1469  Z " fill-rule="nonzero" fill="#ffffff" stroke="none" />
    <path d="M 1209.5 1469  A 1.5 1.5 0 0 1 1211 1467.5 L 1285 1467.5  A 1.5 1.5 0 0 1 1286.5 1469 L 1286.5 1491  A 1.5 1.5 0 0 1 1285 1492.5 L 1211 1492.5  A 1.5 1.5 0 0 1 1209.5 1491 L 1209.5 1469  Z " stroke-width="1" stroke="url(#LinearGradient406)" fill="none" />
  </g>
</svg>