<svg t="1600073255741" class="icon" viewBox="0 0 1024 1024" version="1.1" xmlns="http://www.w3.org/2000/svg" p-id="64110" width="200" height="200"><path d="M974.943553 356.19246L736.913143 97.899604a26.447823 26.447823 0 0 0-19.622579-8.531556H298.604457a26.447823 26.447823 0 0 0-19.622578 8.531556L39.885024 356.19246a26.661112 26.661112 0 0 0 0 35.192668l447.906686 533.222245a26.447823 26.447823 0 0 0 20.262445 9.598001 27.08769 27.08769 0 0 0 21.32889-9.598001l447.906686-533.222245a26.447823 26.447823 0 0 0-2.346178-35.192668zM507.414289 865.526349l-412.500729-490.564466L309.268902 142.690273h396.290773l214.355343 232.27161z" fill="#ffffff" p-id="64111"></path><path d="M620.457405 490.564466l-113.043116 139.490939L394.79775 490.564466a26.661112 26.661112 0 0 0-42.657779 33.699646l133.51885 165.085607a27.08769 27.08769 0 0 0 21.32889 9.811289 26.447823 26.447823 0 0 0 21.32889-9.811289L661.195584 523.410956A26.661112 26.661112 0 0 0 620.457405 490.564466z" fill="#ffffff" p-id="64112"></path></svg>