<?xml version="1.0" encoding="utf-8"?>
<svg version="1.1" xmlns:xlink="http://www.w3.org/1999/xlink" width="16px" height="16px" xmlns="http://www.w3.org/2000/svg">
  <g transform="matrix(1 0 0 1 -2451 -1283 )">
    <path d="M 2459 1283  C 2463.48 1283  2467 1286.52  2467 1291  C 2467 1295.48  2463.48 1299  2459 1299  C 2454.52 1299  2451 1295.48  2451 1291  C 2451 1286.52  2454.52 1283  2459 1283  Z " fill-rule="nonzero" fill="#ffffff" stroke="none" />
    <path d="M 2459 1283.5  C 2463.2 1283.5  2466.5 1286.8  2466.5 1291  C 2466.5 1295.2  2463.2 1298.5  2459 1298.5  C 2454.8 1298.5  2451.5 1295.2  2451.5 1291  C 2451.5 1286.8  2454.8 1283.5  2459 1283.5  Z " stroke-width="1" stroke="#aaaaaa" fill="none" />
  </g>
</svg>