<?xml version="1.0" encoding="utf-8"?>
<svg version="1.1" xmlns:xlink="http://www.w3.org/1999/xlink" width="15px" height="15px" xmlns="http://www.w3.org/2000/svg">
  <g transform="matrix(1 0 0 1 -1338 -157 )">
    <path d="M 1345.5 158  C 1349.14 158  1352 160.86  1352 164.5  C 1352 168.14  1349.14 171  1345.5 171  C 1341.86 171  1339 168.14  1339 164.5  C 1339 160.86  1341.86 158  1345.5 158  Z " fill-rule="nonzero" fill="#ffffff" stroke="none" />
    <path d="M 1345.5 158  C 1349.14 158  1352 160.86  1352 164.5  C 1352 168.14  1349.14 171  1345.5 171  C 1341.86 171  1339 168.14  1339 164.5  C 1339 160.86  1341.86 158  1345.5 158  Z " stroke-width="2" stroke="#797979" fill="none" />
  </g>
</svg>