<svg t="1600065080200" class="icon" viewBox="0 0 1146 1024" version="1.1" xmlns="http://www.w3.org/2000/svg" p-id="50953" width="200" height="200"><path d="M458.79296 998.31808a36.864 36.864 0 0 1-60.74368 0l-107.7248-156.672h-137.6256c-79.83104 0-145.408-61.52192-145.408-138.69056V142.78656C7.24992 65.65888 72.82688 4.096 152.65792 4.096h825.22112c79.79008 0 145.408 61.56288 145.408 138.69056v560.16896c0 77.16864-65.61792 138.69056-145.408 138.69056H566.59968L458.752 998.31808z m-30.35136-85.93408l88.39168-128.49152a36.864 36.864 0 0 1 30.35136-15.9744h430.73536c40.1408 0 71.68-29.61408 71.68-64.96256V142.78656c0-35.30752-31.5392-64.96256-71.68-64.96256H152.69888c-40.1408 0-71.68 29.65504-71.68 64.96256v560.16896c0 35.34848 31.5392 64.96256 71.68 64.96256h156.99968a36.864 36.864 0 0 1 30.35136 15.9744l88.39168 128.49152z" fill="#cdcdcd" p-id="50954"></path><path d="M331.73504 414.1056c0 35.14368-30.39232 63.61088-67.87072 63.61088s-67.87072-28.4672-67.87072-63.65184c0-35.14368 30.39232-63.65184 67.87072-63.65184S331.776 378.92096 331.776 414.1056M637.952 414.1056c0 35.14368-30.35136 63.61088-67.82976 63.61088-37.51936 0-67.87072-28.4672-67.87072-63.65184 0-35.14368 30.35136-63.65184 67.87072-63.65184 37.4784 0 67.82976 28.50816 67.82976 63.65184M944.20992 414.1056c0 35.14368-30.39232 63.61088-67.87072 63.61088s-67.87072-28.4672-67.87072-63.65184c0-35.14368 30.39232-63.65184 67.87072-63.65184s67.87072 28.50816 67.87072 63.65184" fill="#cdcdcd" p-id="50955"></path></svg>