<svg t="1600065295167" class="icon" viewBox="0 0 1024 1024" version="1.1" xmlns="http://www.w3.org/2000/svg" p-id="53539" width="200" height="200"><path d="M826.9 842.9H196.1C124.1 842.9 64 785 64 711.1V312c0-71.9 60.1-131.7 132.1-131.7h630.7c72.1 0 132.1 59.9 132.1 131.7v399.2c0.1 73.8-60 131.7-132 131.7zM196.1 240.1c-40 0-72.1 31.9-72.1 71.9v399.2c0 39.9 32 71.8 72.1 71.8h630.7c40 0 72.1-31.9 72.1-71.8V312c0-39.9-32-71.9-72.1-71.9H196.1z m0 0" fill="#cdcdcd" p-id="53540"></path><path d="M468.5 659.3c-8 0-18-2-26-6-18-10-28-27.9-28-45.9V417.8c0-20 10-37.9 28-45.9 18-10 38-8 54.1 2l150.2 93.8c16 10 24 25.9 24 45.9s-10 35.9-24 45.9l-150.2 91.8c-8.1 6-18.1 8-28.1 8z m6-231.6v165.7l132.1-83.8-132.1-81.9z m0 0" fill="#cdcdcd" p-id="53541"></path></svg>