<svg t="1600332946432" class="icon" viewBox="0 0 1024 1024" version="1.1" xmlns="http://www.w3.org/2000/svg" p-id="6306" width="200" height="200"><path d="M512 0C227.84 0 0 230.4 0 512c0 274.432 218.624 500.224 491.008 512h300.032c23.04 0 46.592-23.04 46.592-46.592v-69.632c114.176-93.184 186.368-235.008 186.368-395.776C1024 230.4 796.16 0 512 0zM244.224 581.632c-32.768 0-58.368-25.6-58.368-58.368s25.6-58.368 58.368-58.368 58.368 25.6 58.368 58.368-25.6 58.368-58.368 58.368z m267.776 0c-32.768 0-58.368-25.6-58.368-58.368s25.6-58.368 58.368-58.368 58.368 25.6 58.368 58.368-25.6 58.368-58.368 58.368z m267.776 0c-32.768 0-58.368-25.6-58.368-58.368s25.6-58.368 58.368-58.368 58.368 25.6 58.368 58.368c-0.512 32.768-26.112 58.368-58.368 58.368z" fill="#32CE6D" p-id="6307" data-spm-anchor-id="a313x.7781069.0.i7" class=""></path><path d="M896 173.568c78.336 186.88 41.984 410.624-109.056 562.176-199.168 199.168-523.264 200.704-723.968 0-7.68-7.68-14.848-15.36-21.504-23.04C117.248 889.344 289.792 1015.296 491.52 1024h300.032c23.04 0 46.592-23.04 46.592-46.592v-69.632c114.176-93.184 186.368-235.008 186.368-395.776-0.512-129.536-48.64-247.808-128.512-338.432z" fill="#1296db" opacity=".38" p-id="6308" data-spm-anchor-id="a313x.7781069.0.i8" class="selected"></path></svg>