<svg t="1600333078041" class="icon" viewBox="0 0 1024 1024" version="1.1" xmlns="http://www.w3.org/2000/svg" p-id="2125" width="200" height="200"><path d="M576 508.8c-70.4 0-128-57.6-128-128s57.6-128 128-128 128 57.6 128 128-57.6 128-128 128z m0-192c-35.2 0-64 28.8-64 64s28.8 64 64 64 64-28.8 64-64-28.8-64-64-64zM736 771.2H416c-64 0-64-48-64-64 0-70.4 76.8-176 176-176h96c99.2 0 176 105.6 176 176 0 16 0 64-64 64z m-320-64h320c0-38.4-51.2-112-112-112h-96c-60.8 0-112 73.6-112 112z" fill="#cdcdcd" p-id="2126"></path><path d="M864 992H224c-54.4 0-96-41.6-96-96v-134.4c0-19.2 12.8-32 32-32s32 12.8 32 32V896c0 19.2 12.8 32 32 32h640c19.2 0 32-12.8 32-32V128c0-19.2-12.8-32-32-32H224c-19.2 0-32 12.8-32 32v118.4c0 19.2-12.8 32-32 32s-32-12.8-32-32V128c0-54.4 41.6-96 96-96h640c54.4 0 96 41.6 96 96v768c0 54.4-41.6 96-96 96z" fill="#cdcdcd" p-id="2127"></path><path d="M160 601.6c-19.2 0-32-12.8-32-32v-128c0-19.2 12.8-32 32-32s32 12.8 32 32v128c0 16-12.8 32-32 32zM224 377.6H96c-19.2 0-32-12.8-32-32s12.8-32 32-32h128c19.2 0 32 12.8 32 32s-12.8 32-32 32z" fill="#cdcdcd" p-id="2128"></path><path d="M224 697.6H96c-19.2 0-32-12.8-32-32s12.8-32 32-32h128c19.2 0 32 12.8 32 32s-12.8 32-32 32z" fill="#cdcdcd" p-id="2129"></path></svg>