<svg t="1600048520381" class="icon" viewBox="0 0 1024 1024" version="1.1" xmlns="http://www.w3.org/2000/svg" p-id="7435" width="200" height="200"><path d="M788.48 944a68.96 68.96 0 0 0 69.12-69.12V565.76a69.12 69.12 0 0 0-30.24-57.12L560 320c-23.52-16-48-32-96 0L196.64 508.64a69.12 69.12 0 0 0-30.24 57.12v308.96A68.96 68.96 0 0 0 235.52 944h26.08" fill="#67D1C4" p-id="7436" data-spm-anchor-id="a313x.7781069.0.i26" class=""></path><path d="M929.92 353.28L553.44 89.76a62.24 62.24 0 0 0-41.44-11.2 62.24 62.24 0 0 0-41.44 11.2L94.08 353.28a64 64 0 0 0-16 89.12l5.76 8.32a64 64 0 0 0 89.12 16L512 229.44l338.72 237.12a64 64 0 0 0 89.12-16l5.76-8.32a64 64 0 0 0-15.68-88.96z" fill="#67D1C4" p-id="7437"></path><path d="M432.808727 864.398986m-56.568543-56.568543l0 0q-56.568542-56.568542 0-113.137085l158.391919-158.391919q56.568542-56.568542 113.137085 0l0 0q56.568542 56.568542 0 113.137085l-158.391919 158.391919q-56.568542 56.568542-113.137085 0Z" fill="#ffffff" p-id="7438" data-spm-anchor-id="a313x.7781069.0.i24" class=""></path><path d="M376.24 807.792a80 80 0 0 1 0-113.136l79.2-79.2 113.12 113.136-79.2 79.2a80 80 0 0 1-113.12 0z" fill="#67D1C4" p-id="7439"></path><path d="M528 592a5.76 5.76 0 0 0 6.24-4.8 48 48 0 0 1 52.64-41.44 5.44 5.44 0 0 0 6.08-4.8 5.6 5.6 0 0 0-4.8-6.24 58.4 58.4 0 0 0-64.96 51.04 5.44 5.44 0 0 0 4.8 6.24z" fill="#67D1C4" p-id="7440"></path></svg>