<svg t="1600048579466" class="icon" viewBox="0 0 1024 1024" version="1.1" xmlns="http://www.w3.org/2000/svg" p-id="8571" width="200" height="200"><path d="M947.260235 331.685647h-48.489411V235.821176c0-1.024 0-2.048-1.024-4.065882 0-1.024 0-2.048-1.024-2.048 0-1.024-1.024-2.048-2.078118-2.048-1.024-1.024-1.024-2.048-2.048-3.041882 0 0-1.024-1.024-2.078118-1.024-1.024-1.024-2.048-2.048-3.072-2.048-2.078118-1.024-50.537412-18.371765-118.633412-25.509647v-7.137883c0-4.096-4.126118-8.161882-8.252235-8.161882h-80.414117c-4.156235 0-8.282353 4.065882-8.282353 8.161882v6.113883c-58.789647 5.12-113.453176 23.491765-159.864471 53.067294C346.955294 141.944471 143.781647 217.419294 135.529412 220.461176c-1.024 0-2.048 1.024-3.102118 2.048-1.024 0-1.024 1.024-2.048 1.024-1.024 1.024-1.024 2.017882-2.078118 3.041883l-2.048 2.048c0 1.024 0 2.048-1.024 2.048 0 1.024-1.054118 2.048-1.054117 4.065882v95.894588H76.739765a16.203294 16.203294 0 0 0-16.504471 16.323765v510.102588c0 9.185882 7.228235 16.323765 16.504471 16.323765h870.52047a16.203294 16.203294 0 0 0 16.504471-16.323765V346.985412c0-8.131765-7.228235-15.299765-16.504471-15.299765zM93.244235 841.788235V363.309176h31.984941v416.225883c0 1.054118 0 1.054118 1.024 2.048 0 1.024 1.024 2.048 1.024 3.072 0 1.024 1.024 2.048 2.078118 2.048 1.024 1.024 1.024 2.048 2.048 2.048l2.078118 2.017882c1.024 0 2.048 1.024 3.072 1.024 1.024 0 2.078118 0 3.102117 1.024h4.126118c2.048 0 247.567059-41.833412 345.539765 47.947294l-396.077177 1.024zM689.392941 223.563294v-27.557647h64.993883v254.042353l-25.780706-35.719529c-1.024-2.048-4.126118-3.072-6.204236-3.072-3.072 0-5.12 1.024-6.174117 3.072l-25.780706 35.719529v-226.484706h-1.054118z m241.362824 618.224941h-396.047059c97.972706-89.750588 342.437647-48.971294 345.509647-47.947294h4.126118c1.024 0 2.078118 0 3.102117-1.024 1.024 0 2.048-1.024 3.072-1.024 1.054118 0 2.078118-1.024 2.078118-2.048l2.048-2.017882c1.054118-1.024 1.054118-2.048 2.078118-2.048 0-1.024 1.024-2.048 1.024-3.072 0-1.024 0-1.024 1.024-2.017883V363.339294h31.984941V841.788235z" fill="#67D1C4" p-id="8572"></path><path d="M496.941176 210.823529h30.117648v616.658824l-7.529412 15.811765h-15.058824l-7.529412-15.811765z" fill="#67D1C4" p-id="8573"></path><path d="M948.645647 873.411765H77.763765A17.257412 17.257412 0 0 1 60.235294 856.124235V347.527529c0-10.179765 8.252235-17.287529 17.528471-17.287529h46.441411V235.640471c0-1.024 0-2.048 1.024-3.072v-3.041883c0-1.024 1.054118-2.017882 2.078118-2.017882V226.484706c0-1.024 1.024-1.024 2.048-2.048l1.054118-0.993882h1.024c1.024-1.024 2.078118-2.048 3.102117-2.048 8.252235-3.041882 212.540235-78.305882 376.621177 27.467294 46.441412-29.515294 100.080941-47.826824 159.924706-53.910589v-5.089882c0-5.089882 4.126118-9.155765 9.306353-9.155765h80.474353c5.150118 0 9.276235 4.065882 9.276235 9.155765v5.089882c66.048 7.107765 112.489412 24.395294 117.639529 25.419295 1.024 1.024 2.078118 1.024 3.102118 2.048h2.048l1.054118 1.024c1.024 0.993882 1.024 0.993882 1.024 2.017882v1.024l1.024 1.024c0 0.993882 1.024 0.993882 1.024 2.017882s0 1.024 1.054117 2.048v2.017883c0 1.024 1.024 2.048 1.024 3.072v94.569411h46.441412c10.300235 0 17.528471 8.131765 17.528471 17.317647V857.148235c3.102118 8.131765-5.150118 16.263529-14.456471 16.26353zM77.763765 332.257882a14.004706 14.004706 0 0 0-14.456471 14.245647v508.596706c0 8.131765 6.204235 14.245647 14.456471 14.245647h870.881882c8.252235 0 14.456471-6.113882 14.456471-14.245647V346.503529a14.004706 14.004706 0 0 0-14.456471-14.245647H898.108235V228.502588c0-0.993882-1.054118-0.993882-1.054117-0.993882s0-1.024-1.024-1.024h-1.024c0-1.024-1.024-1.024-1.024-1.024h-1.054118s-1.024 0-1.024-1.024c-1.024-0.993882-1.024-0.993882-2.048-0.993882-4.156235-2.048-51.621647-18.311529-117.639529-25.449412h-1.024v-8.131765c0-3.041882-3.102118-6.113882-6.204236-6.113882h-80.474353c-3.102118 0-6.204235 3.072-6.204235 6.113882v8.131765h-2.048c-59.873882 6.113882-114.537412 24.395294-159.924706 53.910588l-3.132235-2.017882-1.024-1.024C348.16 144.082824 145.889882 218.352941 137.637647 221.364706c-1.054118 0-2.078118 1.024-2.078118 2.048l-1.024 0.993882h-1.024l-1.054117 1.024s0 1.024-1.024 1.024l-1.024 1.024c0 0.993882-1.054118 0.993882-1.054118 0.993883v103.755294H77.763765zM934.249412 840.884706H531.787294l3.102118-3.041882c99.056941-90.533647 344.636235-48.820706 346.684235-47.796706h4.126118c1.054118 0 2.078118 0 3.102117-1.024 1.054118 0 2.078118-1.024 2.078118-1.024 1.024 0 1.024-1.024 2.048-1.024l2.078118-2.017883 2.048-2.048c0-1.024 1.054118-2.017882 1.054117-3.041882V360.749176h36.111059v480.105412z m-394.179765-3.041882h391.077647V363.791059h-28.912941v416.045176c0 1.024-1.024 2.017882-1.024 3.041883s-1.024 2.048-2.048 3.041882l-2.078118 2.048c-1.024 1.024-2.048 1.024-3.072 2.048-1.054118 0.993882-2.078118 0.993882-3.102117 0.993882-1.024 0-2.078118 1.024-3.102118 1.024h-4.126118c-5.150118 1.024-243.531294-39.664941-343.612235 45.778824z m-44.363294 3.041882H94.298353v-2.017882h-2.078118V360.749176h36.141177v419.087059c0 1.024 0.993882 2.017882 0.993882 3.041883s1.054118 2.048 1.054118 2.048l2.048 2.017882c1.054118 1.024 1.054118 1.024 2.078117 1.024s2.048 1.024 3.102118 1.024h7.228235c2.048 0 248.651294-41.712941 347.708236 47.796706l3.102117 4.065882z m-400.353882-3.041882H486.4c-99.087059-85.443765-338.462118-44.754824-340.510118-44.754824H140.709647c-1.024 0-2.048 0-3.072-1.024-1.054118 0-2.078118-1.024-3.102118-1.024-2.078118-0.993882-2.078118-0.993882-3.102117-2.017882-1.024-1.024-2.078118-1.024-2.078118-2.048-1.024-1.024-2.048-2.017882-2.048-3.041883s-1.024-2.048-1.024-3.041882c0 0 0-1.024-1.054118-1.024V363.791059h-29.906823v474.021647z m661.383529-383.488l-28.852706-39.664942c-2.078118-3.041882-8.252235-3.041882-10.330353 0l-28.912941 39.664942V193.957647h68.126118v260.397177zM692.796235 196.969412v247.175529l22.678589-31.533176a9.426824 9.426824 0 0 1 8.282352-4.065883c3.072 0 6.174118 1.024 8.252236 4.065883l22.678588 31.533176V196.969412h-61.891765z" fill="#67D1C4" p-id="8574"></path><path d="M217.178353 277.082353c-4.096 1.024-7.198118 5.089882-6.144 9.125647 1.024 4.065882 5.12 7.107765 9.246118 6.083765 2.048 0 162.364235-25.298824 217.871058 33.430588 2.048 2.017882 4.096 3.011765 6.174118 3.011765a7.920941 7.920941 0 0 0 5.12-2.017883 7.860706 7.860706 0 0 0 0-11.143529C388.818824 249.765647 224.376471 276.088471 217.178353 277.112471z m0 62.795294c-4.096 1.024-7.198118 5.059765-6.144 9.125647 1.024 4.035765 5.12 7.077647 9.246118 6.083765 2.048 0 162.364235-25.328941 217.871058 33.430588 2.048 1.987765 4.096 3.011765 6.174118 3.011765a7.920941 7.920941 0 0 0 5.12-2.017883 7.860706 7.860706 0 0 0 0-11.143529c-60.626824-64.813176-225.069176-39.484235-232.267294-38.490353z" fill="#ffffff" p-id="8575" data-spm-anchor-id="a313x.7781069.0.i30" class="selected"></path><path d="M441.645176 391.529412a9.336471 9.336471 0 0 1-7.077647-2.95153c-50.627765-53.820235-196.397176-34.243765-212.630588-32.286117-1.987765 0-5.029647 0-7.077647-1.957647-2.017882-0.993882-3.011765-3.915294-4.035765-5.872942 0-2.951529 0-4.909176 2.017883-6.866823 1.024-1.957647 4.065882-2.921412 6.083764-3.915294 17.197176-2.921412 171.068235-24.455529 229.797648 38.189176 2.017882 1.957647 3.041882 3.915294 3.041882 6.836706a8.734118 8.734118 0 0 1-3.011765 6.866824 14.998588 14.998588 0 0 1-7.107765 1.957647z m-142.757647-43.068236c49.603765 0 109.327059 6.836706 138.691765 38.159059a6.535529 6.535529 0 0 0 9.125647 0c3.011765-1.957647 3.011765-5.872941 0-8.794353-24.304941-25.449412-69.872941-40.146824-132.608-42.10447-46.592-0.963765-86.076235 3.915294-94.147765 5.872941-2.048 0-3.041882 0.993882-4.065882 1.957647-1.024 0.993882-1.024 2.951529-1.024 4.909176s1.024 2.921412 3.041882 3.915295c1.024 0.963765 3.041882 0.963765 5.059765 0.963764h1.024c5.059765-0.963765 36.442353-4.879059 74.902588-4.879059z m142.757647-17.618823a9.336471 9.336471 0 0 1-7.077647-2.951529C383.939765 274.070588 238.170353 293.647059 221.936941 295.604706c-3.011765 0-5.029647 0-7.077647-1.957647-2.017882-0.993882-3.011765-3.915294-4.035765-5.872941 0-2.951529 0-4.909176 2.017883-6.866824 1.024-1.957647 4.065882-2.921412 6.083764-3.915294 17.197176-2.921412 171.068235-24.485647 229.797648 38.189176 2.017882 1.957647 3.041882 3.915294 3.041882 6.836706a8.734118 8.734118 0 0 1-3.011765 6.866824c-2.048 0.963765-4.065882 1.957647-7.107765 1.957647z m-142.757647-44.062118c49.603765 0 109.327059 6.866824 138.691765 38.189177a6.535529 6.535529 0 0 0 9.125647 0c3.011765-1.957647 3.011765-5.872941 0-8.824471-24.304941-25.449412-69.872941-40.116706-132.608-42.074353-46.592-1.987765-86.076235 3.915294-94.147765 5.872941-2.048 0-3.041882 0.963765-4.065882 1.957647-1.024 0.963765-1.024 2.921412-1.024 4.879059s1.024 2.951529 3.041882 3.915294c1.024 0.993882 3.041882 0.993882 5.059765 0.993883 6.083765 0 37.466353-4.909176 75.926588-4.909177z" fill="#67D1C4" p-id="8576"></path></svg>