<svg t="1600048650086" class="icon" viewBox="0 0 1024 1024" version="1.1" xmlns="http://www.w3.org/2000/svg" p-id="10657" width="200" height="200"><path d="M547.216931 727.816578c0-70.433862 32.507937-131.837743 84.881834-171.569664-3.611993-9.029982-7.223986-19.865961-7.223985-30.70194 0-25.283951 19.865961-45.149912 32.507936-59.597884 32.507937-39.731922 52.373898-93.911817 52.373898-153.5097 0-124.613757-88.493827-225.749559-196.853616-225.749559s-198.659612 101.135802-198.659612 225.749559c0 59.597884 19.865961 113.777778 52.373898 153.5097 19.865961 12.641975 32.507937 34.313933 32.507936 59.597884s-14.447972 50.567901-37.925925 61.40388c-21.671958 10.835979-46.955908 12.641975-68.627866 21.671957-21.671958 9.029982-45.149912 19.865961-65.015873 32.507937-19.865961 10.835979-37.925926 25.283951-54.179895 39.731922-7.223986 7.223986-16.253968 14.447972-23.477954 21.671958-1.805996 3.611993-16.253968 23.477954-18.059964 23.477954h1.805996c-10.835979 16.253968-16.253968 32.507937-16.253968 52.373898 0 54.179894 45.149912 97.52381 101.135802 99.329806h390.095238c-37.925926-37.925926-61.40388-90.299824-61.40388-149.897708z" fill="#67D1C4" p-id="10658"></path><path d="M760.324515 577.918871c-83.075838 0-149.897707 66.821869-149.897707 149.897707 0 83.075838 66.821869 149.897707 149.897707 149.897708 83.075838 0 149.897707-66.821869 149.897707-149.897708 0-83.075838-66.821869-149.897707-149.897707-149.897707z m83.075838 158.92769h-63.209877v63.209876H740.458554v-63.209876h-63.209877v-39.731923H740.458554v-63.209876h39.731922v63.209876h63.209877v39.731923z" fill="#67D1C4" p-id="10659"></path></svg>