<svg t="1599700512094" class="icon" viewBox="0 0 1024 1024" version="1.1" xmlns="http://www.w3.org/2000/svg" p-id="8296" width="200" height="200"><path d="M70.4 70.61333333h35.41333333v35.41333334H70.4zM70.4 106.02666667h35.41333333v35.41333333H70.4z" p-id="8297" fill="#37B369"></path><path d="M70.4 141.44h35.41333333v35.41333333H70.4zM70.4 176.85333333h35.41333333V212.26666667H70.4zM70.4 212.26666667h35.41333333v35.41333333H70.4zM70.4 247.68h35.41333333v35.41333333H70.4zM70.4 283.09333333h35.41333333v35.41333334H70.4zM70.4 353.92h35.41333333V389.33333333H70.4zM70.4 389.33333333h35.41333333v35.41333334H70.4zM70.4 460.16h35.41333333v35.41333333H70.4zM70.4 495.57333333h35.41333333v35.41333334H70.4z" p-id="8298" fill="#37B369"></path><path d="M70.4 530.98666667h35.41333333V566.4H70.4zM70.4 637.22666667h35.41333333v35.41333333H70.4zM70.4 708.05333333h35.41333333V743.46666667H70.4zM70.4 743.46666667h35.41333333v35.41333333H70.4zM70.4 778.88h35.41333333v35.41333333H70.4z" p-id="8299" fill="#37B369"></path><path d="M70.4 814.29333333h35.41333333v35.41333334H70.4zM70.4 849.70666667h35.41333333v35.41333333H70.4z" p-id="8300" fill="#37B369"></path><path d="M70.4 885.12h35.41333333V920.53333333H70.4zM70.4 920.53333333h35.41333333v35.41333334H70.4zM105.81333333 70.61333333h35.41333334v35.41333334h-35.41333334zM105.81333333 283.09333333h35.41333334v35.41333334h-35.41333334zM105.81333333 353.92h35.41333334V389.33333333h-35.41333334zM105.81333333 389.33333333h35.41333334v35.41333334h-35.41333334zM105.81333333 495.57333333h35.41333334v35.41333334h-35.41333334z" p-id="8301" fill="#37B369"></path><path d="M105.81333333 530.98666667h35.41333334V566.4h-35.41333334zM105.81333333 637.22666667h35.41333334v35.41333333h-35.41333334zM105.81333333 708.05333333h35.41333334V743.46666667h-35.41333334zM105.81333333 920.53333333h35.41333334v35.41333334h-35.41333334zM141.22666667 70.61333333h35.41333333v35.41333334h-35.41333333zM141.22666667 141.44h35.41333333v35.41333333h-35.41333333zM141.22666667 176.85333333h35.41333333V212.26666667h-35.41333333zM141.22666667 212.26666667h35.41333333v35.41333333h-35.41333333zM141.22666667 283.09333333h35.41333333v35.41333334h-35.41333333zM141.22666667 424.74666667h35.41333333v35.41333333h-35.41333333zM141.22666667 460.16h35.41333333v35.41333333h-35.41333333zM141.22666667 495.57333333h35.41333333v35.41333334h-35.41333333zM141.22666667 566.4h35.41333333v35.41333333h-35.41333333zM141.22666667 601.81333333h35.41333333v35.41333334h-35.41333333z" p-id="8302" fill="#37B369"></path><path d="M141.22666667 637.22666667h35.41333333v35.41333333h-35.41333333zM141.22666667 708.05333333h35.41333333V743.46666667h-35.41333333zM141.22666667 778.88h35.41333333v35.41333333h-35.41333333z" p-id="8303" fill="#37B369"></path><path d="M141.22666667 814.29333333h35.41333333v35.41333334h-35.41333333zM141.22666667 849.70666667h35.41333333v35.41333333h-35.41333333zM141.22666667 920.53333333h35.41333333v35.41333334h-35.41333333zM176.64 70.61333333h35.41333333v35.41333334h-35.41333333zM176.64 141.44h35.41333333v35.41333333h-35.41333333zM176.64 176.85333333h35.41333333V212.26666667h-35.41333333zM176.64 212.26666667h35.41333333v35.41333333h-35.41333333zM176.64 283.09333333h35.41333333v35.41333334h-35.41333333zM176.64 389.33333333h35.41333333v35.41333334h-35.41333333zM176.64 495.57333333h35.41333333v35.41333334h-35.41333333z" p-id="8304" fill="#37B369"></path><path d="M176.64 530.98666667h35.41333333V566.4h-35.41333333zM176.64 637.22666667h35.41333333v35.41333333h-35.41333333zM176.64 708.05333333h35.41333333V743.46666667h-35.41333333zM176.64 778.88h35.41333333v35.41333333h-35.41333333z" p-id="8305" fill="#37B369"></path><path d="M176.64 814.29333333h35.41333333v35.41333334h-35.41333333zM176.64 849.70666667h35.41333333v35.41333333h-35.41333333zM176.64 920.53333333h35.41333333v35.41333334h-35.41333333zM212.05333333 70.61333333H247.46666667v35.41333334h-35.41333334zM212.05333333 141.44H247.46666667v35.41333333h-35.41333334zM212.05333333 176.85333333H247.46666667V212.26666667h-35.41333334zM212.05333333 212.26666667H247.46666667v35.41333333h-35.41333334zM212.05333333 283.09333333H247.46666667v35.41333334h-35.41333334zM212.05333333 353.92H247.46666667V389.33333333h-35.41333334zM212.05333333 389.33333333H247.46666667v35.41333334h-35.41333334zM212.05333333 424.74666667H247.46666667v35.41333333h-35.41333334zM212.05333333 708.05333333H247.46666667V743.46666667h-35.41333334zM212.05333333 778.88H247.46666667v35.41333333h-35.41333334z" p-id="8306" fill="#37B369"></path><path d="M212.05333333 814.29333333H247.46666667v35.41333334h-35.41333334zM212.05333333 849.70666667H247.46666667v35.41333333h-35.41333334zM212.05333333 920.53333333H247.46666667v35.41333334h-35.41333334zM247.46666667 70.61333333h35.41333333v35.41333334H247.46666667zM247.46666667 283.09333333h35.41333333v35.41333334H247.46666667zM247.46666667 353.92h35.41333333V389.33333333H247.46666667zM247.46666667 389.33333333h35.41333333v35.41333334H247.46666667zM247.46666667 424.74666667h35.41333333v35.41333333H247.46666667zM247.46666667 495.57333333h35.41333333v35.41333334H247.46666667z" p-id="8307" fill="#37B369"></path><path d="M247.46666667 530.98666667h35.41333333V566.4H247.46666667zM247.46666667 637.22666667h35.41333333v35.41333333H247.46666667zM247.46666667 708.05333333h35.41333333V743.46666667H247.46666667zM247.46666667 920.53333333h35.41333333v35.41333334H247.46666667zM282.88 70.61333333h35.41333333v35.41333334h-35.41333333zM282.88 106.02666667h35.41333333v35.41333333h-35.41333333z" p-id="8308" fill="#37B369"></path><path d="M282.88 141.44h35.41333333v35.41333333h-35.41333333zM282.88 176.85333333h35.41333333V212.26666667h-35.41333333zM282.88 212.26666667h35.41333333v35.41333333h-35.41333333zM282.88 247.68h35.41333333v35.41333333h-35.41333333zM282.88 283.09333333h35.41333333v35.41333334h-35.41333333zM282.88 353.92h35.41333333V389.33333333h-35.41333333zM282.88 424.74666667h35.41333333v35.41333333h-35.41333333zM282.88 495.57333333h35.41333333v35.41333334h-35.41333333zM282.88 566.4h35.41333333v35.41333333h-35.41333333zM282.88 637.22666667h35.41333333v35.41333333h-35.41333333zM282.88 708.05333333h35.41333333V743.46666667h-35.41333333zM282.88 743.46666667h35.41333333v35.41333333h-35.41333333zM282.88 778.88h35.41333333v35.41333333h-35.41333333z" p-id="8309" fill="#37B369"></path><path d="M282.88 814.29333333h35.41333333v35.41333334h-35.41333333zM282.88 849.70666667h35.41333333v35.41333333h-35.41333333z" p-id="8310" fill="#37B369"></path><path d="M282.88 885.12h35.41333333V920.53333333h-35.41333333zM282.88 920.53333333h35.41333333v35.41333334h-35.41333333zM318.29333333 424.74666667h35.41333334v35.41333333h-35.41333334zM318.29333333 460.16h35.41333334v35.41333333h-35.41333334zM318.29333333 495.57333333h35.41333334v35.41333334h-35.41333334zM318.29333333 637.22666667h35.41333334v35.41333333h-35.41333334zM353.70666667 70.61333333h35.41333333v35.41333334h-35.41333333zM353.70666667 106.02666667h35.41333333v35.41333333h-35.41333333z" p-id="8311" fill="#37B369"></path><path d="M353.70666667 141.44h35.41333333v35.41333333h-35.41333333zM353.70666667 176.85333333h35.41333333V212.26666667h-35.41333333zM353.70666667 247.68h35.41333333v35.41333333h-35.41333333zM353.70666667 283.09333333h35.41333333v35.41333334h-35.41333333zM353.70666667 389.33333333h35.41333333v35.41333334h-35.41333333zM353.70666667 460.16h35.41333333v35.41333333h-35.41333333zM353.70666667 566.4h35.41333333v35.41333333h-35.41333333zM353.70666667 601.81333333h35.41333333v35.41333334h-35.41333333zM353.70666667 672.64h35.41333333v35.41333333h-35.41333333zM353.70666667 743.46666667h35.41333333v35.41333333h-35.41333333zM353.70666667 778.88h35.41333333v35.41333333h-35.41333333zM353.70666667 885.12h35.41333333V920.53333333h-35.41333333zM353.70666667 920.53333333h35.41333333v35.41333334h-35.41333333zM389.12 70.61333333H424.53333333v35.41333334h-35.41333333zM389.12 106.02666667H424.53333333v35.41333333h-35.41333333zM389.12 176.85333333H424.53333333V212.26666667h-35.41333333zM389.12 318.50666667H424.53333333v35.41333333h-35.41333333zM389.12 389.33333333H424.53333333v35.41333334h-35.41333333zM389.12 530.98666667H424.53333333V566.4h-35.41333333zM389.12 566.4H424.53333333v35.41333333h-35.41333333zM389.12 601.81333333H424.53333333v35.41333334h-35.41333333z" p-id="8312" fill="#37B369"></path><path d="M389.12 637.22666667H424.53333333v35.41333333h-35.41333333zM389.12 672.64H424.53333333v35.41333333h-35.41333333z" p-id="8313" fill="#37B369"></path><path d="M389.12 708.05333333H424.53333333V743.46666667h-35.41333333zM389.12 814.29333333H424.53333333v35.41333334h-35.41333333zM389.12 849.70666667H424.53333333v35.41333333h-35.41333333zM424.53333333 70.61333333h35.41333334v35.41333334H424.53333333zM424.53333333 106.02666667h35.41333334v35.41333333H424.53333333z" p-id="8314" fill="#37B369"></path><path d="M424.53333333 141.44h35.41333334v35.41333333H424.53333333zM424.53333333 283.09333333h35.41333334v35.41333334H424.53333333zM424.53333333 389.33333333h35.41333334v35.41333334H424.53333333zM424.53333333 460.16h35.41333334v35.41333333H424.53333333zM424.53333333 495.57333333h35.41333334v35.41333334H424.53333333zM424.53333333 637.22666667h35.41333334v35.41333333H424.53333333zM424.53333333 672.64h35.41333334v35.41333333H424.53333333z" p-id="8315" fill="#37B369"></path><path d="M424.53333333 708.05333333h35.41333334V743.46666667H424.53333333zM424.53333333 814.29333333h35.41333334v35.41333334H424.53333333zM424.53333333 920.53333333h35.41333334v35.41333334H424.53333333zM459.94666667 141.44h35.41333333v35.41333333h-35.41333333zM459.94666667 176.85333333h35.41333333V212.26666667h-35.41333333zM459.94666667 247.68h35.41333333v35.41333333h-35.41333333zM459.94666667 353.92h35.41333333V389.33333333h-35.41333333zM459.94666667 424.74666667h35.41333333v35.41333333h-35.41333333zM459.94666667 460.16h35.41333333v35.41333333h-35.41333333zM459.94666667 637.22666667h35.41333333v35.41333333h-35.41333333zM459.94666667 708.05333333h35.41333333V743.46666667h-35.41333333zM459.94666667 778.88h35.41333333v35.41333333h-35.41333333z" p-id="8316" fill="#37B369"></path><path d="M459.94666667 814.29333333h35.41333333v35.41333334h-35.41333333zM459.94666667 849.70666667h35.41333333v35.41333333h-35.41333333z" p-id="8317" fill="#37B369"></path><path d="M459.94666667 885.12h35.41333333V920.53333333h-35.41333333zM459.94666667 920.53333333h35.41333333v35.41333334h-35.41333333zM495.36 70.61333333h35.41333333v35.41333334h-35.41333333zM495.36 247.68h35.41333333v35.41333333h-35.41333333zM495.36 283.09333333h35.41333333v35.41333334h-35.41333333zM495.36 318.50666667h35.41333333v35.41333333h-35.41333333zM495.36 389.33333333h35.41333333v35.41333334h-35.41333333zM495.36 424.74666667h35.41333333v35.41333333h-35.41333333zM495.36 495.57333333h35.41333333v35.41333334h-35.41333333zM495.36 601.81333333h35.41333333v35.41333334h-35.41333333z" p-id="8318" fill="#37B369"></path><path d="M495.36 637.22666667h35.41333333v35.41333333h-35.41333333zM495.36 672.64h35.41333333v35.41333333h-35.41333333z" p-id="8319" fill="#37B369"></path><path d="M495.36 708.05333333h35.41333333V743.46666667h-35.41333333zM495.36 743.46666667h35.41333333v35.41333333h-35.41333333zM495.36 778.88h35.41333333v35.41333333h-35.41333333z" p-id="8320" fill="#37B369"></path><path d="M495.36 814.29333333h35.41333333v35.41333334h-35.41333333zM495.36 849.70666667h35.41333333v35.41333333h-35.41333333z" p-id="8321" fill="#37B369"></path><path d="M495.36 885.12h35.41333333V920.53333333h-35.41333333zM495.36 920.53333333h35.41333333v35.41333334h-35.41333333zM530.77333333 106.02666667h35.41333334v35.41333333h-35.41333334zM530.77333333 176.85333333h35.41333334V212.26666667h-35.41333334zM530.77333333 247.68h35.41333334v35.41333333h-35.41333334zM530.77333333 566.4h35.41333334v35.41333333h-35.41333334zM530.77333333 672.64h35.41333334v35.41333333h-35.41333334z" p-id="8322" fill="#37B369"></path><path d="M530.77333333 708.05333333h35.41333334V743.46666667h-35.41333334zM530.77333333 849.70666667h35.41333334v35.41333333h-35.41333334zM566.18666667 70.61333333H601.6v35.41333334h-35.41333333zM566.18666667 106.02666667H601.6v35.41333333h-35.41333333z" p-id="8323" fill="#37B369"></path><path d="M566.18666667 141.44H601.6v35.41333333h-35.41333333zM566.18666667 176.85333333H601.6V212.26666667h-35.41333333zM566.18666667 212.26666667H601.6v35.41333333h-35.41333333zM566.18666667 283.09333333H601.6v35.41333334h-35.41333333zM566.18666667 389.33333333H601.6v35.41333334h-35.41333333zM566.18666667 460.16H601.6v35.41333333h-35.41333333zM566.18666667 495.57333333H601.6v35.41333334h-35.41333333z" p-id="8324" fill="#37B369"></path><path d="M566.18666667 530.98666667H601.6V566.4h-35.41333333zM566.18666667 566.4H601.6v35.41333333h-35.41333333zM566.18666667 672.64H601.6v35.41333333h-35.41333333zM566.18666667 743.46666667H601.6v35.41333333h-35.41333333zM566.18666667 814.29333333H601.6v35.41333334h-35.41333333zM566.18666667 849.70666667H601.6v35.41333333h-35.41333333z" p-id="8325" fill="#37B369"></path><path d="M566.18666667 885.12H601.6V920.53333333h-35.41333333zM601.6 70.61333333h35.41333333v35.41333334H601.6zM601.6 176.85333333h35.41333333V212.26666667H601.6zM601.6 212.26666667h35.41333333v35.41333333H601.6zM601.6 318.50666667h35.41333333v35.41333333H601.6zM601.6 353.92h35.41333333V389.33333333H601.6zM601.6 389.33333333h35.41333333v35.41333334H601.6zM601.6 424.74666667h35.41333333v35.41333333H601.6zM601.6 460.16h35.41333333v35.41333333H601.6zM601.6 495.57333333h35.41333333v35.41333334H601.6z" p-id="8326" fill="#37B369"></path><path d="M601.6 530.98666667h35.41333333V566.4H601.6zM601.6 566.4h35.41333333v35.41333333H601.6zM601.6 601.81333333h35.41333333v35.41333334H601.6z" p-id="8327" fill="#37B369"></path><path d="M601.6 637.22666667h35.41333333v35.41333333H601.6zM601.6 849.70666667h35.41333333v35.41333333H601.6z" p-id="8328" fill="#37B369"></path><path d="M601.6 885.12h35.41333333V920.53333333H601.6zM601.6 920.53333333h35.41333333v35.41333334H601.6zM637.01333333 70.61333333h35.41333334v35.41333334h-35.41333334zM637.01333333 141.44h35.41333334v35.41333333h-35.41333334zM637.01333333 176.85333333h35.41333334V212.26666667h-35.41333334zM637.01333333 212.26666667h35.41333334v35.41333333h-35.41333334zM637.01333333 247.68h35.41333334v35.41333333h-35.41333334zM637.01333333 283.09333333h35.41333334v35.41333334h-35.41333334zM637.01333333 318.50666667h35.41333334v35.41333333h-35.41333334zM637.01333333 389.33333333h35.41333334v35.41333334h-35.41333334zM637.01333333 424.74666667h35.41333334v35.41333333h-35.41333334zM637.01333333 530.98666667h35.41333334V566.4h-35.41333334zM637.01333333 601.81333333h35.41333334v35.41333334h-35.41333334z" p-id="8329" fill="#37B369"></path><path d="M637.01333333 637.22666667h35.41333334v35.41333333h-35.41333334zM637.01333333 672.64h35.41333334v35.41333333h-35.41333334z" p-id="8330" fill="#37B369"></path><path d="M637.01333333 708.05333333h35.41333334V743.46666667h-35.41333334zM637.01333333 743.46666667h35.41333334v35.41333333h-35.41333334zM637.01333333 778.88h35.41333334v35.41333333h-35.41333334z" p-id="8331" fill="#37B369"></path><path d="M637.01333333 814.29333333h35.41333334v35.41333334h-35.41333334zM637.01333333 849.70666667h35.41333334v35.41333333h-35.41333334zM672.42666667 389.33333333h35.41333333v35.41333334h-35.41333333zM672.42666667 495.57333333h35.41333333v35.41333334h-35.41333333z" p-id="8332" fill="#37B369"></path><path d="M672.42666667 530.98666667h35.41333333V566.4h-35.41333333zM672.42666667 637.22666667h35.41333333v35.41333333h-35.41333333zM672.42666667 778.88h35.41333333v35.41333333h-35.41333333zM672.42666667 849.70666667h35.41333333v35.41333333h-35.41333333zM707.84 70.61333333h35.41333333v35.41333334h-35.41333333zM707.84 106.02666667h35.41333333v35.41333333h-35.41333333z" p-id="8333" fill="#37B369"></path><path d="M707.84 141.44h35.41333333v35.41333333h-35.41333333zM707.84 176.85333333h35.41333333V212.26666667h-35.41333333zM707.84 212.26666667h35.41333333v35.41333333h-35.41333333zM707.84 247.68h35.41333333v35.41333333h-35.41333333zM707.84 283.09333333h35.41333333v35.41333334h-35.41333333zM707.84 460.16h35.41333333v35.41333333h-35.41333333zM707.84 495.57333333h35.41333333v35.41333334h-35.41333333zM707.84 601.81333333h35.41333333v35.41333334h-35.41333333z" p-id="8334" fill="#37B369"></path><path d="M707.84 637.22666667h35.41333333v35.41333333h-35.41333333zM707.84 708.05333333h35.41333333V743.46666667h-35.41333333zM707.84 778.88h35.41333333v35.41333333h-35.41333333z" p-id="8335" fill="#37B369"></path><path d="M707.84 814.29333333h35.41333333v35.41333334h-35.41333333zM707.84 849.70666667h35.41333333v35.41333333h-35.41333333z" p-id="8336" fill="#37B369"></path><path d="M707.84 885.12h35.41333333V920.53333333h-35.41333333zM743.25333333 70.61333333H778.66666667v35.41333334h-35.41333334zM743.25333333 283.09333333H778.66666667v35.41333334h-35.41333334zM743.25333333 353.92H778.66666667V389.33333333h-35.41333334zM743.25333333 424.74666667H778.66666667v35.41333333h-35.41333334zM743.25333333 460.16H778.66666667v35.41333333h-35.41333334zM743.25333333 566.4H778.66666667v35.41333333h-35.41333334zM743.25333333 601.81333333H778.66666667v35.41333334h-35.41333334z" p-id="8337" fill="#37B369"></path><path d="M743.25333333 637.22666667H778.66666667v35.41333333h-35.41333334zM743.25333333 778.88H778.66666667v35.41333333h-35.41333334z" p-id="8338" fill="#37B369"></path><path d="M743.25333333 814.29333333H778.66666667v35.41333334h-35.41333334zM743.25333333 885.12H778.66666667V920.53333333h-35.41333334zM778.66666667 70.61333333h35.41333333v35.41333334H778.66666667zM778.66666667 141.44h35.41333333v35.41333333H778.66666667zM778.66666667 176.85333333h35.41333333V212.26666667H778.66666667zM778.66666667 212.26666667h35.41333333v35.41333333H778.66666667zM778.66666667 283.09333333h35.41333333v35.41333334H778.66666667zM778.66666667 389.33333333h35.41333333v35.41333334H778.66666667zM778.66666667 424.74666667h35.41333333v35.41333333H778.66666667zM778.66666667 530.98666667h35.41333333V566.4H778.66666667zM778.66666667 566.4h35.41333333v35.41333333H778.66666667zM778.66666667 601.81333333h35.41333333v35.41333334H778.66666667z" p-id="8339" fill="#37B369"></path><path d="M778.66666667 637.22666667h35.41333333v35.41333333H778.66666667zM778.66666667 672.64h35.41333333v35.41333333H778.66666667z" p-id="8340" fill="#37B369"></path><path d="M778.66666667 708.05333333h35.41333333V743.46666667H778.66666667zM778.66666667 743.46666667h35.41333333v35.41333333H778.66666667zM778.66666667 778.88h35.41333333v35.41333333H778.66666667zM778.66666667 885.12h35.41333333V920.53333333H778.66666667zM814.08 70.61333333h35.41333333v35.41333334h-35.41333333zM814.08 141.44h35.41333333v35.41333333h-35.41333333zM814.08 176.85333333h35.41333333V212.26666667h-35.41333333zM814.08 212.26666667h35.41333333v35.41333333h-35.41333333zM814.08 283.09333333h35.41333333v35.41333334h-35.41333333zM814.08 353.92h35.41333333V389.33333333h-35.41333333zM814.08 389.33333333h35.41333333v35.41333334h-35.41333333zM814.08 424.74666667h35.41333333v35.41333333h-35.41333333zM814.08 495.57333333h35.41333333v35.41333334h-35.41333333zM814.08 566.4h35.41333333v35.41333333h-35.41333333zM814.08 637.22666667h35.41333333v35.41333333h-35.41333333zM814.08 743.46666667h35.41333333v35.41333333h-35.41333333zM814.08 778.88h35.41333333v35.41333333h-35.41333333zM814.08 849.70666667h35.41333333v35.41333333h-35.41333333z" p-id="8341" fill="#37B369"></path><path d="M814.08 885.12h35.41333333V920.53333333h-35.41333333zM849.49333333 70.61333333h35.41333334v35.41333334h-35.41333334zM849.49333333 141.44h35.41333334v35.41333333h-35.41333334zM849.49333333 176.85333333h35.41333334V212.26666667h-35.41333334zM849.49333333 212.26666667h35.41333334v35.41333333h-35.41333334zM849.49333333 283.09333333h35.41333334v35.41333334h-35.41333334zM849.49333333 353.92h35.41333334V389.33333333h-35.41333334zM849.49333333 424.74666667h35.41333334v35.41333333h-35.41333334zM849.49333333 460.16h35.41333334v35.41333333h-35.41333334zM849.49333333 495.57333333h35.41333334v35.41333334h-35.41333334zM849.49333333 566.4h35.41333334v35.41333333h-35.41333334zM849.49333333 601.81333333h35.41333334v35.41333334h-35.41333334z" p-id="8342" fill="#37B369"></path><path d="M849.49333333 637.22666667h35.41333334v35.41333333h-35.41333334zM849.49333333 743.46666667h35.41333334v35.41333333h-35.41333334zM849.49333333 778.88h35.41333334v35.41333333h-35.41333334z" p-id="8343" fill="#37B369"></path><path d="M849.49333333 814.29333333h35.41333334v35.41333334h-35.41333334zM849.49333333 885.12h35.41333334V920.53333333h-35.41333334zM849.49333333 920.53333333h35.41333334v35.41333334h-35.41333334zM884.90666667 70.61333333h35.41333333v35.41333334h-35.41333333zM884.90666667 283.09333333h35.41333333v35.41333334h-35.41333333zM884.90666667 353.92h35.41333333V389.33333333h-35.41333333zM884.90666667 389.33333333h35.41333333v35.41333334h-35.41333333zM884.90666667 460.16h35.41333333v35.41333333h-35.41333333zM884.90666667 495.57333333h35.41333333v35.41333334h-35.41333333z" p-id="8344" fill="#37B369"></path><path d="M884.90666667 530.98666667h35.41333333V566.4h-35.41333333zM884.90666667 601.81333333h35.41333333v35.41333334h-35.41333333zM884.90666667 814.29333333h35.41333333v35.41333334h-35.41333333zM884.90666667 849.70666667h35.41333333v35.41333333h-35.41333333z" p-id="8345" fill="#37B369"></path><path d="M884.90666667 885.12h35.41333333V920.53333333h-35.41333333zM884.90666667 920.53333333h35.41333333v35.41333334h-35.41333333zM920.32 70.61333333H955.73333333v35.41333334h-35.41333333zM920.32 106.02666667H955.73333333v35.41333333h-35.41333333z" p-id="8346" fill="#37B369"></path><path d="M920.32 141.44H955.73333333v35.41333333h-35.41333333zM920.32 176.85333333H955.73333333V212.26666667h-35.41333333zM920.32 212.26666667H955.73333333v35.41333333h-35.41333333zM920.32 247.68H955.73333333v35.41333333h-35.41333333zM920.32 283.09333333H955.73333333v35.41333334h-35.41333333zM920.32 353.92H955.73333333V389.33333333h-35.41333333zM920.32 495.57333333H955.73333333v35.41333334h-35.41333333zM920.32 814.29333333H955.73333333v35.41333334h-35.41333333zM920.32 920.53333333H955.73333333v35.41333334h-35.41333333z" p-id="8347" fill="#37B369"></path></svg>