<svg t="1609824193418" class="icon" viewBox="0 0 1024 1024" version="1.1" xmlns="http://www.w3.org/2000/svg" p-id="4947" width="200" height="200"><path d="M387.83488 66.56l70.80448 70.8096c-107.59168 92.06272-176.03072 228.58752-176.03072 381.31712 0 145.49504 62.2848 276.1216 161.1776 367.77472L372.80768 957.44c-117.01248001-109.82912-190.51008-265.47712-190.51008-438.60992 0-180.44416 79.77984-341.90848 205.53728-452.27008z" fill="#ffffff" p-id="4948"></path><path d="M578.91328 257.64352l72.93952 72.92928c-66.28352 36.64384-111.19104 107.16672-111.19104 188.25728 0 73.61536001 37.04831999 138.5216 93.47072 177.29024001l-71.62368 71.61343998C488.27904 710.02624 440.32 620.11903999 440.32 518.83008c0-108.65663999 54.95808-204.44672 138.59328-261.18656zM770.03264 432.81408c39.5776 0 71.66976 32.08192 71.66976 71.67488 0 39.59808-32.08704 71.67488-71.66976 71.67488-39.60832 0-71.68-32.07679999-71.68-71.67488 0-39.59296 32.07168-71.67488 71.68-71.67488z" fill="#ffffff" p-id="4949"></path></svg>