<svg t="1609822581784" class="icon" viewBox="0 0 1024 1024" version="1.1" xmlns="http://www.w3.org/2000/svg" p-id="6479" width="200" height="200"><path d="M876.032 58.368H155.648C80.896 58.368 20.48 112.64 20.48 178.688v641.024c0 66.56 60.416 120.32 135.168 120.32h720.896c74.752 0 135.168-53.76 135.168-120.32V178.176c-0.512-65.536-60.928-119.808-135.68-119.808z" fill="#25D1AE" p-id="6480" data-spm-anchor-id="a313x.7781069.0.i9" class="selected"></path><path d="M655.872 518.144c-16.896 9.728-246.272 122.368-266.752 132.608-14.848 7.68-33.28-1.024-33.28-18.432v-266.24c0-15.872 17.408-28.16 34.304-18.432 13.824 7.68 242.176 119.808 265.216 132.608 15.36 8.704 14.848 29.696 0.512 37.888z" fill="#4383DB" p-id="6481"></path><path d="M192.512 839.68c0 11.264-10.24 19.968-22.528 19.968h-45.056c-12.288 0-22.528-9.216-22.528-19.968v-40.448c0-11.264 10.24-19.968 22.528-19.968h45.056c12.288 0 22.528 9.216 22.528 19.968v40.448zM192.512 679.936c0 11.264-10.24 19.968-22.528 19.968h-45.056c-12.288 0-22.528-9.216-22.528-19.968v-40.448c0-11.264 10.24-19.968 22.528-19.968h45.056c12.288 0 22.528 9.216 22.528 19.968v40.448zM192.512 519.168c0 11.264-10.24 19.968-22.528 19.968h-45.056c-12.288 0-22.528-9.216-22.528-19.968v-39.936c0-11.264 10.24-19.968 22.528-19.968h45.056c12.288 0 22.528 9.216 22.528 19.968v39.936zM192.512 359.424c0 11.264-10.24 19.968-22.528 19.968h-45.056c-12.288 0-22.528-9.216-22.528-19.968v-40.448c0-11.264 10.24-19.968 22.528-19.968h45.056c12.288 0 22.528 9.216 22.528 19.968v40.448zM192.512 199.168c0 11.264-10.24 19.968-22.528 19.968h-45.056C112.64 219.136 102.4 209.92 102.4 199.168V158.72c0-11.264 10.24-19.968 22.528-19.968h45.056c12.288 0 22.528 9.216 22.528 19.968v40.448zM913.408 839.68c0 11.264-10.24 19.968-22.528 19.968h-45.056c-12.288 0-22.528-9.216-22.528-19.968v-40.448c0-11.264 10.24-19.968 22.528-19.968h45.056c12.288 0 22.528 9.216 22.528 19.968v40.448zM913.408 679.936c0 11.264-10.24 19.968-22.528 19.968h-45.056c-12.288 0-22.528-9.216-22.528-19.968v-40.448c0-11.264 10.24-19.968 22.528-19.968h45.056c12.288 0 22.528 9.216 22.528 19.968v40.448zM913.408 519.168c0 11.264-10.24 19.968-22.528 19.968h-45.056c-12.288 0-22.528-9.216-22.528-19.968v-39.936c0-11.264 10.24-19.968 22.528-19.968h45.056c12.288 0 22.528 9.216 22.528 19.968v39.936zM913.408 359.424c0 11.264-10.24 19.968-22.528 19.968h-45.056c-12.288 0-22.528-9.216-22.528-19.968v-40.448c0-11.264 10.24-19.968 22.528-19.968h45.056c12.288 0 22.528 9.216 22.528 19.968v40.448zM913.408 199.168c0 11.264-10.24 19.968-22.528 19.968h-45.056c-12.288 0-22.528-9.216-22.528-19.968V158.72c0-11.264 10.24-19.968 22.528-19.968h45.056c12.288 0 22.528 9.216 22.528 19.968v40.448z" fill="#FFFFFF" p-id="6482"></path></svg>