<svg t="1609823848042" class="icon" viewBox="0 0 1024 1024" version="1.1" xmlns="http://www.w3.org/2000/svg" p-id="2118" width="200" height="200"><path d="M896 320c-5.12 0-12.8 2.56-17.92 5.12l-105.984 60.416c-7.68 5.12-12.8 7.68-17.92 12.8-12.8 7.68-17.92 20.48-17.92 35.328v131.584c0 15.36 5.12 25.088 15.36 32.768 7.68 7.68 17.92 12.8 25.088 17.92 32.768 20.48 65.536 37.888 98.816 58.368 2.56 0 7.68 2.56 10.24 5.12 17.92 7.68 27.648 0 30.208-17.92V335.36c-2.048-10.24-9.728-17.92-19.968-15.36z m-292.864-47.616H180.736C137.728 272.384 107.52 305.152 107.52 348.16v331.264c0 10.24 2.56 22.528 7.68 32.768 15.36 25.088 37.888 40.448 68.096 40.448h207.36c70.656 0 141.824 0 212.48 2.56 37.888 0 70.656-35.328 70.656-73.216V345.6c-2.56-37.888-32.768-73.216-70.656-73.216z m-326.144 242.688c-37.888 0-70.656-32.768-70.656-70.656 0-40.448 35.328-73.216 75.776-73.216 37.888 0 68.096 32.768 68.096 70.656 0 39.936-35.328 73.216-73.216 73.216z" fill="#409EFF" p-id="2119" data-spm-anchor-id="a313x.7781069.0.i1" class=""></path><path d="M350.208 441.344c0 40.448-35.328 73.216-73.216 73.216s-70.656-32.768-70.656-70.656c0-40.448 35.328-73.216 75.776-73.216 37.888 0 68.096 32.768 68.096 70.656z" fill="#ffffff" p-id="2120" data-spm-anchor-id="a313x.7781069.0.i2" class="selected"></path></svg>