<svg t="1609823959686" class="icon" viewBox="0 0 1024 1024" version="1.1" xmlns="http://www.w3.org/2000/svg" p-id="4050" width="200" height="200"><path d="M512 116.492c-218.433 0-395.508 177.075-395.508 395.508s177.075 395.508 395.508 395.508 395.508-177.075 395.508-395.508-177.075-395.508-395.508-395.508zM512 876.609c-201.367 0-364.609-163.241-364.609-364.609s163.241-364.609 364.609-364.609 364.609 163.241 364.609 364.609-163.241 364.609-364.609 364.609z" fill="#cdcdcd" p-id="4051"></path><path d="M512 694.761c-103.67 0-187.713-84.041-187.713-187.713h-30.899c0 120.735 97.875 218.611 218.611 218.611s218.611-97.875 218.611-218.611h-30.899c0 103.67-84.041 187.713-187.713 187.713z" fill="#cdcdcd" p-id="4052"></path><path d="M293.389 507.049c0 8.533 6.916 15.449 15.449 15.449s15.449-6.916 15.449-15.449c0-8.533-6.916-15.449-15.449-15.449-8.533 0-15.449 6.916-15.449 15.449z" fill="#cdcdcd" p-id="4053"></path><path d="M699.713 507.049c0 8.533 6.916 15.449 15.449 15.449s15.449-6.916 15.449-15.449c0-8.533-6.916-15.449-15.449-15.449-8.533 0-15.449 6.916-15.449 15.449z" fill="#cdcdcd" p-id="4054"></path><path d="M324.287 381.838c0 19.199 15.563 34.762 34.762 34.762s34.762-15.563 34.762-34.762c0-19.199-15.563-34.762-34.762-34.762-19.199 0-34.762 15.563-34.762 34.762z" fill="#cdcdcd" p-id="4055"></path><path d="M630.189 381.838c0 19.199 15.563 34.762 34.762 34.762s34.762-15.563 34.762-34.762c0-19.199-15.563-34.762-34.762-34.762-19.199 0-34.762 15.563-34.762 34.762z" fill="#cdcdcd" p-id="4056"></path></svg>