<svg t="1609824218694" class="icon" viewBox="0 0 1024 1024" version="1.1" xmlns="http://www.w3.org/2000/svg" p-id="5137" width="200" height="200"><path d="M512 989.866667a477.866667 477.866667 0 1 1 477.866667-477.866667 477.866667 477.866667 0 0 1-477.866667 477.866667z m0-938.666667a460.8 460.8 0 1 0 460.8 460.8A460.8 460.8 0 0 0 512 51.2z" fill="#797D82" p-id="5138"></path><path d="M597.333333 827.733333a25.258667 25.258667 0 0 1-17.066666-42.666666 387.754667 387.754667 0 0 0 0-546.133334 25.088 25.088 0 0 1 35.498666-35.498666 437.589333 437.589333 0 0 1 0 616.448 24.917333 24.917333 0 0 1-18.432 7.850666z" fill="#797D82" p-id="5139"></path><path d="M471.381333 701.610667a25.770667 25.770667 0 0 1-17.066666-7.338667 25.088 25.088 0 0 1 0-35.669333 207.530667 207.530667 0 0 0 0-293.205334 25.088 25.088 0 0 1 35.498666-35.669333 257.536 257.536 0 0 1 0 364.544 25.258667 25.258667 0 0 1-18.432 7.338667zM318.293333 500.736l37.376-37.205333a15.701333 15.701333 0 0 1 24.234667 2.048 87.04 87.04 0 0 1 13.482667 46.421333 85.333333 85.333333 0 0 1-13.653334 46.421333 15.701333 15.701333 0 0 1-24.234666 2.048l-37.205334-37.205333a15.701333 15.701333 0 0 1 0-22.528z" fill="#797D82" p-id="5140"></path></svg>