<svg t="1608778804727" class="icon" viewBox="0 0 1024 1024" version="1.1" xmlns="http://www.w3.org/2000/svg" p-id="14141" width="200" height="200"><path d="M895.0016 1003.52H129.024A108.6464 108.6464 0 0 1 20.48 895.0016V129.024A108.64128 108.64128 0 0 1 129.024 20.48h766.0032A108.64128 108.64128 0 0 1 1003.52 129.024v766.0032A108.6464 108.6464 0 0 1 895.0016 1003.52zM129.024 84.31616a44.73856 44.73856 0 0 0-44.70784 44.70784v766.0032a44.73344 44.73344 0 0 0 44.68224 44.68224h766.0032a44.73344 44.73344 0 0 0 44.68224-44.68224V129.024a44.73344 44.73344 0 0 0-44.68224-44.68224H129.024z" fill="#074D9C" p-id="14142"></path><path d="M280.39168 804.4544H216.47872v-153.38496h63.91296v153.38496z m349.37856 0h-63.91296V344.29952H629.76v460.15488z m174.68416 0h-63.90784V216.47872h63.90784V804.4544z m-349.37344 0H391.168V484.90496h63.91296v319.54944z" fill="#F8B62D" p-id="14143"></path></svg>