<?xml version="1.0" encoding="utf-8"?>
<svg version="1.1" xmlns:xlink="http://www.w3.org/1999/xlink" width="361px" height="125px" xmlns="http://www.w3.org/2000/svg">
  <g transform="matrix(1 0 0 1 -455 -398 )">
    <path d="M 456 401  A 2 2 0 0 1 458 399 L 813 399  A 2 2 0 0 1 815 401 L 815 520  A 2 2 0 0 1 813 522 L 458 522  A 2 2 0 0 1 456 520 L 456 401  Z " fill-rule="nonzero" fill="#ffffff" stroke="none" />
    <path d="M 455.5 401  A 2.5 2.5 0 0 1 458 398.5 L 813 398.5  A 2.5 2.5 0 0 1 815.5 401 L 815.5 520  A 2.5 2.5 0 0 1 813 522.5 L 458 522.5  A 2.5 2.5 0 0 1 455.5 520 L 455.5 401  Z " stroke-width="1" stroke-dasharray="3,1" stroke="#555555" fill="none" stroke-dashoffset="0.5" />
  </g>
</svg>