<svg t="1600149475868" class="icon" viewBox="0 0 1331 1024" version="1.1" xmlns="http://www.w3.org/2000/svg" p-id="3495" width="200" height="200"><path d="M1065.152 539.2768c0 251.3536-203.1104 455.1168-453.6832 455.1168-250.56 0-453.6832-203.7632-453.6832-455.1168 0-251.3536 203.1232-455.104 453.6832-455.104 250.5728 0 453.6832 203.7504 453.6832 455.104" fill="#E3F0FF" p-id="3496"></path><path d="M129.3696 994.3808c-10.2272-5.4144-79.872-43.904-85.0304-90.4704a6.0288 6.0288 0 0 0-0.4736-1.7408c-9.3184-21.376-9.8176-41.9072-1.472-61.056 19.9936-45.9392 84.1472-71.1424 92.5696-74.2784h578.624c-74.6496 113.92-22.0288 193.6 3.0336 221.7088l-587.2512 5.8368z" fill="#FFFFFF" p-id="3497"></path><path d="M724.8896 760.8448h-590.976S-3.392 808.7552 38.4 904.576c5.9648 53.888 89.5488 95.8208 89.5488 95.8208l595.136-5.9136a3.1488 3.1488 0 0 0 2.24-5.3376c-20.6208-21.1712-87.5904-104.8448-0.4352-228.288z m-22.144 11.9808c-29.6832 48.96-39.68 96.9984-29.7216 143.0528a169.1392 169.1392 0 0 0 31.0144 66.8032l-573.2096 5.696a270.4 270.4 0 0 1-38.3232-25.344c-17.8176-14.2208-39.616-36.1472-42.24-59.7888a11.968 11.968 0 0 0-0.9344-3.4816c-8.7296-20.0192-9.216-38.4-1.4976-56.192 18.3552-42.24 77.1968-66.5216 88.2176-70.7456h566.6944z" fill="#5D99FE" p-id="3498"></path><path d="M727.872 775.808l-565.376-2.9824c-71.5264 0-112.1536 47.1552-112.1536 104.7936 0 57.6384 40.6272 104.7936 112.1536 104.7936h565.376v18.944a13.952 13.952 0 0 1-13.9264 13.9904h-565.12c-75.5072 0-137.2928-61.9776-137.2928-137.728s61.7856-137.728 137.3056-137.728h568.704c5.7088 0 10.3296 4.6336 10.3296 10.368v25.5616z" fill="#C5DDFF" p-id="3499"></path><path d="M148.8384 745.8816c-72.4224 0-131.328 59.0976-131.328 131.7376s58.9056 131.7376 131.328 131.7376h565.1072c4.3904 0 7.9616-3.584 7.9616-7.9872v-12.9664H162.496c-69.5424 0-118.1312-45.5552-118.1312-110.784 0-65.2288 48.5888-110.784 118.144-110.784l559.3984 2.9696v-19.5456a4.3776 4.3776 0 0 0-4.352-4.3776H148.8256z m565.1072 275.456h-565.12C69.8624 1021.3376 5.568 956.864 5.568 877.6192c0-79.232 64.2688-143.7184 143.2704-143.7184h568.704c8.9856 0 16.3072 7.3344 16.3072 16.3584v31.5776l-571.3792-3.0208c-63.488 0-106.1632 39.7056-106.1632 98.816 0 59.0848 42.6752 98.7904 106.1888 98.7904h571.3536v24.9472c0 11.008-8.9344 19.968-19.904 19.968z" fill="#5D99FE" p-id="3500"></path><path d="M145.856 847.68h537.2544v-11.9808H145.856zM145.856 919.5392h537.2544v-11.9808H145.856z" fill="#5D99FE" p-id="3501"></path><path d="M220.48 841.6896v104.7936l59.6864-30.8224 53.7216 30.8224v-104.7936z" fill="#48D2A2" p-id="3502"></path><path d="M226.4448 847.68v88.9856l53.8752-27.8144 47.6032 27.3152v-88.4864h-101.4784z m113.408 109.1328l-59.84-34.3296-65.5104 33.8176v-120.6016h125.3632v121.1136zM935.8336 155.392c-137.2672 0-250.6624 113.7536-250.6624 251.456 0 98.7904 53.7088 185.6 140.2496 227.4944v98.7904c0 30.4384 18.2528 55.3728 44.7616 64.7936v19.0208c0 23.9488 20.8896 44.9024 44.7616 44.9024h38.784c23.8848 0 44.7744-17.9584 44.7744-44.9024V797.952c26.624-9.408 45.4016-34.3552 47.744-64.8064v-98.7904c83.5584-41.9072 140.2496-131.712 140.2496-227.4944 0-137.7024-113.3952-251.456-250.6624-251.456" fill="#5D99FE" p-id="3503"></path><path d="M986.112 779.1744h-100.5696c-22.3488 0-40.9856-18.688-40.9856-41.1136v-52.3136h182.5408v52.3136c0 22.4256-18.624 41.1136-40.9856 41.1136m-26.2656 61.8368h-51.008c-11.7632 0-19.5968-11.8144-19.5968-19.6736V801.664h90.2144v19.6736c0 11.8016-11.776 19.6736-19.6096 19.6736" fill="#C5DDFF" p-id="3504"></path><path d="M1027.0976 618.8544v50.9056H951.616V552.064l63.424-104.9728a20.3776 20.3776 0 0 0 0-19.0848c-3.1744-6.3744-9.5232-9.5488-15.872-9.5488H869.1584c-6.3488 0-12.6848 3.1744-15.8592 9.5488a20.3008 20.3008 0 0 0 0 19.072l60.3776 99.9424a14.848 14.848 0 0 0-0.128 1.8688v120.8832h-68.9664v-51.8784c-85.632-34.9952-137.1648-116.7232-137.1648-208.9856 0-127.232 101.4784-229.0432 228.3264-229.0432 123.6864 0 228.3392 101.7984 231.5136 229.0432 0 92.2624-54.528 174.976-140.1472 209.9584" fill="#FFFFFF" p-id="3505"></path><path d="M935.232 494.8864l-46.7584-75.0336h93.504z" fill="#FFFFFF" p-id="3506"></path><path d="M1148.3136 184.768c-5.5424 0-8.32-2.7648-11.0848-5.5424-5.5296-5.5552-5.5296-16.6528 0-22.208l47.04-49.9712c5.5424-5.5552 16.6144-5.5552 22.144 0 5.5296 5.5552 5.5296 16.6528 0 22.208l-49.792 49.9712c0 2.7776-5.5552 5.5424-8.32 5.5424m-431.6928-2.7648c-5.5424 0-8.3072 0-11.072-2.7776l-49.8176-49.9712c-8.2944-5.5552-8.2944-16.6528-2.7648-22.208 8.3072-5.5552 16.6016-8.32 24.9088 0l49.8048 47.1936c5.5424 5.5552 8.32 16.6528 0 22.208-2.7648 5.5552-8.2944 5.5552-11.0592 5.5552M1314.3296 373.5424h-69.184c-8.2944 0-16.6016-8.32-16.6016-16.6528 0-8.32 8.3072-16.6656 16.6016-16.6656h69.184c8.2944 0 16.6016 8.3328 16.6016 16.6656 0 8.32-8.3072 16.64-16.6016 16.64M929.6896 109.824c-8.32 0-16.6144-8.32-16.6144-16.6656V23.7696c0-8.32 8.3072-16.6528 16.6144-16.6528 8.2944 0 16.6016 8.32 16.6016 16.64v69.4016c0 8.3328-8.3072 16.6656-16.6016 16.6656M608.6656 373.5424H539.4944c-8.3072 0-16.6016-8.32-16.6016-16.6528 0-8.32 8.2944-16.6656 16.6016-16.6656h69.184c8.2944 0 16.6016 8.3328 16.6016 16.6656 0 8.32-8.3072 16.64-16.6016 16.64" fill="#5D99FE" p-id="3507"></path><path d="M523.6864 274.1376L298.0736 642.6112l-85.4272-52.6336L438.272 221.504a14.208 14.208 0 0 1 19.5072-4.672l61.2608 37.7472c6.656 4.096 8.7424 12.8896 4.6592 19.5584" fill="#C5DDFF" p-id="3508"></path><path d="M220.864 588.0064l75.2512 46.3616 222.4896-363.3664a8.192 8.192 0 0 0 0.9728-6.2208 8.1792 8.1792 0 0 0-3.6736-5.0944l-61.2608-37.76a8.2048 8.2048 0 0 0-11.2896 2.7136L220.864 588.0064z m77.2096 60.5952a5.9392 5.9392 0 0 1-3.1232-0.896l-85.4272-52.6208a6.016 6.016 0 0 1-1.9712-8.2432L433.1776 218.368a20.1472 20.1472 0 0 1 27.712-6.6432l61.2608 37.76c4.5696 2.816 7.7824 7.2576 9.0368 12.5184 1.2544 5.248 0.384 10.688-2.4064 15.2704L303.168 645.7472a5.9648 5.9648 0 0 1-5.0944 2.8544z" fill="#5D99FE" p-id="3509"></path><path d="M491.712 326.3744l-85.4272-52.6464 6.2464-10.2016 85.4272 52.6336z" fill="#5D99FE" p-id="3510"></path><path d="M211.5072 699.9168l1.1392-109.9392 85.4272 52.6336z" fill="#FFFFFF" p-id="3511"></path><path d="M218.5088 600.6144l-0.896 88.1024 69.3504-45.9264-68.4544-42.176z m-7.0016 105.2928a5.9648 5.9648 0 0 1-5.9648-6.0544l1.152-109.952a5.9904 5.9904 0 0 1 9.088-5.0304l85.4272 52.6336a6.0032 6.0032 0 0 1 0.1536 10.112l-86.5664 57.2928a5.9392 5.9392 0 0 1-3.2896 0.9984z" fill="#5D99FE" p-id="3512"></path><path d="M523.6864 274.1376L298.0736 642.6112l-42.7136-26.3168L480.9856 247.808a14.1952 14.1952 0 0 1 19.4816-4.672l18.56 11.4304c6.656 4.096 8.7424 12.8896 4.6592 19.5584" fill="#A9D4FF" p-id="3513"></path><path d="M263.5648 614.3232l32.5504 20.0448 222.4896-363.3664a8.2048 8.2048 0 0 0 0.9728-6.2208 8.192 8.192 0 0 0-3.6736-5.0944l-18.56-11.4432a8.2176 8.2176 0 0 0-11.2768 2.7136L263.552 614.3232z m34.5088 34.2784a5.9776 5.9776 0 0 1-3.1232-0.896l-42.7136-26.3168a6.0032 6.0032 0 0 1-1.9712-8.2304L475.904 244.6848a20.1472 20.1472 0 0 1 27.712-6.6432l18.56 11.4432c4.5568 2.8032 7.7696 7.2576 9.024 12.5184 1.2544 5.248 0.384 10.6752-2.4064 15.2704L303.168 645.7472a5.9776 5.9776 0 0 1-5.0944 2.8544z" fill="#5D99FE" p-id="3514"></path><path d="M523.6864 274.1376l-32.128 52.48-85.4272-52.6208 32.128-52.4928a14.208 14.208 0 0 1 19.5072-4.672l61.2608 37.7472c6.656 4.096 8.7424 12.8896 4.6592 19.5584" fill="#FFFFFF" p-id="3515"></path><path d="M414.336 272.0256l75.2512 46.3616 29.0176-47.3856a8.2048 8.2048 0 0 0 0.9728-6.208 8.1664 8.1664 0 0 0-3.6736-5.12l-61.2608-37.7472a8.2176 8.2176 0 0 0-11.2896 2.7136l-29.0176 47.3856z m77.2224 60.5824a5.9392 5.9392 0 0 1-3.1232-0.8832l-85.4272-52.6336a6.016 6.016 0 0 1-1.9712-8.2432l32.128-52.48a20.1472 20.1472 0 0 1 27.7248-6.6432l61.2736 37.76c4.5568 2.816 7.7696 7.2576 9.024 12.5184 1.2544 5.248 0.384 10.688-2.4064 15.2704l-32.128 52.48a6.0032 6.0032 0 0 1-5.0944 2.8544z" fill="#5D99FE" p-id="3516"></path><path d="M784.6912 881.088h305.2544a38.5152 38.5152 0 0 1 38.336 38.4512 38.5152 38.5152 0 0 1-38.336 38.4512H784.6912a38.5152 38.5152 0 0 1-38.336-38.4512 38.5152 38.5152 0 0 1 38.336-38.4512M46.848 145.2544h305.2416a38.5152 38.5152 0 0 1 38.336 38.464 38.5024 38.5024 0 0 1-38.336 38.4512H46.8352a38.5024 38.5024 0 0 1-38.336-38.4512 38.5152 38.5152 0 0 1 38.336-38.464M111.3216 314.3424h95.4752a33.28 33.28 0 0 1 33.1264 33.2288 33.28 33.28 0 0 1-33.1264 33.2288h-95.488a33.28 33.28 0 0 1-33.1136-33.2288 33.28 33.28 0 0 1 33.1264-33.2288" fill="#E3F0FF" p-id="3517"></path></svg>