<svg t="1606383277359" class="icon" viewBox="0 0 1024 1024" version="1.1" xmlns="http://www.w3.org/2000/svg" p-id="3437" width="200" height="200"><path d="M512 512m-512 0a512 512 0 1 0 1024 0 512 512 0 1 0-1024 0Z" fill="#09D0BB" p-id="3438"></path><path d="M337.92 325.632c-36.352 0-65.024 29.696-65.024 65.536S302.08 456.704 337.92 456.704s65.024-29.696 65.024-65.536c0-36.352-28.672-65.536-65.024-65.536z m98.304 227.84L381.952 499.2l-109.056 109.056v65.536h222.72c-6.656-17.408-10.24-35.328-10.24-54.784 0-93.184 83.968-169.472 189.44-174.08L609.28 379.904l-173.056 173.568z m0 0" fill="#FFFFFF" p-id="3439"></path><path d="M520.704 717.312H240.128c-6.144 0-10.752-4.608-10.752-10.752V292.864c0-6.144 4.608-10.752 10.752-10.752v0.512h544.256c6.144 0 10.752 4.608 10.752 10.752v179.712c16.384 9.216 30.72 20.48 43.52 33.28V293.376c0-29.696-24.064-54.272-54.272-54.272H239.616c-29.696 0-54.272 24.064-54.272 54.272V706.56c0 29.696 24.064 54.272 54.272 54.272h328.192c-11.264-8.704-20.48-15.36-25.088-19.456-8.192-7.68-15.36-15.36-22.016-24.064z m0 0" fill="#FFFFFF" p-id="3440"></path><path d="M798.72 523.264a164.352 164.352 0 0 0-33.28-25.6c-24.064-13.312-52.736-21.504-83.456-21.504h-8.192c-81.408 3.584-145.92 62.464-145.92 134.144 0 14.848 2.56 28.672 7.68 41.984 4.608 11.776 10.752 23.04 18.944 33.28 5.12 6.656 10.752 12.8 17.408 18.432 3.584 3.072 10.24 8.192 19.456 14.848 32.768 24.576 90.624 65.024 90.624 65.024v-39.936c84.992 0 154.112-59.904 154.112-134.144 0-32.768-13.824-63.488-37.376-86.528z m-38.912 68.096c2.048 0 3.584 0.512 5.632 0.512 8.704 2.56 14.848 10.24 14.848 18.944 0 9.216-6.144 16.896-14.848 18.944-2.048 0.512-3.584 0.512-5.632 0.512-11.264 0-20.48-8.704-20.48-19.968 0-10.24 9.216-18.944 20.48-18.944z m-77.312 0c11.264 0 20.48 8.704 20.48 19.968 0 10.752-9.216 19.968-20.48 19.968s-20.48-8.704-20.48-19.968 9.216-19.968 20.48-19.968z m-76.288 0c11.264 0 20.48 8.704 20.48 19.968 0 10.752-9.216 19.968-20.48 19.968s-20.48-8.704-20.48-19.968c-0.512-11.264 8.704-19.968 20.48-19.968z m0 0" fill="#FFFFFF" p-id="3441"></path></svg>