<?xml version="1.0" encoding="utf-8"?>
<svg version="1.1" xmlns:xlink="http://www.w3.org/1999/xlink" width="278px" height="97px" xmlns="http://www.w3.org/2000/svg">
  <g transform="matrix(1 0 0 1 -333 -513 )">
    <path d="M 334 516  A 2 2 0 0 1 336 514 L 608 514  A 2 2 0 0 1 610 516 L 610 607  A 2 2 0 0 1 608 609 L 336 609  A 2 2 0 0 1 334 607 L 334 516  Z " fill-rule="nonzero" fill="#ffffff" stroke="none" />
    <path d="M 333.5 516  A 2.5 2.5 0 0 1 336 513.5 L 608 513.5  A 2.5 2.5 0 0 1 610.5 516 L 610.5 607  A 2.5 2.5 0 0 1 608 609.5 L 336 609.5  A 2.5 2.5 0 0 1 333.5 607 L 333.5 516  Z " stroke-width="1" stroke-dasharray="3,1" stroke="#797979" fill="none" stroke-dashoffset="0.5" />
  </g>
</svg>