<?xml version="1.0" encoding="utf-8"?>
<svg version="1.1" xmlns:xlink="http://www.w3.org/1999/xlink" width="167px" height="28px" xmlns="http://www.w3.org/2000/svg">
  <g transform="matrix(1 0 0 1 -52 -773 )">
    <path d="M 53 776  A 2 2 0 0 1 55 774 L 216 774  A 2 2 0 0 1 218 776 L 218 798  A 2 2 0 0 1 216 800 L 55 800  A 2 2 0 0 1 53 798 L 53 776  Z " fill-rule="nonzero" fill="#ffffff" stroke="none" />
    <path d="M 52.5 776  A 2.5 2.5 0 0 1 55 773.5 L 216 773.5  A 2.5 2.5 0 0 1 218.5 776 L 218.5 798  A 2.5 2.5 0 0 1 216 800.5 L 55 800.5  A 2.5 2.5 0 0 1 52.5 798 L 52.5 776  Z " stroke-width="1" stroke="#4b92e3" fill="none" stroke-opacity="0.619607843137255" />
  </g>
</svg>