<?xml version="1.0" encoding="utf-8"?>
<svg version="1.1" xmlns:xlink="http://www.w3.org/1999/xlink" width="12px" height="12px" viewBox="65 509  12 12" xmlns="http://www.w3.org/2000/svg">
  <path d="M 71 509  C 74.36 509  77 511.64  77 515  C 77 518.36  74.36 521  71 521  C 67.64 521  65 518.36  65 515  C 65 511.64  67.64 509  71 509  Z " fill-rule="nonzero" fill="#ffffff" stroke="none" />
  <path d="M 71 509.5  C 74.08 509.5  76.5 511.92  76.5 515  C 76.5 518.08  74.08 520.5  71 520.5  C 67.92 520.5  65.5 518.08  65.5 515  C 65.5 511.92  67.92 509.5  71 509.5  Z " stroke-width="1" stroke="#797979" fill="none" />
  <path d="M 71 518  C 69.32 518  68 516.68  68 515  C 68 513.32  69.32 512  71 512  C 72.68 512  74 513.32  74 515  C 74 516.68  72.68 518  71 518  " fill-rule="nonzero" fill="#797979" stroke="none" />
</svg>