<?xml version="1.0" encoding="utf-8"?>
<svg version="1.1" xmlns:xlink="http://www.w3.org/1999/xlink" width="12px" height="12px" viewBox="709 523  12 12" xmlns="http://www.w3.org/2000/svg">
  <path d="M 715 523  C 718.36 523  721 525.64  721 529  C 721 532.36  718.36 535  715 535  C 711.64 535  709 532.36  709 529  C 709 525.64  711.64 523  715 523  Z " fill-rule="nonzero" fill="#ffffff" stroke="none" />
  <path d="M 715 523.5  C 718.08 523.5  720.5 525.92  720.5 529  C 720.5 532.08  718.08 534.5  715 534.5  C 711.92 534.5  709.5 532.08  709.5 529  C 709.5 525.92  711.92 523.5  715 523.5  Z " stroke-width="1" stroke="#797979" fill="none" />
  <path d="M 715 532  C 713.32 532  712 530.68  712 529  C 712 527.32  713.32 526  715 526  C 716.68 526  718 527.32  718 529  C 718 530.68  716.68 532  715 532  " fill-rule="nonzero" fill="#797979" stroke="none" />
</svg>