<?xml version="1.0" encoding="utf-8"?>
<svg version="1.1" xmlns:xlink="http://www.w3.org/1999/xlink" width="12px" height="12px" viewBox="1362 517  12 12" xmlns="http://www.w3.org/2000/svg">
  <path d="M 1368 517  C 1371.36 517  1374 519.64  1374 523  C 1374 526.36  1371.36 529  1368 529  C 1364.64 529  1362 526.36  1362 523  C 1362 519.64  1364.64 517  1368 517  Z " fill-rule="nonzero" fill="#ffffff" stroke="none" />
  <path d="M 1368 517.5  C 1371.08 517.5  1373.5 519.92  1373.5 523  C 1373.5 526.08  1371.08 528.5  1368 528.5  C 1364.92 528.5  1362.5 526.08  1362.5 523  C 1362.5 519.92  1364.92 517.5  1368 517.5  Z " stroke-width="1" stroke="#797979" fill="none" />
  <path d="M 1368 526  C 1366.32 526  1365 524.68  1365 523  C 1365 521.32  1366.32 520  1368 520  C 1369.68 520  1371 521.32  1371 523  C 1371 524.68  1369.68 526  1368 526  " fill-rule="nonzero" fill="#797979" stroke="none" />
</svg>