<svg t="1609997685980" class="icon" viewBox="0 0 1024 1024" version="1.1" xmlns="http://www.w3.org/2000/svg" p-id="2701" width="200" height="200"><path d="M0 0h1024v1024H0z" fill="#D8D8D8" fill-opacity="0" p-id="2702"></path><path d="M684.259556 142.222222c120.462222 0 218.424889 89.031111 218.424888 199.139556 0 34.218667-10.069333 67.697778-28.216888 97.848889-27.448889 44.088889-71.395556 76.743111-124.529778 92.273777a124.330667 124.330667 0 0 1-34.816 5.688889 40.675556 40.675556 0 0 1-41.415111-40.789333c0-22.926222 18.261333-40.732444 41.415111-40.732444 1.621333 0 5.034667 0 9.187555-1.564445 35.697778-9.870222 63.886222-30.179556 79.644445-57.201778 10.752-17.066667 15.786667-35.982222 15.786666-55.523555 0-64.568889-60.643556-117.475556-134.599111-117.475556a152.348444 152.348444 0 0 0-72.96 18.716445c-39.139556 21.987556-62.293333 58.680889-62.293333 98.759111v341.959111c0 69.319111-39.111111 133.034667-103.907556 168.96a231.708444 231.708444 0 0 1-113.777777 29.496889C211.797333 881.777778 113.777778 792.689778 113.777778 682.581333c0-34.133333 10.097778-67.697778 28.188444-97.848889 27.477333-44.088889 71.452444-76.714667 124.558222-92.188444 14.876444-4.096 24.945778-5.688889 34.816-5.688889 23.324444 0 41.443556 18.005333 41.443556 40.732445a40.675556 40.675556 0 0 1-41.415111 40.760888c-1.678222 0-5.063111 0-9.159111 1.592889-35.754667 10.581333-63.914667 31.061333-79.672889 57.144889a102.627556 102.627556 0 0 0-15.786667 55.552c0 64.568889 60.643556 117.447111 135.281778 117.447111 25.543111 0 50.631111-6.428444 73.016889-18.688 39.111111-22.044444 62.293333-58.709333 62.293333-98.759111V341.504c0-69.319111 39.082667-132.949333 103.879111-168.96A218.424889 218.424889 0 0 1 684.259556 142.222222z" fill="#1872FF" p-id="2703"></path></svg>