<?xml version="1.0" encoding="utf-8"?>
<svg version="1.1" xmlns:xlink="http://www.w3.org/1999/xlink" width="20px" height="20px" xmlns="http://www.w3.org/2000/svg">
  <g transform="matrix(1 0 0 1 -1912 -158 )">
    <path d="M 1922 159  C 1927.04 159  1931 162.96  1931 168  C 1931 173.04  1927.04 177  1922 177  C 1916.96 177  1913 173.04  1913 168  C 1913 162.96  1916.96 159  1922 159  Z " fill-rule="nonzero" fill="#ffffff" stroke="none" />
    <path d="M 1922 159  C 1927.04 159  1931 162.96  1931 168  C 1931 173.04  1927.04 177  1922 177  C 1916.96 177  1913 173.04  1913 168  C 1913 162.96  1916.96 159  1922 159  Z " stroke-width="2" stroke="#797979" fill="none" />
  </g>
</svg>