<?xml version="1.0" encoding="utf-8"?>
<svg version="1.1" xmlns:xlink="http://www.w3.org/1999/xlink" width="115px" height="28px" xmlns="http://www.w3.org/2000/svg">
  <defs>
    <linearGradient gradientUnits="userSpaceOnUse" x1="166.452842709127" y1="528.316958999604" x2="176.547157290873" y2="569.683041000396" id="LinearGradient501">
      <stop id="Stop502" stop-color="#409eff" offset="0" />
      <stop id="Stop503" stop-color="#409eff" offset="0.5" />
      <stop id="Stop504" stop-color="#0066ff" offset="1" />
    </linearGradient>
  </defs>
  <g transform="matrix(1 0 0 1 -114 -535 )">
    <path d="M 114.5 538  A 2.5 2.5 0 0 1 117 535.5 L 226 535.5  A 2.5 2.5 0 0 1 228.5 538 L 228.5 560  A 2.5 2.5 0 0 1 226 562.5 L 117 562.5  A 2.5 2.5 0 0 1 114.5 560 L 114.5 538  Z " fill-rule="nonzero" fill="#ffffff" stroke="none" />
    <path d="M 114.5 538  A 2.5 2.5 0 0 1 117 535.5 L 226 535.5  A 2.5 2.5 0 0 1 228.5 538 L 228.5 560  A 2.5 2.5 0 0 1 226 562.5 L 117 562.5  A 2.5 2.5 0 0 1 114.5 560 L 114.5 538  Z " stroke-width="1" stroke="url(#LinearGradient501)" fill="none" />
  </g>
</svg>