<svg t="1609934179283" class="icon" viewBox="0 0 1024 1024" version="1.1" xmlns="http://www.w3.org/2000/svg" p-id="2140" width="200" height="200"><path d="M111.196 898.911c-17.682 0-32.012-14.336-32.012-32.012-0.089-3.078-2.004-14.629-3.543-23.929-11.332-68.556-34.926-211.219 43.938-286.971 44.574-42.805 112.58-55.108 202.283-36.539 74.372 15.388 163.044-26.991 189.711-73.706 12.347-21.64 5.595-33.574-1.661-41.56-68.571-75.435-90.437-164.559-66.866-272.456 3.768-17.28 20.895-28.176 38.107-24.447 17.269 3.778 28.215 20.836 24.447 38.107-19.102 87.384-2.675 155.93 51.673 215.737 29.793 32.762 33.404 75.164 9.897 116.353-38.955 68.286-152.011 126.662-258.282 104.669-67.728-14.012-116.525-7.284-144.951 20.014-54.559 52.404-33.933 177.105-25.123 230.356 2.733 16.57 4.39 26.575 4.39 34.375 0.005 17.673-14.331 32.009-32.008 32.009z m0 0" fill="#d81e06" p-id="2141"></path><path d="M227.859 906.832c-15.894 0-29.666-11.831-31.713-28.009-11.534-91.548 0.533-204.555 72.524-221.689 36.485-8.75 54.284 23.307 68.512 49.053 17.534 31.742 41.561 75.243 101.847 106.486 72.26 37.421 267.268 30.278 382.464-117.039 54.476-69.683 82.157-159.302 72.216-233.859-6.408-48.146-28.013-87.233-62.475-113.008-45.407-33.972-116.09-24.232-149.62-4.14-12.925 7.736-29.43 5.453-39.748-5.477-60.503-64.102-81.981-140.209-58.925-208.793 5.625-16.741 23.727-25.786 40.547-20.142 16.756 5.624 25.776 23.781 20.132 40.536-13.38 39.837-2.503 85.205 29.852 127.015 52.957-20.587 134.971-25.996 196.119 19.734 48.547 36.334 78.839 90.211 87.575 155.819 12.318 92.396-19.553 197.721-85.247 281.749-128.966 164.95-356.205 189.49-462.34 134.442-77.492-40.155-109.381-97.878-128.435-132.38-1.969-3.533-4.125-7.453-6.173-10.969-13.63 18.568-24.355 72.838-15.3 144.657 2.2 17.539-10.224 33.559-27.76 35.764a30.98 30.98 0 0 1-4.052 0.25z m0 0" fill="#d81e06" p-id="2142"></path><path d="M579.58 754.263l-6.937-79.717c74.402-6.467 129.015-45.122 153.804-108.858l74.587 29.009C765.132 686.99 684.416 745.15 579.58 754.263z m0 0" fill="#d81e06" p-id="2143"></path></svg>