<svg t="1609934410641" class="icon" viewBox="0 0 1024 1024" version="1.1" xmlns="http://www.w3.org/2000/svg" p-id="6053" width="200" height="200"><path d="M671.5 130.6l-1.7 3.2L534.1 400h179.6l98.6-193.5c19.5-38.3 5.2-84.9-31.7-105.9l-3.2-1.7c-38.3-19.6-84.9-5.3-105.9 31.7zM919.3 448H88.7l0.2 3.1C99 607.6 196.4 744.3 338.9 806l6.2 2.6c9 3.7 14.8 12.5 14.8 22.2V888c0 13.3 10.7 24 24 24h240c13.3 0 24-10.7 24-24v-57.2c0-9.7 5.9-18.5 14.8-22.2C809 748.2 908.9 609.8 919.1 451l0.2-3zM799.2 56.1c61.8 31.5 87 106.2 57.8 168.4l-1.8 3.7L767.6 400H944c12.5 0 22.7 9.5 23.9 21.7l0.1 2.3c0 182.6-106.5 345.6-268.4 420.9l-3.6 1.6V888c0 38.6-30.4 70.2-68.6 71.9l-3.4 0.1H384c-39.8 0-72-32.2-72-72v-41.5l-3.8-1.7c-157.4-73.3-262.6-229.7-268-406.7l-0.2-6.9-0.1-7c0-13.3 10.8-24.2 24.1-24.2h416.3L627 112c32.1-63 109.2-88 172.2-55.9z" fill="#13227a" p-id="6054"></path><path d="M226.8 537.3c11.9-5.8 26.3-0.9 32.1 11 23.1 47 59.9 86.3 105.2 112.5 11.5 6.6 15.4 21.3 8.8 32.8-6.6 11.5-21.3 15.4-32.8 8.8-53.6-31-97-77.3-124.3-132.9-5.8-12-0.9-26.4 11-32.2z" fill="#13227a" p-id="6055"></path></svg>