<svg t="1609934217170" class="icon" viewBox="0 0 1024 1024" version="1.1" xmlns="http://www.w3.org/2000/svg" p-id="3071" width="200" height="200"><path d="M266.815 960.548c-88.295 0-160.129-71.826-160.129-160.129 0-88.299 71.834-160.128 160.129-160.128 88.304 0 160.128 71.829 160.128 160.128 0 88.303-71.824 160.129-160.128 160.129z m0-249.957c-49.532 0-89.828 40.297-89.828 89.828s40.296 89.833 89.828 89.833c49.531 0 89.826-40.302 89.826-89.833s-40.295-89.828-89.826-89.828z m0 0" fill="#13227a" p-id="3072"></path><path d="M331.585 710.318a34.967 34.967 0 0 1-20.903-6.917c-15.602-11.57-18.865-33.59-7.294-49.173L730.672 78.434c11.571-15.573 33.605-18.87 49.173-7.275 15.603 11.565 18.86 33.575 7.295 49.168l-427.284 575.78c-6.903 9.302-17.508 14.211-28.271 14.211z m390.216 250.23c-88.304 0-160.128-71.826-160.128-160.129 0-88.299 71.824-160.128 160.128-160.128 88.299 0 160.129 71.829 160.129 160.128 0 88.303-71.83 160.129-160.129 160.129z m0-249.957c-49.531 0-89.833 40.297-89.833 89.828s40.302 89.833 89.833 89.833 89.828-40.302 89.828-89.833-40.297-89.828-89.828-89.828z m0 0" fill="#13227a" p-id="3073"></path><path d="M657.026 710.318c-10.757 0-21.363-4.908-28.265-14.211L201.476 120.328c-11.571-15.593-8.308-37.603 7.294-49.173 15.583-11.59 37.622-8.298 49.173 7.28l427.285 575.793c11.566 15.583 8.303 37.603-7.294 49.173a34.98 34.98 0 0 1-20.908 6.917z m0 0" fill="#13227a" p-id="3074"></path><path d="M874.684 641.681c-48.654-64.335-123.844-69.86-178.283-63.115L685.62 491.36c109.48-13.574 201.473 21.06 259.161 97.298l-70.097 53.023z m0 0" fill="#13227a" p-id="3075"></path></svg>