<svg t="1609934256251" class="icon" viewBox="0 0 1024 1024" version="1.1" xmlns="http://www.w3.org/2000/svg" p-id="3827" width="200" height="200"><path d="M768.711111 206.961778c-4.010667 44.657778-20.593778 90.453333-36.579555 134.712889-20.764444 57.486222-40.305778 111.900444-28.871112 155.619555 6.940444 23.068444 15.729778 45.624889 26.225778 67.242667 29.980444 66.958222 61.240889 136.248889 1.024 229.944889a16.583111 16.583111 0 0 0 0 17.493333h30.492445c69.376-108.714667 33.080889-189.781333 0.967111-261.290667a424.106667 424.106667 0 0 1-23.751111-62.179555c-8.732444-33.848889 8.704-83.342222 28.017777-135.822222 16.725333-45.937778 33.991111-93.781333 38.513778-142.734223a16.270222 16.270222 0 0 0-2.389333-10.069333h-31.431111a19.683556 19.683556 0 0 0-2.218667 7.111111zM384.284444 806.428444c2.048-11.377778 4.010667-22.727111 6.172445-34.161777l0.426667-2.56a17.521778 17.521778 0 0 0-8.732445-18.119111 253.866667 253.866667 0 0 1-77.112889-68.067556 218.453333 218.453333 0 0 1-42.467555-124.188444 265.955556 265.955556 0 0 1 35.868444-136.334223 379.306667 379.306667 0 0 1 89.031111-104.96 17.436444 17.436444 0 1 0-5.973333-30.151111 76.999111 76.999111 0 0 1-17.521778-7.879111 51.029333 51.029333 0 0 1-19.228444-20.935111 39.964444 39.964444 0 0 1-2.304-28.103111c1.536-4.778667 3.669333-9.386667 6.314666-13.653333a17.351111 17.351111 0 0 0 0-17.521778H318.577778a98.417778 98.417778 0 0 0-9.557334 22.471111 75.662222 75.662222 0 0 0 4.437334 52.451555 86.755556 86.755556 0 0 0 31.345778 34.986667 402.062222 402.062222 0 0 0-76.885334 96.199111 300.430222 300.430222 0 0 0-40.305778 154.168889 253.724444 253.724444 0 0 0 49.550223 144.213333 288.142222 288.142222 0 0 0 77.112889 70.968889l-4.181334 24.945778a17.265778 17.265778 0 0 0 2.048 11.776h30.151111a18.773333 18.773333 0 0 0 2.048-5.546667z" fill="#d4237a" p-id="3828"></path><path d="M453.063111 539.790222c-6.001778 2.958222-11.064889 7.338667-14.592 12.8a127.744 127.744 0 0 0-18.346667-19.285333c-8.448-7.879111-8.931556-7.68 0-11.150222 11.747556-5.262222 23.04-11.52 33.763556-18.517334a23.409778 23.409778 0 0 0 9.500444-28.16 319.601778 319.601778 0 0 0-13.511111-44.885333c-2.844444-7.793778-3.640889-8.675556 0.824889-11.178667 4.465778-2.616889 15.160889-8.647111 20.565334-12.515555 5.404444-3.811556 5.290667-7.310222-3.640889-8.419556a133.262222 133.262222 0 0 0-36.096 2.645334c-9.642667 2.076444-9.984 5.034667-11.036445 17.408a311.466667 311.466667 0 0 0-1.194666 40.647111c0 12.231111 0 16.753778-14.933334 18.289777a204.600889 204.600889 0 0 0-55.608889 12.913778c-53.731556 22.471111-39.509333 88.376889-6.826666 129.024a185.856 185.856 0 0 0 76.544 56.064c40.334222 13.255111 50.688-13.795556 74.808889 5.262222a122.311111 122.311111 0 0 0 38.058666 26.510223c19.911111 6.343111 41.528889 4.835556 60.216889-4.067556a65.763556 65.763556 0 0 0 32.426667-44.885333c9.102222-38.997333-17.493333-77.340444-59.363556-85.76a147.968 147.968 0 0 0-65.706666 0.967111c-31.744 8.334222-24.120889 18.858667-23.182223 34.304 0.597333 7.111111-1.621333 10.183111-4.465777 11.150222-5.859556 1.109333-11.150222-12.231111-13.994667-21.674667a9.102222 9.102222 0 0 1 0-5.575111c1.080889-8.248889 5.404444-24.860444 9.301333-26.737777 3.868444-1.763556 25.884444-3.413333 48.213334-6.798223 8.704-0.540444 16.696889-4.579556 21.731555-11.150222a8.817778 8.817778 0 0 0-9.955555-13.937778 19.000889 19.000889 0 0 1-11.434667 3.072c-3.185778 0-3.185778 3.527111-8.817778 3.640889a411.022222 411.022222 0 0 0-53.248 0z" fill="#d4237a" p-id="3829"></path></svg>