<?xml version="1.0" encoding="utf-8"?>
<svg version="1.1" xmlns:xlink="http://www.w3.org/1999/xlink" width="10px" height="10px" xmlns="http://www.w3.org/2000/svg">
  <g transform="matrix(1 0 0 1 -210 -285 )">
    <path d="M 215 285  C 217.8 285  220 287.2  220 290  C 220 292.8  217.8 295  215 295  C 212.2 295  210 292.8  210 290  C 210 287.2  212.2 285  215 285  Z " fill-rule="nonzero" fill="#7f7f7f" stroke="none" />
    <path d="M 215 285.5  C 217.52 285.5  219.5 287.48  219.5 290  C 219.5 292.52  217.52 294.5  215 294.5  C 212.48 294.5  210.5 292.52  210.5 290  C 210.5 287.48  212.48 285.5  215 285.5  Z " stroke-width="1" stroke="#7f7f7f" fill="none" />
  </g>
</svg>