<svg t="1609826540760" class="icon" viewBox="0 0 1044 1024" version="1.1" xmlns="http://www.w3.org/2000/svg" p-id="6714" width="200" height="200"><path d="M921.55678 140.600109h-798.948447A105.25868 105.25868 0 0 0 17.46079 245.735303v546.668435a105.246331 105.246331 0 0 0 105.122846 105.122846h798.948447a105.246331 105.246331 0 0 0 105.122846-105.122846V245.735303a105.246331 105.246331 0 0 0-105.122846-105.135194z m-798.948447 42.046668h798.948447a63.13792 63.13792 0 0 1 62.977389 63.088526v540.222514L812.840519 614.115984a105.233983 105.233983 0 0 0-148.676033 0l-96.849346 96.861695-244.055906-244.031209a105.221634 105.221634 0 0 0-148.651335 0l-115.088092 115.063394V245.735303a63.150268 63.150268 0 0 1 63.076177-63.088526zM59.519807 792.39139V641.480277l144.81095-144.798601a63.162617 63.162617 0 0 1 89.193271 0l358.810588 358.785891h-529.75098a63.13792 63.13792 0 0 1-63.063829-63.076177z m862.049322 63.063829H711.805029l-114.754682-114.742334 96.849345-96.861694a63.150268 63.150268 0 0 1 89.217969 0l187.771407 187.771408a62.977389 62.977389 0 0 1-49.319939 23.83262z m0 0" fill="#13227a" p-id="6715"></path><path d="M774.560145 457.26524a105.122846 105.122846 0 1 0-105.098149-105.122846 105.122846 105.122846 0 0 0 105.098149 105.122846z m0-168.199024a63.076177 63.076177 0 1 1-63.076178 63.063829 63.063829 63.063829 0 0 1 63.076178-63.063829z m0 0" fill="#13227a" p-id="6716"></path></svg>