<svg t="1609841054741" class="icon" viewBox="0 0 1024 1024" version="1.1" xmlns="http://www.w3.org/2000/svg" p-id="2245" data-spm-anchor-id="a313x.7781069.0.i2" width="200" height="200"><path d="M685.44 435.328c-0.128-0.512-0.256-1.152-0.384-1.664l-2.816-4.096-0.256-0.256-0.384-0.256c-0.64-0.256-1.408-0.384-2.048-0.512l-1.536-0.256c-1.28-0.128-2.56-0.256-3.84-0.256-3.584-0.128-7.168-0.256-10.624-0.256-8.448-0.128-16.896-0.128-25.216-0.128l-0.64 3.584h8.704c5.888 0.128 12.672 0.512 18.688 4.608 17.152 11.648 11.008 33.792 6.784 48.384l-0.896 3.072c-5.376 19.712-11.904 39.168-17.152 54.272h0.128l-2.944 8.064c-0.384 1.024-0.64 2.048-0.768 2.944l-0.384 2.176c-0.128 1.408-0.256 2.56-0.128 3.712l-0.256 0.128 0.256 1.28c0.384 1.664 0.512 2.304 0.768 2.816l2.304 3.2 3.584 2.048c1.152 0.512 2.304 0.768 3.328 1.024l2.048 0.512c0.896 0.128 1.664 0.128 2.56 0.128l2.304-0.384 0.64-0.384 0.512-0.384 0.128-0.128 0.896-0.896 1.408-1.92 0.384-0.768 1.536-3.584c0.768-2.176 1.28-4.608 1.792-7.04l0.64-3.2c0-0.384 0.128-1.024 0.128-1.536 0.256-2.816 0.512-5.504 0.64-8.064l0.256-3.712c0.896-11.904 1.792-23.936 3.072-35.968 1.152-11.392 2.944-22.656 4.608-34.048l2.048-13.952 0.128-1.664c-0.896 6.4 0.256-2.688 0 0l0.256-2.688c0.128-2.432 0.256-4.864 0.256-7.296 0-1.92-0.128-3.84-0.384-5.888l-0.128-0.768z" fill="#060203" p-id="2246"></path><path d="M512 128c-212.096 0-384 171.904-384 384s171.904 384 384 384 384-171.904 384-384-171.904-384-384-384z m196.224 342.4c-3.968 22.784-5.76 46.08-7.424 68.48l-0.384 5.76c-0.768 10.496-2.176 22.144-7.424 32l-3.2 4.992c-0.896 1.152-1.792 2.176-2.688 3.328-5.888 6.272-14.208 9.728-23.552 9.728-2.688 0-5.504-0.256-8.32-0.896-12.928-2.56-22.912-9.856-27.392-20.096-3.456-7.808-4.096-16.64-2.048-26.496 0.384-2.176 1.024-4.352 1.792-6.528l1.408-4.096 3.072-9.216c4.096-12.16 8.192-24.448 11.904-36.864 2.304-7.68 4.608-15.872 6.4-24.192l0.384-2.304v-0.64c0.128-1.536 0.256-3.072 0.256-4.608v-0.384l-0.128-0.256-1.92-1.536h-0.512c-5.12-0.128-10.24-0.128-15.232-0.128l-33.792 195.968c-3.712 20.352-21.12 35.456-41.472 35.712h-0.128-0.128-137.6c-8.832-0.128-17.408-2.816-24.064-7.808-9.216-6.656-15.36-16.256-17.408-27.008-0.384-1.92-0.64-3.968-0.896-6.016l-29.824-244.864-26.112-15.488c-4.096-2.432-6.656-5.504-8.064-9.216-2.688-7.296 0-15.104 6.656-19.84 2.816-2.048 5.76-3.968 8.576-6.016l6.016-4.224c2.944-2.048 5.76-4.096 8.96-5.888 5.504-3.072 11.008-4.864 16.512-5.376 4.224-0.512 8.32 0.128 11.776 0.64l236.288 42.88c4.992 0.896 9.472 1.664 14.08 4.224 7.296 3.84 12.672 10.752 15.36 18.816 12.032-0.128 24.192-0.128 36.352 0.512 6.656 0.256 19.072 0.768 27.264 9.344 6.656 7.04 8.448 16 9.088 22.272 1.536 11.904-0.512 23.808-2.432 35.328z" fill="#ffffff" p-id="2247" data-spm-anchor-id="a313x.7781069.0.i1" class=""></path><path d="M613.248 407.808l-1.28-1.28-1.408-0.896-0.128-0.128c-2.432-0.64-4.864-1.152-7.296-1.536l-218.496-39.68c-5.888-1.024-11.776-2.176-17.536-3.2-0.256 0-0.512 0-0.768-0.128-1.536-0.128-2.176-0.256-2.688-0.128h-0.896c-0.384 0.128-0.896 0.256-1.28 0.256l-1.792 0.512c-0.256 0.128-0.384 0.128-0.64 0.256-0.896 0.384-1.664 0.896-2.56 1.28-2.688 1.536-5.376 3.456-7.936 5.248l-3.712 2.688c6.016 3.456 11.904 7.04 17.792 10.624 5.632 3.456 8.96 8.96 9.984 16.256l0.768 6.272 1.024 8.448L401.152 632.32c0.512 3.584 0.896 7.296 1.408 11.008l0.512 4.736c0.128 0.384 0.256 1.152 0.512 1.92l0.384 1.408v0.128l0.128 0.384c0.128 0.256 0.128 0.384 0.256 0.512 1.152 2.048 1.536 2.816 2.048 3.456l0.768 1.152c0.512 0.512 1.024 1.152 1.664 1.664 0.384 0.256 0.64 0.512 0.896 0.768 0.896 0.64 1.792 1.28 2.816 1.792l1.408 0.64c1.664 0.512 2.432 0.768 3.072 0.896 0.256 0 0.384 0.128 0.64 0.128H557.696c0.64 0 1.28 0 1.92-0.128l2.176-0.512c0.768-0.128 1.408-0.384 2.048-0.64l0.768-0.384c0.768-0.384 1.408-0.768 2.048-1.152l1.28-0.896c1.024-0.896 2.048-1.792 2.944-2.944l0.512-0.512c0.768-1.024 1.152-1.792 1.664-2.688l0.768-1.536c0.256-0.64 0.512-1.28 0.64-1.92 0.256-1.152 0.64-2.176 0.768-3.2L608 455.936l7.04-42.88v-0.512l-0.768-2.944-1.024-1.792zM398.08 527.36c-2.56 0-3.968-2.048-4.352-4.352-0.64-4.992-1.152-9.984-1.792-14.976-2.688-21.632-5.248-43.392-7.936-65.024-1.664-13.568-3.328-27.136-4.992-40.832-0.256-2.304 2.176-4.352 4.352-4.352 2.56 0 3.968 2.048 4.352 4.352 0.64 4.992 1.152 9.984 1.792 14.976 2.688 21.632 5.248 43.392 7.936 65.024 1.664 13.568 3.328 27.136 4.992 40.832 0.256 2.432-2.176 4.352-4.352 4.352z m66.56-75.904h51.2c5.504 0 5.504 8.576 0 8.576h-51.2c-5.504 0-5.504-8.576 0-8.576z m12.416 58.88h26.496c5.504 0 5.504 8.576 0 8.576h-26.496c-5.632 0.128-5.504-8.576 0-8.576z m-0.64-29.44h26.496c5.504 0 5.504 8.576 0 8.576h-26.496c-5.504 0.128-5.504-8.576 0-8.576z m40.448 156.288h-51.2c-5.504 0-5.504-8.576 0-8.576h51.2c5.504 0 5.504 8.576 0 8.576z m-13.952-60.416h-26.496c-5.504 0-5.504-8.576 0-8.576h26.496c5.632 0 5.632 8.576 0 8.576z m0.64 29.568h-26.496c-5.504 0-5.504-8.576 0-8.576h26.496c5.632-0.128 5.632 8.576 0 8.576z m13.312-56.32h-51.2c-5.504 0-5.504-8.576 0-8.576h51.2c5.504-0.128 5.504 8.576 0 8.576zM570.112 665.344z" fill="#13227a" p-id="2248" data-spm-anchor-id="a313x.7781069.0.i3" class="selected"></path></svg>