<?xml version="1.0" encoding="utf-8"?>
<svg version="1.1" xmlns:xlink="http://www.w3.org/1999/xlink" width="12px" height="12px" viewBox="908 182  12 12" xmlns="http://www.w3.org/2000/svg">
  <path d="M 914 182  C 917.36 182  920 184.64  920 188  C 920 191.36  917.36 194  914 194  C 910.64 194  908 191.36  908 188  C 908 184.64  910.64 182  914 182  Z " fill-rule="nonzero" fill="#ffffff" stroke="none" />
  <path d="M 914 182.5  C 917.08 182.5  919.5 184.92  919.5 188  C 919.5 191.08  917.08 193.5  914 193.5  C 910.92 193.5  908.5 191.08  908.5 188  C 908.5 184.92  910.92 182.5  914 182.5  Z " stroke-width="1" stroke="#797979" fill="none" />
  <path d="M 914 191  C 912.32 191  911 189.68  911 188  C 911 186.32  912.32 185  914 185  C 915.68 185  917 186.32  917 188  C 917 189.68  915.68 191  914 191  " fill-rule="nonzero" fill="#797979" stroke="none" />
</svg>