<?xml version="1.0" encoding="utf-8"?>
<svg version="1.1" xmlns:xlink="http://www.w3.org/1999/xlink" width="12px" height="12px" viewBox="841 182  12 12" xmlns="http://www.w3.org/2000/svg">
  <path d="M 847 182  C 850.36 182  853 184.64  853 188  C 853 191.36  850.36 194  847 194  C 843.64 194  841 191.36  841 188  C 841 184.64  843.64 182  847 182  Z " fill-rule="nonzero" fill="#f0f0f0" stroke="none" />
  <path d="M 847 182.5  C 850.08 182.5  852.5 184.92  852.5 188  C 852.5 191.08  850.08 193.5  847 193.5  C 843.92 193.5  841.5 191.08  841.5 188  C 841.5 184.92  843.92 182.5  847 182.5  Z " stroke-width="1" stroke="#797979" fill="none" />
  <path d="M 847 191  C 845.32 191  844 189.68  844 188  C 844 186.32  845.32 185  847 185  C 848.68 185  850 186.32  850 188  C 850 189.68  848.68 191  847 191  " fill-rule="nonzero" fill="#797979" stroke="none" />
</svg>